G75*
%MOIN*%
%OFA0B0*%
%FSLAX24Y24*%
%IPPOS*%
%LPD*%
%AMOC8*
5,1,8,0,0,1.08239X$1,22.5*
%
%ADD10C,0.0030*%
%ADD11C,0.0010*%
%ADD12C,0.0100*%
%ADD13C,0.0020*%
%ADD14C,0.0079*%
%ADD15C,0.0050*%
%ADD16C,0.0059*%
%ADD17C,0.0040*%
%ADD18C,0.0080*%
%ADD19C,0.0400*%
%ADD20C,0.0060*%
%ADD21C,0.0000*%
D10*
X004665Y003402D02*
X004713Y003354D01*
X004810Y003354D01*
X004858Y003402D01*
X004960Y003354D02*
X005153Y003548D01*
X005153Y003596D01*
X005105Y003644D01*
X005008Y003644D01*
X004960Y003596D01*
X004858Y003596D02*
X004810Y003644D01*
X004713Y003644D01*
X004665Y003596D01*
X004665Y003402D01*
X004960Y003354D02*
X005153Y003354D01*
X005254Y003499D02*
X005448Y003499D01*
X005399Y003354D02*
X005399Y003644D01*
X005254Y003499D01*
X005831Y003632D02*
X005879Y003584D01*
X005976Y003584D01*
X006025Y003632D01*
X006126Y003584D02*
X006319Y003778D01*
X006319Y003826D01*
X006271Y003874D01*
X006174Y003874D01*
X006126Y003826D01*
X006025Y003826D02*
X005976Y003874D01*
X005879Y003874D01*
X005831Y003826D01*
X005831Y003632D01*
X006126Y003584D02*
X006319Y003584D01*
X006420Y003632D02*
X006469Y003584D01*
X006565Y003584D01*
X006614Y003632D01*
X006614Y003681D01*
X006565Y003729D01*
X006420Y003729D01*
X006420Y003632D01*
X006420Y003729D02*
X006517Y003826D01*
X006614Y003874D01*
X005735Y004404D02*
X005445Y004404D01*
X005445Y004549D01*
X005493Y004598D01*
X005590Y004598D01*
X005638Y004549D01*
X005638Y004404D01*
X005638Y004501D02*
X005735Y004598D01*
X005735Y004699D02*
X005735Y004892D01*
X005735Y004795D02*
X005445Y004795D01*
X005542Y004699D01*
X005493Y004993D02*
X005445Y005042D01*
X005445Y005139D01*
X005493Y005187D01*
X005542Y005187D01*
X005590Y005139D01*
X005638Y005187D01*
X005687Y005187D01*
X005735Y005139D01*
X005735Y005042D01*
X005687Y004993D01*
X005590Y005090D02*
X005590Y005139D01*
X006395Y005144D02*
X006395Y005047D01*
X006443Y004999D01*
X006443Y004898D02*
X006395Y004849D01*
X006395Y004752D01*
X006443Y004704D01*
X006637Y004704D01*
X006685Y004752D01*
X006685Y004849D01*
X006637Y004898D01*
X006685Y004999D02*
X006492Y005192D01*
X006443Y005192D01*
X006395Y005144D01*
X006685Y005192D02*
X006685Y004999D01*
X006637Y005293D02*
X006685Y005342D01*
X006685Y005439D01*
X006637Y005487D01*
X006540Y005487D01*
X006492Y005439D01*
X006492Y005390D01*
X006540Y005293D01*
X006395Y005293D01*
X006395Y005487D01*
X007627Y005890D02*
X007969Y005959D01*
X007972Y005819D02*
X008109Y005819D01*
X007904Y005613D01*
X007836Y005682D02*
X007972Y005545D01*
X007764Y005753D02*
X007833Y006095D01*
X009197Y007010D02*
X009197Y007300D01*
X009342Y007300D01*
X009390Y007251D01*
X009390Y007155D01*
X009342Y007106D01*
X009197Y007106D01*
X009492Y007010D02*
X009588Y007010D01*
X009540Y007010D02*
X009540Y007300D01*
X009492Y007300D02*
X009588Y007300D01*
X009688Y007300D02*
X009833Y007300D01*
X009881Y007251D01*
X009881Y007155D01*
X009833Y007106D01*
X009688Y007106D01*
X009688Y007010D02*
X009688Y007300D01*
X009785Y007106D02*
X009881Y007010D01*
X011391Y007062D02*
X011488Y006966D01*
X011439Y006865D02*
X011391Y006816D01*
X011391Y006671D01*
X011681Y006671D01*
X011681Y006816D01*
X011633Y006865D01*
X011439Y006865D01*
X011681Y006966D02*
X011681Y007159D01*
X011681Y007062D02*
X011391Y007062D01*
X012476Y006781D02*
X012621Y006781D01*
X012669Y006733D01*
X012669Y006636D01*
X012621Y006588D01*
X012476Y006588D01*
X012572Y006588D02*
X012669Y006491D01*
X012770Y006491D02*
X012770Y006540D01*
X012964Y006733D01*
X012964Y006781D01*
X012770Y006781D01*
X012476Y006781D02*
X012476Y006491D01*
X013045Y006572D02*
X013093Y006475D01*
X013190Y006379D01*
X013190Y006524D01*
X013238Y006572D01*
X013287Y006572D01*
X013335Y006524D01*
X013335Y006427D01*
X013287Y006379D01*
X013190Y006379D01*
X013190Y006278D02*
X013238Y006229D01*
X013238Y006084D01*
X013238Y006181D02*
X013335Y006278D01*
X013190Y006278D02*
X013093Y006278D01*
X013045Y006229D01*
X013045Y006084D01*
X013335Y006084D01*
X013305Y005603D02*
X013402Y005603D01*
X013450Y005555D01*
X013450Y005458D01*
X013402Y005409D01*
X013305Y005409D02*
X013257Y005506D01*
X013257Y005555D01*
X013305Y005603D01*
X013160Y005603D02*
X013160Y005409D01*
X013305Y005409D01*
X013450Y005308D02*
X013450Y005115D01*
X013450Y005212D02*
X013160Y005212D01*
X013257Y005115D01*
X013208Y005014D02*
X013160Y004965D01*
X013160Y004869D01*
X013208Y004820D01*
X013402Y004820D01*
X013450Y004869D01*
X013450Y004965D01*
X013402Y005014D01*
X013265Y004637D02*
X013265Y004443D01*
X013265Y004540D02*
X012975Y004540D01*
X013072Y004443D01*
X013072Y004342D02*
X013120Y004294D01*
X013168Y004342D01*
X013217Y004342D01*
X013265Y004294D01*
X013265Y004197D01*
X013217Y004149D01*
X013217Y004048D02*
X013265Y003999D01*
X013265Y003902D01*
X013217Y003854D01*
X013023Y003854D01*
X012975Y003902D01*
X012975Y003999D01*
X013023Y004048D01*
X013023Y004149D02*
X012975Y004197D01*
X012975Y004294D01*
X013023Y004342D01*
X013072Y004342D01*
X013120Y004294D02*
X013120Y004245D01*
X014015Y004160D02*
X014063Y004208D01*
X014112Y004208D01*
X014160Y004160D01*
X014208Y004208D01*
X014257Y004208D01*
X014305Y004160D01*
X014305Y004063D01*
X014257Y004015D01*
X014257Y003914D02*
X014305Y003865D01*
X014305Y003769D01*
X014257Y003720D01*
X014063Y003720D01*
X014015Y003769D01*
X014015Y003865D01*
X014063Y003914D01*
X014063Y004015D02*
X014015Y004063D01*
X014015Y004160D01*
X014160Y004160D02*
X014160Y004112D01*
X014257Y004309D02*
X014305Y004358D01*
X014305Y004455D01*
X014257Y004503D01*
X014208Y004503D01*
X014160Y004455D01*
X014160Y004406D01*
X014160Y004455D02*
X014112Y004503D01*
X014063Y004503D01*
X014015Y004455D01*
X014015Y004358D01*
X014063Y004309D01*
X014815Y004358D02*
X014863Y004309D01*
X014815Y004358D02*
X014815Y004455D01*
X014863Y004503D01*
X014912Y004503D01*
X015105Y004309D01*
X015105Y004503D01*
X015057Y004208D02*
X015105Y004160D01*
X015105Y004063D01*
X015057Y004015D01*
X015057Y003914D02*
X015105Y003865D01*
X015105Y003769D01*
X015057Y003720D01*
X014863Y003720D01*
X014815Y003769D01*
X014815Y003865D01*
X014863Y003914D01*
X014863Y004015D02*
X014815Y004063D01*
X014815Y004160D01*
X014863Y004208D01*
X014912Y004208D01*
X014960Y004160D01*
X015008Y004208D01*
X015057Y004208D01*
X014960Y004160D02*
X014960Y004112D01*
X014562Y003433D02*
X014562Y003384D01*
X014562Y003288D02*
X014562Y003094D01*
X014514Y003094D02*
X014611Y003094D01*
X014711Y003094D02*
X014711Y003288D01*
X014856Y003288D01*
X014904Y003239D01*
X014904Y003094D01*
X014562Y003288D02*
X014514Y003288D01*
X014413Y003384D02*
X014413Y003191D01*
X014316Y003094D01*
X014219Y003191D01*
X014219Y003384D01*
X014118Y003336D02*
X014118Y003288D01*
X014070Y003239D01*
X014118Y003191D01*
X014118Y003142D01*
X014070Y003094D01*
X013973Y003094D01*
X013925Y003142D01*
X014022Y003239D02*
X014070Y003239D01*
X014118Y003336D02*
X014070Y003384D01*
X013973Y003384D01*
X013925Y003336D01*
X013306Y002634D02*
X013306Y002344D01*
X013161Y002344D01*
X013112Y002392D01*
X013112Y002489D01*
X013161Y002538D01*
X013306Y002538D01*
X013011Y002489D02*
X013011Y002344D01*
X013011Y002489D02*
X012963Y002538D01*
X012818Y002538D01*
X012818Y002344D01*
X012717Y002344D02*
X012571Y002344D01*
X012523Y002392D01*
X012523Y002489D01*
X012571Y002538D01*
X012717Y002538D01*
X012717Y002296D01*
X012668Y002247D01*
X012620Y002247D01*
X012212Y002344D02*
X012308Y002538D01*
X012115Y002538D02*
X012212Y002344D01*
X012014Y002392D02*
X011965Y002344D01*
X011869Y002344D01*
X011820Y002392D01*
X011917Y002489D02*
X011965Y002489D01*
X012014Y002441D01*
X012014Y002392D01*
X011965Y002489D02*
X012014Y002538D01*
X012014Y002586D01*
X011965Y002634D01*
X011869Y002634D01*
X011820Y002586D01*
X011383Y002538D02*
X011238Y002441D01*
X011383Y002344D01*
X011238Y002344D02*
X011238Y002634D01*
X011090Y002634D02*
X011090Y002344D01*
X011138Y002344D02*
X011041Y002344D01*
X010940Y002344D02*
X010795Y002344D01*
X010747Y002392D01*
X010747Y002489D01*
X010795Y002538D01*
X010940Y002538D01*
X011041Y002634D02*
X011090Y002634D01*
X010212Y002634D02*
X010212Y002683D01*
X010212Y002538D02*
X010212Y002344D01*
X010164Y002344D02*
X010261Y002344D01*
X010212Y002538D02*
X010164Y002538D01*
X010063Y002538D02*
X009918Y002538D01*
X009869Y002489D01*
X009918Y002441D01*
X010015Y002441D01*
X010063Y002392D01*
X010015Y002344D01*
X009869Y002344D01*
X009308Y002392D02*
X009308Y002489D01*
X009260Y002538D01*
X009163Y002538D01*
X009115Y002489D01*
X009115Y002392D01*
X009163Y002344D01*
X009260Y002344D01*
X009308Y002392D01*
X009014Y002392D02*
X008965Y002441D01*
X008869Y002441D01*
X008820Y002489D01*
X008869Y002538D01*
X009014Y002538D01*
X009014Y002392D02*
X008965Y002344D01*
X008820Y002344D01*
X008384Y002344D02*
X008335Y002392D01*
X008335Y002586D01*
X008287Y002538D02*
X008384Y002538D01*
X008186Y002538D02*
X008041Y002538D01*
X007992Y002489D01*
X008041Y002441D01*
X008137Y002441D01*
X008186Y002392D01*
X008137Y002344D01*
X007992Y002344D01*
X007892Y002538D02*
X007843Y002538D01*
X007747Y002441D01*
X007747Y002344D02*
X007747Y002538D01*
X010995Y003854D02*
X010995Y003999D01*
X011043Y004048D01*
X011140Y004048D01*
X011188Y003999D01*
X011188Y003854D01*
X011188Y003951D02*
X011285Y004048D01*
X011237Y004149D02*
X011285Y004197D01*
X011285Y004294D01*
X011237Y004342D01*
X011043Y004342D01*
X010995Y004294D01*
X010995Y004197D01*
X011043Y004149D01*
X011092Y004149D01*
X011140Y004197D01*
X011140Y004342D01*
X011285Y003854D02*
X010995Y003854D01*
X008603Y004846D02*
X008410Y004652D01*
X008410Y004604D01*
X008308Y004652D02*
X008308Y004894D01*
X008410Y004894D02*
X008603Y004894D01*
X008603Y004846D01*
X008308Y004652D02*
X008260Y004604D01*
X008163Y004604D01*
X008115Y004652D01*
X008115Y004894D01*
X012070Y005304D02*
X012070Y005449D01*
X012118Y005498D01*
X012215Y005498D01*
X012263Y005449D01*
X012263Y005304D01*
X012263Y005401D02*
X012360Y005498D01*
X012360Y005599D02*
X012167Y005792D01*
X012118Y005792D01*
X012070Y005744D01*
X012070Y005647D01*
X012118Y005599D01*
X012360Y005599D02*
X012360Y005792D01*
X012360Y005304D02*
X012070Y005304D01*
X013118Y007054D02*
X013312Y007054D01*
X013360Y007102D01*
X013360Y007199D01*
X013312Y007248D01*
X013360Y007349D02*
X013360Y007542D01*
X013360Y007445D02*
X013070Y007445D01*
X013167Y007349D01*
X013118Y007248D02*
X013070Y007199D01*
X013070Y007102D01*
X013118Y007054D01*
X013215Y007643D02*
X013118Y007740D01*
X013070Y007837D01*
X013215Y007789D02*
X013215Y007643D01*
X013312Y007643D01*
X013360Y007692D01*
X013360Y007789D01*
X013312Y007837D01*
X013263Y007837D01*
X013215Y007789D01*
X014315Y007821D02*
X014315Y007627D01*
X014363Y007579D01*
X014460Y007579D01*
X014508Y007627D01*
X014610Y007627D02*
X014658Y007579D01*
X014755Y007579D01*
X014803Y007627D01*
X014803Y007724D01*
X014755Y007773D01*
X014706Y007773D01*
X014610Y007724D01*
X014610Y007869D01*
X014803Y007869D01*
X014508Y007821D02*
X014460Y007869D01*
X014363Y007869D01*
X014315Y007821D01*
X016365Y007719D02*
X016365Y007429D01*
X016365Y007526D02*
X016510Y007526D01*
X016558Y007574D01*
X016558Y007671D01*
X016510Y007719D01*
X016365Y007719D01*
X016462Y007526D02*
X016558Y007429D01*
X016660Y007574D02*
X016853Y007574D01*
X016805Y007429D02*
X016805Y007719D01*
X016660Y007574D01*
X018165Y007496D02*
X018165Y007302D01*
X018213Y007254D01*
X018310Y007254D01*
X018358Y007302D01*
X018460Y007302D02*
X018508Y007254D01*
X018605Y007254D01*
X018653Y007302D01*
X018653Y007351D01*
X018605Y007399D01*
X018460Y007399D01*
X018460Y007302D01*
X018460Y007399D02*
X018556Y007496D01*
X018653Y007544D01*
X018358Y007496D02*
X018310Y007544D01*
X018213Y007544D01*
X018165Y007496D01*
X018213Y007954D02*
X018310Y007954D01*
X018358Y008002D01*
X018460Y008002D02*
X018460Y007954D01*
X018460Y008002D02*
X018653Y008196D01*
X018653Y008244D01*
X018460Y008244D01*
X018358Y008196D02*
X018310Y008244D01*
X018213Y008244D01*
X018165Y008196D01*
X018165Y008002D01*
X018213Y007954D01*
X015864Y009184D02*
X015670Y009184D01*
X015767Y009184D02*
X015767Y009474D01*
X015670Y009378D01*
X015569Y009426D02*
X015521Y009474D01*
X015424Y009474D01*
X015376Y009426D01*
X015376Y009232D01*
X015424Y009184D01*
X015521Y009184D01*
X015569Y009232D01*
X017745Y009952D02*
X017793Y009904D01*
X017987Y009904D01*
X018035Y009952D01*
X018035Y010049D01*
X017987Y010098D01*
X018035Y010199D02*
X018035Y010392D01*
X018035Y010295D02*
X017745Y010295D01*
X017842Y010199D01*
X017793Y010098D02*
X017745Y010049D01*
X017745Y009952D01*
X018125Y010242D02*
X018173Y010194D01*
X018270Y010194D01*
X018318Y010242D01*
X018318Y010291D01*
X018270Y010339D01*
X018222Y010339D01*
X018270Y010339D02*
X018318Y010388D01*
X018318Y010436D01*
X018270Y010484D01*
X018173Y010484D01*
X018125Y010436D01*
X018035Y010542D02*
X017987Y010493D01*
X017938Y010493D01*
X017890Y010542D01*
X017890Y010639D01*
X017938Y010687D01*
X017987Y010687D01*
X018035Y010639D01*
X018035Y010542D01*
X017890Y010542D02*
X017842Y010493D01*
X017793Y010493D01*
X017745Y010542D01*
X017745Y010639D01*
X017793Y010687D01*
X017842Y010687D01*
X017890Y010639D01*
X018419Y010484D02*
X018419Y010291D01*
X018516Y010194D01*
X018613Y010291D01*
X018613Y010484D01*
X018714Y010388D02*
X018762Y010388D01*
X018762Y010194D01*
X018714Y010194D02*
X018811Y010194D01*
X018911Y010194D02*
X018911Y010388D01*
X019056Y010388D01*
X019104Y010339D01*
X019104Y010194D01*
X018762Y010484D02*
X018762Y010533D01*
X017164Y011032D02*
X017164Y011226D01*
X017115Y011274D01*
X017019Y011274D01*
X016970Y011226D01*
X016970Y011178D01*
X017019Y011129D01*
X017164Y011129D01*
X017164Y011032D02*
X017115Y010984D01*
X017019Y010984D01*
X016970Y011032D01*
X016869Y010984D02*
X016676Y010984D01*
X016772Y010984D02*
X016772Y011274D01*
X016676Y011178D01*
X016575Y011226D02*
X016526Y011274D01*
X016429Y011274D01*
X016381Y011226D01*
X016381Y011032D01*
X016429Y010984D01*
X016526Y010984D01*
X016575Y011032D01*
X016304Y011594D02*
X016304Y011739D01*
X016256Y011788D01*
X016111Y011788D01*
X016111Y011594D01*
X016011Y011594D02*
X015914Y011594D01*
X015962Y011594D02*
X015962Y011788D01*
X015914Y011788D01*
X015962Y011884D02*
X015962Y011933D01*
X015813Y011884D02*
X015813Y011691D01*
X015716Y011594D01*
X015619Y011691D01*
X015619Y011884D01*
X015518Y011836D02*
X015518Y011788D01*
X015470Y011739D01*
X015518Y011691D01*
X015518Y011642D01*
X015470Y011594D01*
X015373Y011594D01*
X015325Y011642D01*
X015422Y011739D02*
X015470Y011739D01*
X015518Y011836D02*
X015470Y011884D01*
X015373Y011884D01*
X015325Y011836D01*
X013155Y011479D02*
X013155Y011382D01*
X013107Y011333D01*
X012913Y011527D01*
X013107Y011527D01*
X013155Y011479D01*
X013107Y011333D02*
X012913Y011333D01*
X012865Y011382D01*
X012865Y011479D01*
X012913Y011527D01*
X012913Y011232D02*
X012865Y011184D01*
X012865Y011087D01*
X012913Y011039D01*
X012913Y010938D02*
X012865Y010889D01*
X012865Y010792D01*
X012913Y010744D01*
X013107Y010744D01*
X013155Y010792D01*
X013155Y010889D01*
X013107Y010938D01*
X013155Y011039D02*
X012962Y011232D01*
X012913Y011232D01*
X013155Y011232D02*
X013155Y011039D01*
X012305Y011039D02*
X012305Y011232D01*
X012305Y011135D02*
X012015Y011135D01*
X012112Y011039D01*
X012063Y010938D02*
X012015Y010889D01*
X012015Y010792D01*
X012063Y010744D01*
X012257Y010744D01*
X012305Y010792D01*
X012305Y010889D01*
X012257Y010938D01*
X012160Y011333D02*
X012160Y011527D01*
X012305Y011479D02*
X012015Y011479D01*
X012160Y011333D01*
X011505Y011353D02*
X011505Y011547D01*
X011505Y011450D02*
X011215Y011450D01*
X011312Y011353D01*
X011505Y011252D02*
X011505Y011059D01*
X011505Y011155D02*
X011215Y011155D01*
X011312Y011059D01*
X011263Y010958D02*
X011215Y010909D01*
X011215Y010812D01*
X011263Y010764D01*
X011457Y010764D01*
X011505Y010812D01*
X011505Y010909D01*
X011457Y010958D01*
X010705Y011009D02*
X010705Y011202D01*
X010705Y011105D02*
X010415Y011105D01*
X010512Y011009D01*
X010463Y010908D02*
X010415Y010859D01*
X010415Y010762D01*
X010463Y010714D01*
X010657Y010714D01*
X010705Y010762D01*
X010705Y010859D01*
X010657Y010908D01*
X010657Y011303D02*
X010705Y011352D01*
X010705Y011449D01*
X010657Y011497D01*
X010608Y011497D01*
X010560Y011449D01*
X010560Y011400D01*
X010560Y011449D02*
X010512Y011497D01*
X010463Y011497D01*
X010415Y011449D01*
X010415Y011352D01*
X010463Y011303D01*
X009812Y010337D02*
X009860Y010289D01*
X009860Y010192D01*
X009812Y010143D01*
X009618Y010337D01*
X009812Y010337D01*
X009618Y010337D02*
X009570Y010289D01*
X009570Y010192D01*
X009618Y010143D01*
X009812Y010143D01*
X009860Y010042D02*
X009860Y009849D01*
X009860Y009945D02*
X009570Y009945D01*
X009667Y009849D01*
X009618Y009748D02*
X009570Y009699D01*
X009570Y009602D01*
X009618Y009554D01*
X009812Y009554D01*
X009860Y009602D01*
X009860Y009699D01*
X009812Y009748D01*
X010781Y009716D02*
X010781Y009522D01*
X010829Y009474D01*
X010926Y009474D01*
X010975Y009522D01*
X011076Y009474D02*
X011269Y009668D01*
X011269Y009716D01*
X011221Y009764D01*
X011124Y009764D01*
X011076Y009716D01*
X010975Y009716D02*
X010926Y009764D01*
X010829Y009764D01*
X010781Y009716D01*
X011076Y009474D02*
X011269Y009474D01*
X011370Y009474D02*
X011564Y009474D01*
X011467Y009474D02*
X011467Y009764D01*
X011370Y009668D01*
X011931Y009631D02*
X012076Y009631D01*
X012125Y009679D01*
X012125Y009776D01*
X012076Y009824D01*
X011931Y009824D01*
X011931Y009534D01*
X012028Y009631D02*
X012125Y009534D01*
X012226Y009534D02*
X012419Y009534D01*
X012322Y009534D02*
X012322Y009824D01*
X012226Y009728D01*
X012520Y009776D02*
X012569Y009824D01*
X012665Y009824D01*
X012714Y009776D01*
X012520Y009582D01*
X012569Y009534D01*
X012665Y009534D01*
X012714Y009582D01*
X012714Y009776D01*
X012520Y009776D02*
X012520Y009582D01*
X012282Y009312D02*
X012330Y009264D01*
X012330Y009167D01*
X012282Y009119D01*
X012233Y009119D01*
X012185Y009167D01*
X012185Y009264D01*
X012233Y009312D01*
X012282Y009312D01*
X012185Y009264D02*
X012137Y009312D01*
X012088Y009312D01*
X012040Y009264D01*
X012040Y009167D01*
X012088Y009119D01*
X012137Y009119D01*
X012185Y009167D01*
X012185Y009018D02*
X012088Y009018D01*
X012040Y008969D01*
X012040Y008824D01*
X012330Y008824D01*
X012233Y008824D02*
X012233Y008969D01*
X012185Y009018D01*
X012233Y008921D02*
X012330Y009018D01*
X010941Y008966D02*
X010748Y009159D01*
X010699Y009159D01*
X010651Y009111D01*
X010651Y009014D01*
X010699Y008966D01*
X010699Y008865D02*
X010651Y008816D01*
X010651Y008671D01*
X010941Y008671D01*
X010941Y008816D01*
X010893Y008865D01*
X010699Y008865D01*
X010941Y008966D02*
X010941Y009159D01*
X009010Y009652D02*
X009010Y009749D01*
X008962Y009798D01*
X008962Y009899D02*
X009010Y009947D01*
X009010Y010044D01*
X008962Y010092D01*
X008768Y010092D01*
X008720Y010044D01*
X008720Y009947D01*
X008768Y009899D01*
X008817Y009899D01*
X008865Y009947D01*
X008865Y010092D01*
X008768Y009798D02*
X008720Y009749D01*
X008720Y009652D01*
X008768Y009604D01*
X008962Y009604D01*
X009010Y009652D01*
X008085Y009652D02*
X008085Y009749D01*
X008037Y009798D01*
X008085Y009899D02*
X008085Y010092D01*
X008085Y009995D02*
X007795Y009995D01*
X007892Y009899D01*
X007843Y009798D02*
X007795Y009749D01*
X007795Y009652D01*
X007843Y009604D01*
X008037Y009604D01*
X008085Y009652D01*
X008085Y010193D02*
X007892Y010387D01*
X007843Y010387D01*
X007795Y010339D01*
X007795Y010242D01*
X007843Y010193D01*
X008085Y010193D02*
X008085Y010387D01*
X007235Y010904D02*
X006945Y010904D01*
X006945Y011049D01*
X006993Y011098D01*
X007090Y011098D01*
X007138Y011049D01*
X007138Y010904D01*
X007138Y011001D02*
X007235Y011098D01*
X007235Y011199D02*
X007042Y011392D01*
X006993Y011392D01*
X006945Y011344D01*
X006945Y011247D01*
X006993Y011199D01*
X007235Y011199D02*
X007235Y011392D01*
X007235Y011493D02*
X007042Y011687D01*
X006993Y011687D01*
X006945Y011639D01*
X006945Y011542D01*
X006993Y011493D01*
X007235Y011493D02*
X007235Y011687D01*
X007499Y011397D02*
X007547Y011446D01*
X007596Y011446D01*
X007644Y011397D01*
X007693Y011446D01*
X007741Y011446D01*
X007789Y011397D01*
X007789Y011301D01*
X007741Y011252D01*
X007741Y011151D02*
X007547Y011151D01*
X007499Y011103D01*
X007499Y010958D01*
X007789Y010958D01*
X007789Y011103D01*
X007741Y011151D01*
X007547Y011252D02*
X007499Y011301D01*
X007499Y011397D01*
X007644Y011397D02*
X007644Y011349D01*
X006491Y011412D02*
X006491Y011509D01*
X006443Y011558D01*
X006250Y011558D01*
X006201Y011509D01*
X006201Y011412D01*
X006250Y011364D01*
X006298Y011364D01*
X006346Y011412D01*
X006346Y011558D01*
X006116Y011483D02*
X006116Y011387D01*
X006068Y011338D01*
X005874Y011532D01*
X006068Y011532D01*
X006116Y011483D01*
X006068Y011338D02*
X005874Y011338D01*
X005826Y011387D01*
X005826Y011483D01*
X005874Y011532D01*
X005874Y011237D02*
X005923Y011237D01*
X005971Y011189D01*
X006020Y011237D01*
X006068Y011237D01*
X006116Y011189D01*
X006116Y011092D01*
X006068Y011044D01*
X006068Y010943D02*
X006116Y010894D01*
X006116Y010797D01*
X006068Y010749D01*
X005874Y010749D01*
X005826Y010797D01*
X005826Y010894D01*
X005874Y010943D01*
X005874Y011044D02*
X005826Y011092D01*
X005826Y011189D01*
X005874Y011237D01*
X005971Y011189D02*
X005971Y011140D01*
X006201Y011166D02*
X006491Y011166D01*
X006491Y011069D02*
X006491Y011263D01*
X006443Y011364D02*
X006491Y011412D01*
X006201Y011166D02*
X006298Y011069D01*
X006346Y010968D02*
X006395Y010920D01*
X006395Y010775D01*
X006491Y010775D02*
X006201Y010775D01*
X006201Y010920D01*
X006250Y010968D01*
X006346Y010968D01*
X006395Y010872D02*
X006491Y010968D01*
X004844Y011178D02*
X004707Y011042D01*
X004707Y011315D01*
X004673Y011349D01*
X004604Y011349D01*
X004536Y011281D01*
X004536Y011213D01*
X004465Y011141D02*
X004396Y011141D01*
X004328Y011073D01*
X004328Y011004D01*
X004256Y010933D02*
X004188Y010933D01*
X004119Y010864D01*
X004119Y010796D01*
X004256Y010659D01*
X004325Y010659D01*
X004393Y010728D01*
X004393Y010796D01*
X004499Y010833D02*
X004499Y011107D01*
X004465Y011141D01*
X004353Y011248D02*
X004256Y011248D01*
X004208Y011296D01*
X004208Y011345D01*
X004256Y011393D01*
X004353Y011393D01*
X004401Y011345D01*
X004401Y011296D01*
X004353Y011248D01*
X004353Y011393D02*
X004401Y011442D01*
X004401Y011490D01*
X004353Y011538D01*
X004256Y011538D01*
X004208Y011490D01*
X004208Y011442D01*
X004256Y011393D01*
X004107Y011248D02*
X003913Y011248D01*
X004010Y011248D02*
X004010Y011538D01*
X003913Y011442D01*
X003812Y011490D02*
X003812Y011393D01*
X003764Y011345D01*
X003619Y011345D01*
X003715Y011345D02*
X003812Y011248D01*
X003619Y011248D02*
X003619Y011538D01*
X003764Y011538D01*
X003812Y011490D01*
X003074Y011383D02*
X003074Y011315D01*
X003005Y011247D01*
X002937Y011247D01*
X002900Y011141D02*
X002763Y011004D01*
X002763Y011278D01*
X002729Y011312D01*
X002660Y011312D01*
X002592Y011243D01*
X002592Y011175D01*
X002520Y011104D02*
X002452Y011104D01*
X002384Y011035D01*
X002384Y010967D01*
X002520Y010830D01*
X002589Y010830D01*
X002657Y010898D01*
X002657Y010967D01*
X002800Y011383D02*
X002800Y011452D01*
X002869Y011520D01*
X002937Y011520D01*
X002971Y011486D01*
X002971Y011418D01*
X003040Y011418D01*
X003074Y011383D01*
X002971Y011418D02*
X002937Y011383D01*
X001795Y011299D02*
X001650Y011299D01*
X001602Y011251D01*
X001602Y011106D01*
X001795Y011106D01*
X001795Y011005D02*
X001602Y011005D01*
X001505Y010908D01*
X001602Y010811D01*
X001795Y010811D01*
X001650Y010811D02*
X001650Y011005D01*
X001602Y011401D02*
X001602Y011497D01*
X001553Y011449D02*
X001747Y011449D01*
X001795Y011497D01*
X001473Y010440D02*
X001521Y010391D01*
X001521Y010343D01*
X001473Y010295D01*
X001376Y010295D01*
X001328Y010343D01*
X001328Y010391D01*
X001376Y010440D01*
X001473Y010440D01*
X001473Y010295D02*
X001521Y010246D01*
X001521Y010198D01*
X001473Y010149D01*
X001376Y010149D01*
X001328Y010198D01*
X001328Y010246D01*
X001376Y010295D01*
X001226Y010343D02*
X001033Y010149D01*
X001226Y010149D01*
X000932Y010198D02*
X000883Y010149D01*
X000787Y010149D01*
X000738Y010198D01*
X000738Y010391D01*
X000787Y010440D01*
X000883Y010440D01*
X000932Y010391D01*
X001033Y010391D02*
X001081Y010440D01*
X001178Y010440D01*
X001226Y010391D01*
X001226Y010343D01*
X001413Y009953D02*
X001365Y009905D01*
X001365Y009808D01*
X001413Y009759D01*
X001462Y009759D01*
X001510Y009808D01*
X001510Y009953D01*
X001607Y009953D02*
X001413Y009953D01*
X001607Y009953D02*
X001655Y009905D01*
X001655Y009808D01*
X001607Y009759D01*
X001655Y009658D02*
X001655Y009465D01*
X001462Y009658D01*
X001413Y009658D01*
X001365Y009610D01*
X001365Y009513D01*
X001413Y009465D01*
X001413Y009364D02*
X001365Y009315D01*
X001365Y009219D01*
X001413Y009170D01*
X001607Y009170D01*
X001655Y009219D01*
X001655Y009315D01*
X001607Y009364D01*
X004499Y010833D02*
X004636Y010970D01*
X006656Y007524D02*
X006656Y007282D01*
X006705Y007233D01*
X006802Y007233D01*
X006850Y007282D01*
X006850Y007524D01*
X006951Y007379D02*
X007145Y007379D01*
X007096Y007524D02*
X006951Y007379D01*
X007096Y007233D02*
X007096Y007524D01*
X003085Y006039D02*
X003085Y005942D01*
X003037Y005893D01*
X002940Y005893D01*
X002940Y006039D01*
X002988Y006087D01*
X003037Y006087D01*
X003085Y006039D01*
X002940Y005893D02*
X002843Y005990D01*
X002795Y006087D01*
X003085Y005792D02*
X003085Y005599D01*
X003085Y005695D02*
X002795Y005695D01*
X002892Y005599D01*
X002940Y005498D02*
X002988Y005449D01*
X002988Y005304D01*
X002988Y005401D02*
X003085Y005498D01*
X002940Y005498D02*
X002843Y005498D01*
X002795Y005449D01*
X002795Y005304D01*
X003085Y005304D01*
X003165Y005194D02*
X003310Y005194D01*
X003358Y005146D01*
X003358Y005049D01*
X003310Y005001D01*
X003165Y005001D01*
X003262Y005001D02*
X003358Y004904D01*
X003460Y004904D02*
X003653Y004904D01*
X003556Y004904D02*
X003556Y005194D01*
X003460Y005098D01*
X003754Y005194D02*
X003948Y005194D01*
X003948Y005146D01*
X003754Y004952D01*
X003754Y004904D01*
X003165Y004904D02*
X003165Y005194D01*
X002316Y005795D02*
X002026Y005795D01*
X002026Y005940D01*
X002074Y005988D01*
X002171Y005988D01*
X002219Y005940D01*
X002219Y005795D01*
X002219Y005891D02*
X002316Y005988D01*
X002316Y006089D02*
X002123Y006283D01*
X002074Y006283D01*
X002026Y006234D01*
X002026Y006138D01*
X002074Y006089D01*
X002316Y006089D02*
X002316Y006283D01*
X002316Y006384D02*
X002316Y006577D01*
X002316Y006481D02*
X002026Y006481D01*
X002123Y006384D01*
X000905Y005889D02*
X000905Y005792D01*
X000857Y005743D01*
X000760Y005743D02*
X000712Y005840D01*
X000712Y005889D01*
X000760Y005937D01*
X000857Y005937D01*
X000905Y005889D01*
X000760Y005743D02*
X000615Y005743D01*
X000615Y005937D01*
X000615Y005545D02*
X000905Y005545D01*
X000905Y005449D02*
X000905Y005642D01*
X000712Y005449D02*
X000615Y005545D01*
X000663Y005348D02*
X000760Y005348D01*
X000808Y005299D01*
X000808Y005154D01*
X000808Y005251D02*
X000905Y005348D01*
X000663Y005348D02*
X000615Y005299D01*
X000615Y005154D01*
X000905Y005154D01*
X003215Y004453D02*
X003215Y004259D01*
X003263Y004158D02*
X003215Y004110D01*
X003215Y004013D01*
X003263Y003965D01*
X003263Y003864D02*
X003215Y003815D01*
X003215Y003719D01*
X003263Y003670D01*
X003457Y003670D01*
X003505Y003719D01*
X003505Y003815D01*
X003457Y003864D01*
X003505Y003965D02*
X003312Y004158D01*
X003263Y004158D01*
X003457Y004259D02*
X003505Y004259D01*
X003457Y004259D02*
X003263Y004453D01*
X003215Y004453D01*
X003505Y004158D02*
X003505Y003965D01*
X017165Y005913D02*
X017213Y005865D01*
X017407Y005865D01*
X017455Y005913D01*
X017455Y006010D01*
X017407Y006058D01*
X017310Y006159D02*
X017310Y006353D01*
X017455Y006305D02*
X017165Y006305D01*
X017310Y006159D01*
X017213Y006058D02*
X017165Y006010D01*
X017165Y005913D01*
X018140Y005865D02*
X018140Y006010D01*
X018188Y006058D01*
X018285Y006058D01*
X018333Y006010D01*
X018333Y005865D01*
X018333Y005962D02*
X018430Y006058D01*
X018382Y006159D02*
X018430Y006208D01*
X018430Y006305D01*
X018382Y006353D01*
X018333Y006353D01*
X018285Y006305D01*
X018285Y006256D01*
X018285Y006305D02*
X018237Y006353D01*
X018188Y006353D01*
X018140Y006305D01*
X018140Y006208D01*
X018188Y006159D01*
X018140Y005865D02*
X018430Y005865D01*
X019006Y005534D02*
X019006Y005244D01*
X018861Y005244D01*
X018812Y005292D01*
X018812Y005389D01*
X018861Y005438D01*
X019006Y005438D01*
X018711Y005389D02*
X018711Y005244D01*
X018711Y005389D02*
X018663Y005438D01*
X018518Y005438D01*
X018518Y005244D01*
X018417Y005244D02*
X018271Y005244D01*
X018223Y005292D01*
X018223Y005389D01*
X018271Y005438D01*
X018417Y005438D01*
X018417Y005196D01*
X018368Y005147D01*
X018320Y005147D01*
X017743Y005104D02*
X017550Y005104D01*
X017646Y005104D02*
X017646Y005394D01*
X017550Y005298D01*
X017448Y005346D02*
X017448Y005152D01*
X017400Y005104D01*
X017303Y005104D01*
X017255Y005152D01*
X017255Y005346D01*
X017303Y005394D01*
X017400Y005394D01*
X017448Y005346D01*
X017352Y005201D02*
X017448Y005104D01*
X017523Y003917D02*
X017668Y003917D01*
X017716Y003869D01*
X017716Y003772D01*
X017668Y003723D01*
X017523Y003723D01*
X017523Y003627D02*
X017523Y003917D01*
X017620Y003723D02*
X017716Y003627D01*
X017817Y003627D02*
X018011Y003627D01*
X018112Y003675D02*
X018161Y003627D01*
X018257Y003627D01*
X018306Y003675D01*
X018306Y003723D01*
X018257Y003772D01*
X018161Y003772D01*
X018112Y003820D01*
X018112Y003869D01*
X018161Y003917D01*
X018257Y003917D01*
X018306Y003869D01*
X018407Y003917D02*
X018407Y003627D01*
X018600Y003627D01*
X018504Y003772D02*
X018407Y003772D01*
X018407Y003917D02*
X018600Y003917D01*
X018701Y003917D02*
X018895Y003917D01*
X018798Y003917D02*
X018798Y003627D01*
X018011Y003917D02*
X017817Y003917D01*
X017817Y003627D01*
X017817Y003772D02*
X017914Y003772D01*
D11*
X013750Y002139D02*
X000937Y002139D01*
X000883Y002141D01*
X000830Y002146D01*
X000777Y002155D01*
X000725Y002168D01*
X000673Y002184D01*
X000623Y002204D01*
X000575Y002227D01*
X000528Y002254D01*
X000483Y002283D01*
X000440Y002316D01*
X000400Y002351D01*
X000362Y002389D01*
X000327Y002429D01*
X000294Y002472D01*
X000265Y002517D01*
X000238Y002564D01*
X000215Y002612D01*
X000195Y002662D01*
X000179Y002714D01*
X000166Y002766D01*
X000157Y002819D01*
X000152Y002872D01*
X000150Y002926D01*
X000150Y011352D01*
X000152Y011406D01*
X000157Y011459D01*
X000166Y011512D01*
X000179Y011564D01*
X000195Y011616D01*
X000215Y011666D01*
X000238Y011714D01*
X000265Y011761D01*
X000294Y011806D01*
X000327Y011849D01*
X000362Y011889D01*
X000400Y011927D01*
X000440Y011962D01*
X000483Y011995D01*
X000528Y012024D01*
X000575Y012051D01*
X000623Y012074D01*
X000673Y012094D01*
X000725Y012110D01*
X000777Y012123D01*
X000830Y012132D01*
X000883Y012137D01*
X000937Y012139D01*
X013700Y012139D01*
X014900Y012139D01*
X018654Y012139D01*
X018708Y012137D01*
X018761Y012132D01*
X018814Y012123D01*
X018866Y012110D01*
X018918Y012094D01*
X018968Y012074D01*
X019016Y012051D01*
X019063Y012024D01*
X019108Y011995D01*
X019151Y011962D01*
X019191Y011927D01*
X019229Y011889D01*
X019264Y011849D01*
X019297Y011806D01*
X019326Y011761D01*
X019353Y011714D01*
X019376Y011666D01*
X019396Y011616D01*
X019412Y011564D01*
X019425Y011512D01*
X019434Y011459D01*
X019439Y011406D01*
X019441Y011352D01*
X019441Y002926D01*
X019439Y002872D01*
X019434Y002819D01*
X019425Y002766D01*
X019412Y002714D01*
X019396Y002662D01*
X019376Y002612D01*
X019353Y002564D01*
X019326Y002517D01*
X019297Y002472D01*
X019264Y002429D01*
X019229Y002389D01*
X019191Y002351D01*
X019151Y002316D01*
X019108Y002283D01*
X019063Y002254D01*
X019016Y002227D01*
X018968Y002204D01*
X018918Y002184D01*
X018866Y002168D01*
X018814Y002155D01*
X018761Y002146D01*
X018708Y002141D01*
X018654Y002139D01*
X014950Y002139D01*
X013750Y002139D01*
D12*
X014450Y004139D02*
X014450Y004239D01*
X014650Y004239D02*
X014650Y004139D01*
X015250Y004139D02*
X015250Y004239D01*
X015450Y004239D02*
X015450Y004139D01*
X015470Y005169D02*
X015370Y005169D01*
X015370Y005369D02*
X015470Y005369D01*
X016800Y006139D02*
X016800Y006239D01*
X017000Y006239D02*
X017000Y006139D01*
X017700Y006139D02*
X017700Y006239D01*
X017500Y007089D02*
X017400Y007089D01*
X017400Y007289D02*
X017500Y007289D01*
X017500Y007889D02*
X017400Y007889D01*
X017400Y008089D02*
X017500Y008089D01*
X016450Y008339D02*
X016450Y008439D01*
X015650Y008439D02*
X015650Y008339D01*
X014850Y008389D02*
X014850Y008489D01*
X013900Y008639D02*
X013800Y008639D01*
X013620Y009339D02*
X013520Y009339D01*
X013520Y009539D02*
X013620Y009539D01*
X014700Y009539D02*
X014800Y009539D01*
X014800Y009339D02*
X014700Y009339D01*
X016500Y010239D02*
X016500Y010339D01*
X016700Y010339D02*
X016700Y010239D01*
X017300Y010239D02*
X017300Y010339D01*
X017500Y010339D02*
X017500Y010239D01*
X017500Y009039D02*
X017500Y008939D01*
X015850Y007389D02*
X015750Y007389D01*
X014650Y007289D02*
X014550Y007289D01*
X014550Y007489D02*
X014650Y007489D01*
X013700Y007489D02*
X013700Y007389D01*
X013500Y007389D02*
X013500Y007489D01*
X012800Y007489D02*
X012800Y007389D01*
X013600Y006319D02*
X013600Y006219D01*
X012800Y005839D02*
X012800Y005739D01*
X011600Y004239D02*
X011600Y004139D01*
X006950Y004189D02*
X006850Y004189D01*
X006850Y004389D02*
X006950Y004389D01*
X006150Y004789D02*
X006150Y004889D01*
X005950Y004889D02*
X005950Y004789D01*
X005150Y004539D02*
X005150Y004439D01*
X003100Y004139D02*
X003100Y004039D01*
X002900Y004039D02*
X002900Y004139D01*
X001550Y005369D02*
X001450Y005369D01*
X002550Y005689D02*
X002550Y005789D01*
X001509Y006170D02*
X001409Y006170D01*
X001350Y008339D02*
X001250Y008339D01*
X001250Y008539D02*
X001350Y008539D01*
X002121Y010189D02*
X002191Y010260D01*
X002050Y010401D02*
X001979Y010331D01*
X003195Y010724D02*
X003265Y010794D01*
X003765Y010295D02*
X003694Y010224D01*
X003835Y010083D02*
X003906Y010154D01*
X005265Y010583D02*
X005265Y010683D01*
X005465Y010683D02*
X005465Y010583D01*
X006150Y010048D02*
X006150Y009948D01*
X006950Y010139D02*
X006950Y010239D01*
X008400Y009939D02*
X008400Y009839D01*
X008600Y009839D02*
X008600Y009939D01*
X009250Y011029D02*
X009250Y011129D01*
X009450Y011129D02*
X009450Y011029D01*
X010050Y011029D02*
X010050Y011129D01*
X010250Y011129D02*
X010250Y011029D01*
X010850Y011029D02*
X010850Y011129D01*
X011050Y011129D02*
X011050Y011029D01*
X011650Y011029D02*
X011650Y011129D01*
X011850Y011129D02*
X011850Y011029D01*
X012450Y011029D02*
X012450Y011129D01*
X012650Y011129D02*
X012650Y011029D01*
X011250Y010139D02*
X011150Y010139D01*
X011150Y009939D02*
X011250Y009939D01*
X012350Y010039D02*
X012450Y010039D01*
X012570Y008959D02*
X012570Y008859D01*
D13*
X013230Y008971D02*
X013277Y008924D01*
X013370Y008924D01*
X013417Y008971D01*
X013506Y008924D02*
X013693Y008924D01*
X013782Y008924D02*
X013782Y008971D01*
X013969Y009158D01*
X013969Y009204D01*
X013782Y009204D01*
X013600Y009204D02*
X013600Y008924D01*
X013230Y008971D02*
X013230Y009158D01*
X013277Y009204D01*
X013370Y009204D01*
X013417Y009158D01*
X013506Y009111D02*
X013600Y009204D01*
X014385Y008512D02*
X014385Y008325D01*
X014525Y008325D01*
X014478Y008419D01*
X014478Y008465D01*
X014525Y008512D01*
X014618Y008512D01*
X014665Y008465D01*
X014665Y008372D01*
X014618Y008325D01*
X014665Y008236D02*
X014572Y008142D01*
X014572Y008189D02*
X014572Y008049D01*
X014665Y008049D02*
X014385Y008049D01*
X014385Y008189D01*
X014431Y008236D01*
X014525Y008236D01*
X014572Y008189D01*
X014199Y008124D02*
X014012Y008124D01*
X014199Y008311D01*
X014199Y008358D01*
X014153Y008404D01*
X014059Y008404D01*
X014012Y008358D01*
X013830Y008404D02*
X013736Y008311D01*
X013647Y008358D02*
X013647Y008264D01*
X013600Y008217D01*
X013460Y008217D01*
X013460Y008124D02*
X013460Y008404D01*
X013600Y008404D01*
X013647Y008358D01*
X013830Y008404D02*
X013830Y008124D01*
X013923Y008124D02*
X013736Y008124D01*
X013647Y008124D02*
X013553Y008217D01*
X015060Y008149D02*
X015060Y008289D01*
X015106Y008336D01*
X015200Y008336D01*
X015247Y008289D01*
X015247Y008149D01*
X015340Y008149D02*
X015060Y008149D01*
X015247Y008242D02*
X015340Y008336D01*
X015340Y008425D02*
X015340Y008612D01*
X015340Y008519D02*
X015060Y008519D01*
X015153Y008425D01*
X015885Y008516D02*
X015978Y008423D01*
X015885Y008516D02*
X016165Y008516D01*
X016165Y008423D02*
X016165Y008610D01*
X016165Y008333D02*
X016165Y008147D01*
X016165Y008057D02*
X016072Y007964D01*
X016072Y008010D02*
X016072Y007870D01*
X016165Y007870D02*
X015885Y007870D01*
X015885Y008010D01*
X015931Y008057D01*
X016025Y008057D01*
X016072Y008010D01*
X015978Y008147D02*
X015885Y008240D01*
X016165Y008240D01*
X017810Y008649D02*
X017810Y008789D01*
X017856Y008836D01*
X017950Y008836D01*
X017997Y008789D01*
X017997Y008649D01*
X018090Y008649D02*
X017810Y008649D01*
X017997Y008742D02*
X018090Y008836D01*
X018090Y008925D02*
X018090Y009112D01*
X018090Y009019D02*
X017810Y009019D01*
X017903Y008925D01*
X017950Y009202D02*
X017950Y009388D01*
X018090Y009342D02*
X017810Y009342D01*
X017950Y009202D01*
X016288Y005430D02*
X016242Y005430D01*
X016195Y005383D01*
X016195Y005336D01*
X016195Y005383D02*
X016148Y005430D01*
X016101Y005430D01*
X016055Y005383D01*
X016055Y005290D01*
X016101Y005243D01*
X016101Y005153D02*
X016055Y005107D01*
X016055Y005013D01*
X016101Y004967D01*
X016288Y004967D01*
X016335Y005013D01*
X016335Y005107D01*
X016288Y005153D01*
X016288Y005243D02*
X016335Y005290D01*
X016335Y005383D01*
X016288Y005430D01*
X012215Y004312D02*
X012215Y004125D01*
X012028Y004312D01*
X011981Y004312D01*
X011935Y004265D01*
X011935Y004172D01*
X011981Y004125D01*
X011981Y004036D02*
X011935Y003989D01*
X011935Y003896D01*
X011981Y003849D01*
X012168Y003849D01*
X012215Y003896D01*
X012215Y003989D01*
X012168Y004036D01*
X001090Y007106D02*
X001090Y007199D01*
X001043Y007246D01*
X000810Y007246D01*
X000950Y007335D02*
X000950Y007476D01*
X000997Y007522D01*
X001043Y007522D01*
X001090Y007476D01*
X001090Y007382D01*
X001043Y007335D01*
X000950Y007335D01*
X000856Y007429D01*
X000810Y007522D01*
X000810Y007059D02*
X001043Y007059D01*
X001090Y007106D01*
X000624Y004827D02*
X000671Y004780D01*
X000671Y004687D01*
X000624Y004640D01*
X000624Y004550D02*
X000390Y004550D01*
X000390Y004640D02*
X000531Y004640D01*
X000484Y004733D01*
X000484Y004780D01*
X000531Y004827D01*
X000624Y004827D01*
X000390Y004827D02*
X000390Y004640D01*
X000624Y004550D02*
X000671Y004504D01*
X000671Y004410D01*
X000624Y004364D01*
X000390Y004364D01*
X009610Y010746D02*
X009656Y010699D01*
X009843Y010699D01*
X009890Y010746D01*
X009890Y010839D01*
X009843Y010886D01*
X009843Y010975D02*
X009797Y010975D01*
X009750Y011022D01*
X009750Y011115D01*
X009797Y011162D01*
X009843Y011162D01*
X009890Y011115D01*
X009890Y011022D01*
X009843Y010975D01*
X009750Y011022D02*
X009703Y010975D01*
X009656Y010975D01*
X009610Y011022D01*
X009610Y011115D01*
X009656Y011162D01*
X009703Y011162D01*
X009750Y011115D01*
X009656Y010886D02*
X009610Y010839D01*
X009610Y010746D01*
D14*
X009300Y009976D02*
X009300Y009957D01*
X009103Y009918D02*
X009497Y009918D01*
X009497Y009760D02*
X009103Y009760D01*
X009300Y009721D02*
X009300Y009702D01*
X009953Y009760D02*
X010347Y009760D01*
X010347Y009918D02*
X009953Y009918D01*
X010150Y009957D02*
X010150Y009976D01*
X010150Y009721D02*
X010150Y009702D01*
X007846Y010052D02*
X007639Y010052D01*
X007374Y010336D01*
X007846Y010336D01*
X007600Y010071D01*
X007639Y010052D02*
X007354Y010052D01*
X007600Y010150D02*
X007757Y010337D01*
X007718Y010337D01*
X007600Y010268D01*
X007600Y010189D01*
X007600Y010150D02*
X007482Y010307D01*
X007482Y010337D02*
X007600Y010268D01*
X007718Y010337D02*
X007482Y010337D01*
X001285Y009518D02*
X000891Y009518D01*
X000891Y009360D02*
X001285Y009360D01*
X001088Y009321D02*
X001088Y009302D01*
X001088Y009557D02*
X001088Y009576D01*
X004061Y004865D02*
X004061Y004786D01*
X004218Y004668D01*
X003982Y004589D01*
X004218Y004471D01*
X004061Y004392D01*
X004061Y004313D01*
X004021Y004036D02*
X004021Y003642D01*
X004179Y003642D02*
X004179Y004036D01*
X004218Y003839D02*
X004237Y003839D01*
X003982Y003839D02*
X003963Y003839D01*
X012403Y004110D02*
X012797Y004110D01*
X012797Y004268D02*
X012403Y004268D01*
X012600Y004307D02*
X012600Y004326D01*
X012600Y004071D02*
X012600Y004052D01*
X013403Y004110D02*
X013797Y004110D01*
X013797Y004268D02*
X013403Y004268D01*
X013600Y004307D02*
X013600Y004326D01*
X013600Y004071D02*
X013600Y004052D01*
X013971Y005122D02*
X013971Y005516D01*
X014129Y005516D02*
X014129Y005122D01*
X014168Y005319D02*
X014187Y005319D01*
X013932Y005319D02*
X013913Y005319D01*
D15*
X014759Y005749D02*
X014759Y006930D01*
X015941Y006930D01*
X015941Y005749D01*
X014759Y005749D01*
X012340Y006589D02*
X011740Y006589D01*
X011740Y007989D01*
X012340Y007989D01*
X012340Y006589D01*
X011600Y007689D02*
X011000Y007689D01*
X011000Y009089D01*
X011600Y009089D01*
X011600Y007689D01*
X014750Y007036D02*
X014752Y007049D01*
X014757Y007062D01*
X014766Y007073D01*
X014777Y007080D01*
X014790Y007085D01*
X014803Y007086D01*
X014817Y007083D01*
X014829Y007077D01*
X014839Y007068D01*
X014846Y007056D01*
X014850Y007043D01*
X014850Y007029D01*
X014846Y007016D01*
X014839Y007004D01*
X014829Y006995D01*
X014817Y006989D01*
X014803Y006986D01*
X014790Y006987D01*
X014777Y006992D01*
X014766Y006999D01*
X014757Y007010D01*
X014752Y007023D01*
X014750Y007036D01*
X009641Y004333D02*
X008459Y004333D01*
X008459Y003545D01*
X009641Y003545D01*
X009641Y004333D01*
X008499Y004451D02*
X008501Y004469D01*
X008507Y004485D01*
X008516Y004500D01*
X008529Y004513D01*
X008544Y004522D01*
X008560Y004528D01*
X008578Y004530D01*
X008596Y004528D01*
X008612Y004522D01*
X008627Y004513D01*
X008640Y004500D01*
X008649Y004485D01*
X008655Y004469D01*
X008657Y004451D01*
X008655Y004433D01*
X008649Y004417D01*
X008640Y004402D01*
X008627Y004389D01*
X008612Y004380D01*
X008596Y004374D01*
X008578Y004372D01*
X008560Y004374D01*
X008544Y004380D01*
X008529Y004389D01*
X008516Y004402D01*
X008507Y004417D01*
X008501Y004433D01*
X008499Y004451D01*
X002475Y004397D02*
X002475Y004475D01*
X002475Y004790D02*
X002475Y004830D01*
X002417Y004829D02*
X002047Y004829D01*
X001327Y004829D02*
X000957Y004829D01*
X000939Y004830D02*
X000939Y004790D01*
X000837Y004989D02*
X000839Y005009D01*
X000845Y005027D01*
X000854Y005045D01*
X000866Y005060D01*
X000881Y005072D01*
X000899Y005081D01*
X000917Y005087D01*
X000937Y005089D01*
X000957Y005087D01*
X000975Y005081D01*
X000993Y005072D01*
X001008Y005060D01*
X001020Y005045D01*
X001029Y005027D01*
X001035Y005009D01*
X001037Y004989D01*
X001035Y004969D01*
X001029Y004951D01*
X001020Y004933D01*
X001008Y004918D01*
X000993Y004906D01*
X000975Y004897D01*
X000957Y004891D01*
X000937Y004889D01*
X000917Y004891D01*
X000899Y004897D01*
X000881Y004906D01*
X000866Y004918D01*
X000854Y004933D01*
X000845Y004951D01*
X000839Y004969D01*
X000837Y004989D01*
X000939Y004475D02*
X000939Y004397D01*
X000939Y004082D02*
X000939Y004003D01*
X000939Y003688D02*
X000939Y003649D01*
X000967Y003649D02*
X001337Y003649D01*
X002047Y003649D02*
X002417Y003649D01*
X002475Y003649D02*
X002475Y003688D01*
X002475Y004003D02*
X002475Y004082D01*
X001944Y006958D02*
X001944Y007745D01*
X002030Y007702D02*
X002032Y007719D01*
X002037Y007736D01*
X002046Y007750D01*
X002058Y007763D01*
X002073Y007773D01*
X002089Y007779D01*
X002106Y007782D01*
X002123Y007781D01*
X002140Y007776D01*
X002155Y007768D01*
X002168Y007757D01*
X002179Y007743D01*
X002186Y007728D01*
X002190Y007711D01*
X002190Y007693D01*
X002186Y007676D01*
X002179Y007661D01*
X002168Y007647D01*
X002155Y007636D01*
X002140Y007628D01*
X002123Y007623D01*
X002106Y007622D01*
X002089Y007625D01*
X002073Y007631D01*
X002058Y007641D01*
X002046Y007654D01*
X002037Y007668D01*
X002032Y007685D01*
X002030Y007702D01*
X001156Y007745D02*
X001156Y006958D01*
X002270Y008656D02*
X002482Y008868D01*
X002270Y008656D02*
X002023Y008903D01*
X002270Y009363D02*
X002376Y009469D01*
X002836Y009716D02*
X003083Y009469D01*
X002871Y009257D01*
X015919Y003460D02*
X015919Y003302D01*
X015919Y003460D02*
X015920Y003477D01*
X015925Y003494D01*
X015932Y003509D01*
X015942Y003523D01*
X015954Y003535D01*
X015968Y003545D01*
X015983Y003552D01*
X016000Y003557D01*
X016017Y003558D01*
X018183Y003558D01*
X018200Y003557D01*
X018217Y003552D01*
X018232Y003545D01*
X018246Y003535D01*
X018258Y003523D01*
X018268Y003509D01*
X018275Y003494D01*
X018280Y003477D01*
X018281Y003460D01*
X018281Y003302D01*
X017691Y003164D02*
X017691Y002574D01*
X016509Y002574D01*
X016509Y003164D01*
X017691Y003164D01*
X018281Y002436D02*
X018281Y002279D01*
X018281Y002278D02*
X018276Y002258D01*
X018267Y002239D01*
X018256Y002222D01*
X018241Y002207D01*
X018224Y002195D01*
X018205Y002186D01*
X018185Y002180D01*
X018164Y002178D01*
X018143Y002180D01*
X016017Y002180D01*
X016017Y002181D02*
X016000Y002182D01*
X015983Y002187D01*
X015968Y002194D01*
X015954Y002204D01*
X015942Y002216D01*
X015932Y002230D01*
X015925Y002245D01*
X015920Y002262D01*
X015919Y002279D01*
X015919Y002436D01*
D16*
X013835Y009948D02*
X013837Y009960D01*
X013843Y009970D01*
X013851Y009978D01*
X013862Y009983D01*
X013874Y009984D01*
X013885Y009981D01*
X013895Y009974D01*
X013903Y009965D01*
X013907Y009954D01*
X013907Y009942D01*
X013903Y009931D01*
X013895Y009922D01*
X013885Y009915D01*
X013874Y009912D01*
X013862Y009913D01*
X013851Y009918D01*
X013843Y009926D01*
X013837Y009936D01*
X013835Y009948D01*
X015293Y010530D02*
X015295Y010542D01*
X015301Y010552D01*
X015309Y010560D01*
X015320Y010565D01*
X015332Y010566D01*
X015343Y010563D01*
X015353Y010556D01*
X015361Y010547D01*
X015365Y010536D01*
X015365Y010524D01*
X015361Y010513D01*
X015353Y010504D01*
X015343Y010497D01*
X015332Y010494D01*
X015320Y010495D01*
X015309Y010500D01*
X015301Y010508D01*
X015295Y010518D01*
X015293Y010530D01*
D17*
X002506Y008503D02*
X002506Y008437D01*
X002440Y008371D01*
X002374Y008371D01*
X002341Y008404D01*
X002341Y008470D01*
X002407Y008536D01*
X002473Y008536D01*
X002506Y008503D01*
X002407Y008536D02*
X002407Y008602D01*
X002374Y008635D01*
X002308Y008635D01*
X002242Y008569D01*
X002242Y008503D01*
X002275Y008470D01*
X002341Y008470D01*
X002298Y008295D02*
X002132Y008460D01*
X002000Y008328D02*
X002166Y008163D01*
X002232Y008163D01*
X002298Y008229D01*
X002298Y008295D01*
D18*
X006818Y005609D02*
X007180Y005971D01*
X008182Y004969D02*
X007820Y004607D01*
X007300Y003439D02*
X006800Y003439D01*
X006550Y003189D01*
X006550Y002689D01*
X006800Y002439D01*
X007300Y002439D01*
X007550Y002689D01*
X007550Y003189D01*
X007300Y003439D01*
X006550Y003189D02*
X006300Y003439D01*
X005800Y003439D01*
X005550Y003189D01*
X005300Y003439D01*
X004800Y003439D01*
X004550Y003189D01*
X004300Y003439D01*
X003800Y003439D01*
X003550Y003189D01*
X003300Y003439D01*
X002800Y003439D01*
X002550Y003189D01*
X002300Y003439D01*
X001800Y003439D01*
X001550Y003189D01*
X001300Y003439D01*
X000800Y003439D01*
X000550Y003189D01*
X000550Y002689D01*
X000800Y002439D01*
X001300Y002439D01*
X001550Y002689D01*
X001800Y002439D01*
X002300Y002439D01*
X002550Y002689D01*
X002800Y002439D01*
X003300Y002439D01*
X003550Y002689D01*
X003800Y002439D01*
X004300Y002439D01*
X004550Y002689D01*
X004800Y002439D01*
X005300Y002439D01*
X005550Y002689D01*
X005800Y002439D01*
X006300Y002439D01*
X006550Y002689D01*
X006550Y003189D01*
X018154Y004310D02*
X018404Y004060D01*
X018904Y004060D01*
X019154Y004310D01*
X019154Y004810D01*
X018904Y005060D01*
X018404Y005060D01*
X018154Y004810D01*
X018154Y004310D01*
D19*
X004630Y005247D02*
X004632Y005255D01*
X004637Y005262D01*
X004644Y005266D01*
X004652Y005267D01*
X004660Y005264D01*
X004666Y005259D01*
X004670Y005251D01*
X004670Y005243D01*
X004666Y005235D01*
X004660Y005230D01*
X004652Y005227D01*
X004644Y005228D01*
X004637Y005232D01*
X004632Y005239D01*
X004630Y005247D01*
D20*
X016670Y004569D02*
X016670Y004309D01*
X017230Y004199D02*
X017230Y003839D01*
X016840Y003839D01*
X017230Y004679D02*
X017230Y005039D01*
X017070Y005039D01*
X016840Y005039D01*
X016909Y004929D02*
X016929Y004923D01*
X016950Y004921D01*
X016971Y004923D01*
X016991Y004928D01*
X017010Y004936D01*
X017027Y004948D01*
X017041Y004963D01*
X017054Y004980D01*
X017062Y004998D01*
X017068Y005018D01*
X017070Y005039D01*
X018370Y009060D02*
X018870Y009060D01*
X019120Y009310D01*
X019120Y009810D01*
X018870Y010060D01*
X018370Y010060D01*
X018120Y009810D01*
X018120Y009310D01*
X018370Y009060D01*
D21*
X018420Y009560D02*
X018422Y009588D01*
X018428Y009615D01*
X018437Y009641D01*
X018450Y009666D01*
X018467Y009689D01*
X018486Y009709D01*
X018508Y009726D01*
X018532Y009740D01*
X018558Y009750D01*
X018585Y009757D01*
X018613Y009760D01*
X018641Y009759D01*
X018668Y009754D01*
X018695Y009745D01*
X018720Y009733D01*
X018743Y009718D01*
X018764Y009699D01*
X018782Y009678D01*
X018797Y009654D01*
X018808Y009628D01*
X018816Y009602D01*
X018820Y009574D01*
X018820Y009546D01*
X018816Y009518D01*
X018808Y009492D01*
X018797Y009466D01*
X018782Y009442D01*
X018764Y009421D01*
X018743Y009402D01*
X018720Y009387D01*
X018695Y009375D01*
X018668Y009366D01*
X018641Y009361D01*
X018613Y009360D01*
X018585Y009363D01*
X018558Y009370D01*
X018532Y009380D01*
X018508Y009394D01*
X018486Y009411D01*
X018467Y009431D01*
X018450Y009454D01*
X018437Y009479D01*
X018428Y009505D01*
X018422Y009532D01*
X018420Y009560D01*
M02*
