G75*
%MOIN*%
%OFA0B0*%
%FSLAX24Y24*%
%IPPOS*%
%LPD*%
%AMOC8*
5,1,8,0,0,1.08239X$1,22.5*
%
%ADD10C,0.0010*%
%ADD11OC8,0.0520*%
%ADD12R,0.0380X0.0400*%
%ADD13R,0.0400X0.0380*%
%ADD14R,0.0355X0.0512*%
%ADD15R,0.0276X0.0472*%
%ADD16R,0.0512X0.0355*%
%ADD17R,0.0315X0.0098*%
%ADD18R,0.0374X0.0142*%
%ADD19R,0.0400X0.0450*%
%ADD20C,0.0560*%
%ADD21R,0.0276X0.0669*%
%ADD22R,0.0500X0.0210*%
%ADD23R,0.0210X0.0500*%
%ADD24C,0.0079*%
%ADD25R,0.0531X0.0177*%
%ADD26R,0.0630X0.0984*%
%ADD27R,0.0118X0.0276*%
%ADD28R,0.0531X0.0256*%
%ADD29R,0.0520X0.0220*%
%ADD30C,0.0000*%
%ADD31C,0.0050*%
%ADD32R,0.0100X0.0100*%
%ADD33C,0.0740*%
%ADD34R,0.0906X0.0630*%
%ADD35C,0.0500*%
%ADD36R,0.1181X0.0500*%
%ADD37C,0.0709*%
%ADD38R,0.0079X0.0630*%
%ADD39C,0.0160*%
%ADD40C,0.0317*%
%ADD41C,0.0100*%
%ADD42C,0.0310*%
%ADD43C,0.0200*%
%ADD44C,0.0250*%
%ADD45C,0.0080*%
%ADD46C,0.0240*%
%ADD47C,0.0180*%
%ADD48C,0.0120*%
%ADD49C,0.0270*%
%ADD50C,0.0140*%
%ADD51C,0.0280*%
%ADD52C,0.0300*%
D10*
X000937Y002139D02*
X013750Y002139D01*
X014950Y002139D01*
X018654Y002139D01*
X018708Y002141D01*
X018761Y002146D01*
X018814Y002155D01*
X018866Y002168D01*
X018918Y002184D01*
X018968Y002204D01*
X019016Y002227D01*
X019063Y002254D01*
X019108Y002283D01*
X019151Y002316D01*
X019191Y002351D01*
X019229Y002389D01*
X019264Y002429D01*
X019297Y002472D01*
X019326Y002517D01*
X019353Y002564D01*
X019376Y002612D01*
X019396Y002662D01*
X019412Y002714D01*
X019425Y002766D01*
X019434Y002819D01*
X019439Y002872D01*
X019441Y002926D01*
X019441Y011352D01*
X019439Y011406D01*
X019434Y011459D01*
X019425Y011512D01*
X019412Y011564D01*
X019396Y011616D01*
X019376Y011666D01*
X019353Y011714D01*
X019326Y011761D01*
X019297Y011806D01*
X019264Y011849D01*
X019229Y011889D01*
X019191Y011927D01*
X019151Y011962D01*
X019108Y011995D01*
X019063Y012024D01*
X019016Y012051D01*
X018968Y012074D01*
X018918Y012094D01*
X018866Y012110D01*
X018814Y012123D01*
X018761Y012132D01*
X018708Y012137D01*
X018654Y012139D01*
X014900Y012139D01*
X013700Y012139D01*
X000937Y012139D01*
X000883Y012137D01*
X000830Y012132D01*
X000777Y012123D01*
X000725Y012110D01*
X000673Y012094D01*
X000623Y012074D01*
X000575Y012051D01*
X000528Y012024D01*
X000483Y011995D01*
X000440Y011962D01*
X000400Y011927D01*
X000362Y011889D01*
X000327Y011849D01*
X000294Y011806D01*
X000265Y011761D01*
X000238Y011714D01*
X000215Y011666D01*
X000195Y011616D01*
X000179Y011564D01*
X000166Y011512D01*
X000157Y011459D01*
X000152Y011406D01*
X000150Y011352D01*
X000150Y002926D01*
X000152Y002872D01*
X000157Y002819D01*
X000166Y002766D01*
X000179Y002714D01*
X000195Y002662D01*
X000215Y002612D01*
X000238Y002564D01*
X000265Y002517D01*
X000294Y002472D01*
X000327Y002429D01*
X000362Y002389D01*
X000400Y002351D01*
X000440Y002316D01*
X000483Y002283D01*
X000528Y002254D01*
X000575Y002227D01*
X000623Y002204D01*
X000673Y002184D01*
X000725Y002168D01*
X000777Y002155D01*
X000830Y002146D01*
X000883Y002141D01*
X000937Y002139D01*
D11*
X009008Y006139D03*
X008008Y007139D03*
X009008Y008139D03*
D12*
X008500Y009554D03*
X008500Y010224D03*
X009350Y010744D03*
X010150Y010744D03*
X010950Y010744D03*
X011750Y010744D03*
X012550Y010744D03*
X012550Y011414D03*
X011750Y011414D03*
X010950Y011414D03*
X010150Y011414D03*
X009350Y011414D03*
X006950Y010524D03*
X006150Y010332D03*
X005365Y010298D03*
X006150Y009663D03*
X006950Y009854D03*
X005365Y010968D03*
X012570Y009244D03*
X012570Y008574D03*
X012800Y007774D03*
X013600Y007774D03*
X014850Y008104D03*
X015650Y008054D03*
X016450Y008054D03*
X016450Y008724D03*
X015650Y008724D03*
X014850Y008774D03*
X016600Y009954D03*
X017400Y009954D03*
X017500Y009324D03*
X017500Y008654D03*
X013600Y007104D03*
X012800Y007104D03*
X013600Y006604D03*
X012800Y006124D03*
X013600Y005934D03*
X012800Y005454D03*
X011600Y004524D03*
X011600Y003854D03*
X014550Y003854D03*
X015350Y003854D03*
X015350Y004524D03*
X014550Y004524D03*
X016900Y005854D03*
X017700Y005854D03*
X017700Y006524D03*
X016900Y006524D03*
X016600Y010624D03*
X017400Y010624D03*
X006050Y005174D03*
X005150Y004824D03*
X006050Y004504D03*
X005150Y004154D03*
X003000Y004424D03*
X003000Y003754D03*
X002550Y005404D03*
X002550Y006074D03*
D13*
X001794Y006170D03*
X001125Y006170D03*
X001165Y005369D03*
X001835Y005369D03*
X006565Y004289D03*
X007235Y004289D03*
X014265Y007389D03*
X014935Y007389D03*
X015465Y007389D03*
X016135Y007389D03*
X017115Y007189D03*
X017785Y007189D03*
X017785Y007989D03*
X017115Y007989D03*
X015085Y009439D03*
X014415Y009439D03*
X013905Y009439D03*
X013235Y009439D03*
X012735Y010039D03*
X012065Y010039D03*
X011535Y010039D03*
X010865Y010039D03*
X013515Y008639D03*
X014185Y008639D03*
X015085Y005269D03*
X015755Y005269D03*
G36*
X004312Y010433D02*
X004030Y010151D01*
X003762Y010419D01*
X004044Y010701D01*
X004312Y010433D01*
G37*
G36*
X003838Y009959D02*
X003556Y009677D01*
X003288Y009945D01*
X003570Y010227D01*
X003838Y009959D01*
G37*
G36*
X003268Y010529D02*
X002986Y010247D01*
X002718Y010515D01*
X003000Y010797D01*
X003268Y010529D01*
G37*
G36*
X003742Y011003D02*
X003460Y010721D01*
X003192Y010989D01*
X003474Y011271D01*
X003742Y011003D01*
G37*
G36*
X002047Y010525D02*
X002329Y010807D01*
X002597Y010539D01*
X002315Y010257D01*
X002047Y010525D01*
G37*
G36*
X001574Y010052D02*
X001856Y010334D01*
X002124Y010066D01*
X001842Y009784D01*
X001574Y010052D01*
G37*
X001635Y008439D03*
X000965Y008439D03*
D14*
X003706Y003839D03*
X004494Y003839D03*
X013656Y005319D03*
X014444Y005319D03*
D15*
X012040Y006561D03*
X011300Y007661D03*
X012040Y008017D03*
X011300Y009117D03*
D16*
X010150Y009445D03*
X009300Y009445D03*
X009300Y010233D03*
X010150Y010233D03*
X001088Y009833D03*
X001088Y009045D03*
X012600Y004583D03*
X013600Y004583D03*
X013600Y003795D03*
X012600Y003795D03*
D17*
X009601Y003841D03*
X009601Y004038D03*
X009601Y004234D03*
X009601Y003644D03*
X008499Y003644D03*
X008499Y003841D03*
X008499Y004038D03*
X008499Y004234D03*
X014504Y005955D03*
X014504Y006211D03*
X014504Y006467D03*
X014504Y006723D03*
X016196Y006723D03*
X016196Y006467D03*
X016196Y006211D03*
X016196Y005955D03*
D18*
X015774Y009983D03*
X015026Y009983D03*
X015026Y010239D03*
X015026Y010495D03*
X015774Y010495D03*
X014174Y010495D03*
X014174Y010239D03*
X014174Y009983D03*
X013426Y009983D03*
X013426Y010495D03*
D19*
G36*
X002483Y008973D02*
X002766Y009256D01*
X003083Y008939D01*
X002800Y008656D01*
X002483Y008973D01*
G37*
G36*
X001670Y009291D02*
X001953Y009574D01*
X002270Y009257D01*
X001987Y008974D01*
X001670Y009291D01*
G37*
G36*
X002765Y009752D02*
X002482Y009469D01*
X002165Y009786D01*
X002448Y010069D01*
X002765Y009752D01*
G37*
D20*
X001100Y011189D03*
D21*
G36*
X007028Y005290D02*
X006833Y005485D01*
X007304Y005956D01*
X007499Y005761D01*
X007028Y005290D01*
G37*
G36*
X007362Y004956D02*
X007167Y005151D01*
X007638Y005622D01*
X007833Y005427D01*
X007362Y004956D01*
G37*
G36*
X007696Y004622D02*
X007501Y004817D01*
X007972Y005288D01*
X008167Y005093D01*
X007696Y004622D01*
G37*
D22*
G36*
X005186Y005938D02*
X005539Y005585D01*
X005390Y005436D01*
X005037Y005789D01*
X005186Y005938D01*
G37*
G36*
X005409Y006161D02*
X005762Y005808D01*
X005613Y005659D01*
X005260Y006012D01*
X005409Y006161D01*
G37*
G36*
X005632Y006384D02*
X005985Y006031D01*
X005836Y005882D01*
X005483Y006235D01*
X005632Y006384D01*
G37*
G36*
X005854Y006606D02*
X006207Y006253D01*
X006058Y006104D01*
X005705Y006457D01*
X005854Y006606D01*
G37*
G36*
X006077Y006829D02*
X006430Y006476D01*
X006281Y006327D01*
X005928Y006680D01*
X006077Y006829D01*
G37*
G36*
X006300Y007052D02*
X006653Y006699D01*
X006504Y006550D01*
X006151Y006903D01*
X006300Y007052D01*
G37*
G36*
X006522Y007275D02*
X006875Y006922D01*
X006726Y006773D01*
X006373Y007126D01*
X006522Y007275D01*
G37*
G36*
X003464Y008996D02*
X003817Y008643D01*
X003668Y008494D01*
X003315Y008847D01*
X003464Y008996D01*
G37*
G36*
X003687Y009219D02*
X004040Y008866D01*
X003891Y008717D01*
X003538Y009070D01*
X003687Y009219D01*
G37*
G36*
X003910Y009442D02*
X004263Y009089D01*
X004114Y008940D01*
X003761Y009293D01*
X003910Y009442D01*
G37*
G36*
X004132Y009665D02*
X004485Y009312D01*
X004336Y009163D01*
X003983Y009516D01*
X004132Y009665D01*
G37*
G36*
X003242Y008774D02*
X003595Y008421D01*
X003446Y008272D01*
X003093Y008625D01*
X003242Y008774D01*
G37*
G36*
X003019Y008551D02*
X003372Y008198D01*
X003223Y008049D01*
X002870Y008402D01*
X003019Y008551D01*
G37*
G36*
X002796Y008328D02*
X003149Y007975D01*
X003000Y007826D01*
X002647Y008179D01*
X002796Y008328D01*
G37*
G36*
X002574Y008106D02*
X002927Y007753D01*
X002778Y007604D01*
X002425Y007957D01*
X002574Y008106D01*
G37*
G36*
X004964Y005716D02*
X005317Y005363D01*
X005168Y005214D01*
X004815Y005567D01*
X004964Y005716D01*
G37*
D23*
G36*
X004336Y005716D02*
X004485Y005567D01*
X004132Y005214D01*
X003983Y005363D01*
X004336Y005716D01*
G37*
G36*
X004114Y005938D02*
X004263Y005789D01*
X003910Y005436D01*
X003761Y005585D01*
X004114Y005938D01*
G37*
G36*
X003891Y006161D02*
X004040Y006012D01*
X003687Y005659D01*
X003538Y005808D01*
X003891Y006161D01*
G37*
G36*
X003668Y006384D02*
X003817Y006235D01*
X003464Y005882D01*
X003315Y006031D01*
X003668Y006384D01*
G37*
G36*
X003446Y006606D02*
X003595Y006457D01*
X003242Y006104D01*
X003093Y006253D01*
X003446Y006606D01*
G37*
G36*
X003223Y006829D02*
X003372Y006680D01*
X003019Y006327D01*
X002870Y006476D01*
X003223Y006829D01*
G37*
G36*
X003000Y007052D02*
X003149Y006903D01*
X002796Y006550D01*
X002647Y006699D01*
X003000Y007052D01*
G37*
G36*
X002778Y007275D02*
X002927Y007126D01*
X002574Y006773D01*
X002425Y006922D01*
X002778Y007275D01*
G37*
G36*
X005836Y008996D02*
X005985Y008847D01*
X005632Y008494D01*
X005483Y008643D01*
X005836Y008996D01*
G37*
G36*
X005613Y009219D02*
X005762Y009070D01*
X005409Y008717D01*
X005260Y008866D01*
X005613Y009219D01*
G37*
G36*
X005390Y009442D02*
X005539Y009293D01*
X005186Y008940D01*
X005037Y009089D01*
X005390Y009442D01*
G37*
G36*
X005168Y009665D02*
X005317Y009516D01*
X004964Y009163D01*
X004815Y009312D01*
X005168Y009665D01*
G37*
G36*
X006058Y008774D02*
X006207Y008625D01*
X005854Y008272D01*
X005705Y008421D01*
X006058Y008774D01*
G37*
G36*
X006281Y008551D02*
X006430Y008402D01*
X006077Y008049D01*
X005928Y008198D01*
X006281Y008551D01*
G37*
G36*
X006504Y008328D02*
X006653Y008179D01*
X006300Y007826D01*
X006151Y007975D01*
X006504Y008328D01*
G37*
G36*
X006726Y008106D02*
X006875Y007957D01*
X006522Y007604D01*
X006373Y007753D01*
X006726Y008106D01*
G37*
D24*
X007817Y009677D02*
X007817Y009913D01*
X007817Y009677D02*
X007383Y009677D01*
X007383Y009913D01*
X007817Y009913D01*
X007817Y009755D02*
X007383Y009755D01*
X007383Y009833D02*
X007817Y009833D01*
X007817Y009911D02*
X007383Y009911D01*
X007817Y010465D02*
X007817Y010701D01*
X007817Y010465D02*
X007383Y010465D01*
X007383Y010701D01*
X007817Y010701D01*
X007817Y010543D02*
X007383Y010543D01*
X007383Y010621D02*
X007817Y010621D01*
X007817Y010699D02*
X007383Y010699D01*
X004612Y004372D02*
X004376Y004372D01*
X004376Y004806D01*
X004612Y004806D01*
X004612Y004372D01*
X004612Y004450D02*
X004376Y004450D01*
X004376Y004528D02*
X004612Y004528D01*
X004612Y004606D02*
X004376Y004606D01*
X004376Y004684D02*
X004612Y004684D01*
X004612Y004762D02*
X004376Y004762D01*
X003824Y004372D02*
X003588Y004372D01*
X003588Y004806D01*
X003824Y004806D01*
X003824Y004372D01*
X003824Y004450D02*
X003588Y004450D01*
X003588Y004528D02*
X003824Y004528D01*
X003824Y004606D02*
X003588Y004606D01*
X003588Y004684D02*
X003824Y004684D01*
X003824Y004762D02*
X003588Y004762D01*
D25*
X002357Y004633D03*
X002357Y004239D03*
X002357Y003845D03*
X001018Y003845D03*
X001018Y004239D03*
X001018Y004633D03*
D26*
X001687Y004239D03*
D27*
X001806Y006938D03*
X001550Y006938D03*
X001294Y006938D03*
X001294Y007765D03*
X001550Y007765D03*
X001806Y007765D03*
D28*
X001550Y007352D03*
D29*
X016520Y004809D03*
X017380Y004439D03*
X016520Y004069D03*
D30*
X018420Y009560D02*
X018422Y009588D01*
X018428Y009615D01*
X018437Y009641D01*
X018450Y009666D01*
X018467Y009689D01*
X018486Y009709D01*
X018508Y009726D01*
X018532Y009740D01*
X018558Y009750D01*
X018585Y009757D01*
X018613Y009760D01*
X018641Y009759D01*
X018668Y009754D01*
X018695Y009745D01*
X018720Y009733D01*
X018743Y009718D01*
X018764Y009699D01*
X018782Y009678D01*
X018797Y009654D01*
X018808Y009628D01*
X018816Y009602D01*
X018820Y009574D01*
X018820Y009546D01*
X018816Y009518D01*
X018808Y009492D01*
X018797Y009466D01*
X018782Y009442D01*
X018764Y009421D01*
X018743Y009402D01*
X018720Y009387D01*
X018695Y009375D01*
X018668Y009366D01*
X018641Y009361D01*
X018613Y009360D01*
X018585Y009363D01*
X018558Y009370D01*
X018532Y009380D01*
X018508Y009394D01*
X018486Y009411D01*
X018467Y009431D01*
X018450Y009454D01*
X018437Y009479D01*
X018428Y009505D01*
X018422Y009532D01*
X018420Y009560D01*
D31*
X018240Y009560D02*
X019000Y009560D01*
X018994Y009494D01*
X018977Y009430D01*
X018949Y009370D01*
X018911Y009316D01*
X018864Y009269D01*
X018810Y009231D01*
X018750Y009203D01*
X018686Y009186D01*
X018620Y009180D01*
X018554Y009186D01*
X018490Y009203D01*
X018430Y009231D01*
X018376Y009269D01*
X018329Y009316D01*
X018291Y009370D01*
X018263Y009430D01*
X018246Y009494D01*
X018240Y009560D01*
X018246Y009626D01*
X018263Y009690D01*
X018291Y009750D01*
X018329Y009805D01*
X018376Y009851D01*
X018430Y009889D01*
X018490Y009917D01*
X018554Y009935D01*
X018620Y009940D01*
X018686Y009935D01*
X018750Y009917D01*
X018810Y009889D01*
X018864Y009851D01*
X018911Y009805D01*
X018949Y009750D01*
X018977Y009690D01*
X018994Y009626D01*
X019000Y009560D01*
X018996Y009608D02*
X018244Y009608D01*
X018254Y009657D02*
X018986Y009657D01*
X018970Y009705D02*
X018270Y009705D01*
X018293Y009754D02*
X018947Y009754D01*
X018913Y009802D02*
X018327Y009802D01*
X018375Y009851D02*
X018865Y009851D01*
X018789Y009899D02*
X018451Y009899D01*
X018244Y009511D02*
X018996Y009511D01*
X018986Y009463D02*
X018254Y009463D01*
X018270Y009414D02*
X018970Y009414D01*
X018946Y009366D02*
X018294Y009366D01*
X018328Y009317D02*
X018912Y009317D01*
X018863Y009269D02*
X018377Y009269D01*
X018454Y009220D02*
X018786Y009220D01*
D32*
X018620Y009850D03*
D33*
X018654Y004560D03*
X007050Y002939D03*
X006050Y002939D03*
X005050Y002939D03*
X004050Y002939D03*
X003050Y002939D03*
X002050Y002939D03*
X001050Y002939D03*
D34*
X015860Y002869D03*
X018340Y002869D03*
D35*
X017300Y006539D03*
X014100Y007889D03*
X007041Y008367D03*
X007041Y008996D03*
D36*
X014300Y011839D03*
X014300Y002439D03*
D37*
X013090Y002939D03*
X012100Y002939D03*
X011100Y002939D03*
X010100Y002939D03*
X009100Y002939D03*
X008100Y002939D03*
D38*
X009050Y003939D03*
D39*
X006650Y004439D02*
X006615Y004324D01*
X006565Y004289D01*
X006581Y004504D01*
X006050Y004504D01*
X006650Y004439D02*
X006650Y005539D01*
X006650Y005989D01*
X006500Y005839D01*
X006050Y005839D01*
X005756Y006133D01*
X005734Y006133D01*
X004250Y007616D01*
X004250Y008939D01*
X004012Y009177D01*
X004012Y009191D01*
X006918Y009039D02*
X007041Y009039D01*
X007041Y008996D01*
X007100Y009196D01*
X007100Y009339D01*
X008500Y009139D02*
X009000Y008539D01*
X009000Y007970D01*
X009008Y008139D01*
X008500Y009139D02*
X008500Y009554D01*
X008622Y009504D01*
X009300Y010233D01*
X009350Y010744D01*
X010150Y010744D01*
X010150Y010233D01*
X010150Y010744D02*
X010950Y010744D01*
X011750Y010744D01*
X013235Y009439D02*
X013235Y009274D01*
X013150Y009189D01*
X012625Y009189D01*
X012570Y009244D01*
X012675Y009339D02*
X013200Y009339D01*
X012040Y008017D02*
X011300Y008757D01*
X011300Y009117D01*
X012040Y008017D02*
X012284Y007774D01*
X012800Y007774D01*
X012800Y007104D02*
X012584Y007104D01*
X012040Y006561D01*
X011300Y007301D01*
X011300Y007661D01*
X010200Y006889D02*
X008258Y006889D01*
X008008Y007139D01*
X006650Y006107D02*
X006179Y006578D01*
X006650Y006107D02*
X006650Y005989D01*
X003706Y004589D02*
X003706Y003839D01*
X003000Y003754D02*
X002965Y003754D01*
X002550Y003339D01*
X010200Y006889D02*
X011250Y005839D01*
X011400Y005839D01*
X011565Y005839D01*
X012515Y005839D01*
X012800Y006124D01*
X016520Y004069D02*
X016650Y004199D01*
X016650Y004289D01*
X016950Y004589D01*
X016950Y004639D01*
X017150Y004839D01*
X017650Y004839D01*
X018500Y005689D01*
X018500Y008739D01*
X018300Y008939D01*
X018100Y008939D01*
X017950Y009089D01*
X017950Y010389D01*
X017750Y010589D01*
X017435Y010589D01*
X017400Y010624D02*
X016600Y010624D01*
X016471Y010495D01*
X015774Y010495D01*
X016450Y008054D02*
X017050Y008054D01*
X017115Y007989D01*
X017115Y007189D01*
X017050Y007189D01*
X012100Y002939D02*
X012000Y003039D01*
X014300Y002439D02*
X014950Y002439D01*
X014950Y002489D01*
X014600Y002739D02*
X014450Y002589D01*
X014300Y002439D01*
X007600Y010524D02*
X006950Y010524D01*
X007600Y010524D02*
X007600Y010583D01*
D40*
X001700Y008989D03*
D41*
X001127Y009084D02*
X001049Y009084D01*
X001049Y009007D01*
X000682Y009007D01*
X000682Y008848D01*
X000692Y008810D01*
X000712Y008776D01*
X000716Y008771D01*
X000707Y008769D01*
X000673Y008749D01*
X000645Y008721D01*
X000626Y008687D01*
X000615Y008649D01*
X000615Y008484D01*
X000920Y008484D01*
X000920Y008394D01*
X000615Y008394D01*
X000615Y008229D01*
X000626Y008191D01*
X000645Y008157D01*
X000673Y008129D01*
X000707Y008109D01*
X000746Y008099D01*
X000920Y008099D01*
X000920Y008394D01*
X001010Y008394D01*
X001010Y008182D01*
X001000Y008172D01*
X000750Y007922D01*
X000750Y006256D01*
X000775Y006231D01*
X000775Y005918D01*
X000863Y005830D01*
X000965Y005830D01*
X000965Y005709D01*
X000903Y005709D01*
X000815Y005621D01*
X000815Y005117D01*
X000903Y005029D01*
X001171Y005029D01*
X001014Y004871D01*
X000690Y004871D01*
X000602Y004783D01*
X000602Y004482D01*
X000648Y004436D01*
X000632Y004420D01*
X000613Y004386D01*
X000602Y004347D01*
X000602Y004239D01*
X000602Y004131D01*
X000613Y004093D01*
X000632Y004058D01*
X000648Y004042D01*
X000602Y003996D01*
X000602Y003695D01*
X000690Y003607D01*
X001300Y003607D01*
X001310Y003597D01*
X002064Y003597D01*
X002074Y003607D01*
X002660Y003607D01*
X002660Y003535D01*
X002670Y003497D01*
X002690Y003462D01*
X002718Y003434D01*
X002752Y003415D01*
X002790Y003404D01*
X002815Y003404D01*
X002755Y003380D01*
X002609Y003234D01*
X002549Y003087D01*
X002532Y003139D01*
X002495Y003212D01*
X002447Y003278D01*
X002389Y003336D01*
X002323Y003384D01*
X002250Y003421D01*
X002172Y003446D01*
X002100Y003458D01*
X002100Y002989D01*
X002000Y002989D01*
X002000Y002889D01*
X002100Y002889D01*
X002100Y002421D01*
X002172Y002432D01*
X002250Y002457D01*
X002323Y002494D01*
X002389Y002542D01*
X002447Y002600D01*
X002495Y002667D01*
X002532Y002739D01*
X002549Y002791D01*
X002609Y002645D01*
X002755Y002498D01*
X002947Y002419D01*
X003153Y002419D01*
X003345Y002498D01*
X003491Y002645D01*
X003550Y002787D01*
X003609Y002645D01*
X003755Y002498D01*
X003947Y002419D01*
X004153Y002419D01*
X004345Y002498D01*
X004491Y002645D01*
X004550Y002787D01*
X004609Y002645D01*
X004755Y002498D01*
X004947Y002419D01*
X005153Y002419D01*
X005345Y002498D01*
X005491Y002645D01*
X005550Y002787D01*
X005609Y002645D01*
X005755Y002498D01*
X005947Y002419D01*
X006153Y002419D01*
X006345Y002498D01*
X006491Y002645D01*
X006550Y002787D01*
X006609Y002645D01*
X006755Y002498D01*
X006947Y002419D01*
X007153Y002419D01*
X007345Y002498D01*
X007491Y002645D01*
X007570Y002836D01*
X007570Y003043D01*
X007491Y003234D01*
X007345Y003380D01*
X007153Y003459D01*
X007151Y003459D01*
X007209Y003516D01*
X007255Y003628D01*
X007255Y003750D01*
X007209Y003862D01*
X007123Y003948D01*
X007119Y003949D01*
X007190Y003949D01*
X007190Y004244D01*
X007280Y004244D01*
X007280Y004334D01*
X007585Y004334D01*
X007585Y004499D01*
X007577Y004526D01*
X007633Y004471D01*
X007757Y004471D01*
X008318Y005032D01*
X008318Y005156D01*
X008239Y005235D01*
X008238Y005239D01*
X008233Y005306D01*
X008223Y005315D01*
X008140Y005709D01*
X008140Y005768D01*
X008124Y005783D01*
X008120Y005805D01*
X008070Y005837D01*
X007026Y006882D01*
X007026Y006983D01*
X006584Y007425D01*
X006460Y007425D01*
X006223Y007188D01*
X006001Y006966D01*
X005226Y006966D01*
X005128Y007064D02*
X006099Y007064D01*
X006001Y006966D02*
X006001Y006966D01*
X005778Y006743D01*
X005778Y006736D01*
X005762Y006726D01*
X005675Y006640D01*
X005956Y006359D01*
X005953Y006355D01*
X005672Y006636D01*
X005613Y006578D01*
X004828Y007364D01*
X004905Y007364D01*
X005006Y007406D01*
X005083Y007483D01*
X005125Y007584D01*
X005125Y007694D01*
X005083Y007795D01*
X005006Y007872D01*
X004905Y007914D01*
X004872Y007914D01*
X004750Y008036D01*
X004750Y008050D01*
X004794Y008006D01*
X004895Y007964D01*
X005005Y007964D01*
X005106Y008006D01*
X005183Y008083D01*
X005225Y008184D01*
X005225Y008294D01*
X005183Y008395D01*
X005160Y008418D01*
X005160Y008752D01*
X005161Y008753D01*
X005346Y008567D01*
X005560Y008353D01*
X005560Y007610D01*
X005675Y007495D01*
X005675Y007434D01*
X005717Y007333D01*
X005794Y007256D01*
X005895Y007214D01*
X006005Y007214D01*
X006106Y007256D01*
X006183Y007333D01*
X006225Y007434D01*
X006225Y007544D01*
X006183Y007645D01*
X006106Y007722D01*
X006005Y007764D01*
X005944Y007764D01*
X005940Y007768D01*
X005940Y007973D01*
X006014Y007899D01*
X006237Y007676D01*
X006460Y007454D01*
X006584Y007454D01*
X007026Y007895D01*
X007026Y007967D01*
X007120Y007967D01*
X007267Y008028D01*
X007380Y008141D01*
X007441Y008288D01*
X007441Y008447D01*
X007436Y008457D01*
X007629Y008649D01*
X007740Y008760D01*
X007740Y008829D01*
X007806Y008856D01*
X007883Y008933D01*
X007925Y009034D01*
X008280Y009034D01*
X008270Y009044D02*
X008330Y008984D01*
X008759Y008469D01*
X008598Y008309D01*
X008598Y007969D01*
X008838Y007729D01*
X009178Y007729D01*
X009418Y007969D01*
X009418Y008309D01*
X009230Y008497D01*
X009230Y008529D01*
X009238Y008613D01*
X009230Y008622D01*
X009230Y008634D01*
X009170Y008694D01*
X008745Y009204D01*
X008752Y009204D01*
X008840Y009292D01*
X008840Y009401D01*
X008917Y009484D01*
X009261Y009484D01*
X009261Y009407D01*
X008894Y009407D01*
X008894Y009248D01*
X008904Y009210D01*
X008924Y009176D01*
X008952Y009148D01*
X008986Y009128D01*
X009024Y009118D01*
X009261Y009118D01*
X009261Y009407D01*
X009339Y009407D01*
X009339Y009484D01*
X009706Y009484D01*
X009706Y009643D01*
X009696Y009681D01*
X009676Y009715D01*
X009648Y009743D01*
X009614Y009763D01*
X009576Y009773D01*
X009339Y009773D01*
X009339Y009484D01*
X009261Y009484D01*
X009261Y009773D01*
X009186Y009773D01*
X009309Y009905D01*
X009618Y009905D01*
X009706Y009993D01*
X009706Y010472D01*
X009690Y010488D01*
X009690Y010514D01*
X009786Y010514D01*
X009744Y010472D01*
X009744Y009993D01*
X009832Y009905D01*
X010468Y009905D01*
X010515Y009953D01*
X010515Y009829D01*
X010526Y009791D01*
X010545Y009757D01*
X010573Y009729D01*
X010607Y009709D01*
X010646Y009699D01*
X010820Y009699D01*
X010820Y009994D01*
X010910Y009994D01*
X010910Y009699D01*
X011085Y009699D01*
X011123Y009709D01*
X011157Y009729D01*
X011185Y009757D01*
X011196Y009776D01*
X011273Y009699D01*
X011343Y009699D01*
X011490Y009552D01*
X011613Y009429D01*
X012230Y009429D01*
X012230Y009289D01*
X012525Y009289D01*
X012525Y009532D01*
X012545Y009552D01*
X012692Y009699D01*
X012903Y009699D01*
X012896Y009687D01*
X012885Y009649D01*
X012885Y009527D01*
X012880Y009536D01*
X012852Y009564D01*
X012818Y009584D01*
X012780Y009594D01*
X012615Y009594D01*
X012615Y009289D01*
X012525Y009289D01*
X012525Y009199D01*
X012230Y009199D01*
X012230Y009024D01*
X012240Y008986D01*
X012260Y008952D01*
X012288Y008924D01*
X012306Y008913D01*
X012230Y008837D01*
X012230Y008404D01*
X011979Y008404D01*
X011576Y008807D01*
X011588Y008819D01*
X011588Y009416D01*
X011500Y009504D01*
X011100Y009504D01*
X011012Y009416D01*
X011012Y008819D01*
X011070Y008761D01*
X011070Y008662D01*
X011752Y007980D01*
X011752Y007719D01*
X011840Y007631D01*
X012101Y007631D01*
X012188Y007544D01*
X012460Y007544D01*
X012460Y007512D01*
X012533Y007439D01*
X012460Y007367D01*
X012460Y007306D01*
X012101Y006947D01*
X011979Y006947D01*
X011576Y007350D01*
X011588Y007362D01*
X011588Y007959D01*
X011500Y008047D01*
X011100Y008047D01*
X011012Y007959D01*
X011012Y007362D01*
X011070Y007305D01*
X011070Y007205D01*
X011752Y006523D01*
X011752Y006262D01*
X011840Y006175D01*
X012240Y006175D01*
X012328Y006262D01*
X012328Y006523D01*
X012559Y006754D01*
X013052Y006754D01*
X013140Y006842D01*
X013140Y006904D01*
X013260Y006904D01*
X013260Y006469D01*
X013057Y006469D01*
X013052Y006474D01*
X012548Y006474D01*
X012460Y006386D01*
X012460Y006109D01*
X012420Y006069D01*
X011345Y006069D01*
X010430Y006984D01*
X010295Y007119D01*
X008418Y007119D01*
X008418Y007309D01*
X008178Y007549D01*
X007838Y007549D01*
X007598Y007309D01*
X007598Y006969D01*
X007838Y006729D01*
X008093Y006729D01*
X008163Y006659D01*
X010105Y006659D01*
X011155Y005609D01*
X012460Y005609D01*
X012460Y005499D01*
X012755Y005499D01*
X012755Y005409D01*
X012845Y005409D01*
X012845Y005104D01*
X013010Y005104D01*
X013048Y005115D01*
X013082Y005134D01*
X013110Y005162D01*
X013130Y005197D01*
X013140Y005235D01*
X013140Y005409D01*
X012845Y005409D01*
X012845Y005499D01*
X013140Y005499D01*
X013140Y005674D01*
X013130Y005712D01*
X013110Y005747D01*
X013082Y005774D01*
X013064Y005785D01*
X013140Y005862D01*
X013140Y006069D01*
X013260Y006069D01*
X013260Y005672D01*
X013329Y005603D01*
X013329Y005001D01*
X013417Y004913D01*
X013896Y004913D01*
X013984Y005001D01*
X013984Y005637D01*
X013940Y005681D01*
X013940Y006069D01*
X014125Y006069D01*
X014154Y006052D01*
X014195Y006011D01*
X014196Y006011D01*
X014196Y005955D01*
X014196Y005886D01*
X014206Y005848D01*
X014226Y005814D01*
X014254Y005786D01*
X014288Y005766D01*
X014326Y005756D01*
X014504Y005756D01*
X014681Y005756D01*
X014719Y005766D01*
X014753Y005786D01*
X014781Y005814D01*
X014801Y005848D01*
X014811Y005886D01*
X014811Y005955D01*
X014504Y005955D01*
X014504Y005955D01*
X014504Y005756D01*
X014504Y005955D01*
X014504Y005955D01*
X014811Y005955D01*
X014811Y006024D01*
X014801Y006062D01*
X014791Y006080D01*
X014811Y006100D01*
X014811Y006322D01*
X014794Y006339D01*
X014811Y006356D01*
X014811Y006578D01*
X014794Y006595D01*
X014811Y006612D01*
X014811Y006834D01*
X014723Y006922D01*
X014704Y006922D01*
X014704Y006968D01*
X014575Y007097D01*
X014600Y007122D01*
X014673Y007049D01*
X015197Y007049D01*
X015200Y007052D01*
X015203Y007049D01*
X015427Y007049D01*
X015350Y006972D01*
X015350Y006156D01*
X015581Y005925D01*
X015571Y005902D01*
X015555Y005885D01*
X015555Y005609D01*
X015493Y005609D01*
X015416Y005533D01*
X015405Y005551D01*
X015377Y005579D01*
X015343Y005599D01*
X015305Y005609D01*
X015130Y005609D01*
X015130Y005314D01*
X015040Y005314D01*
X015040Y005224D01*
X014771Y005224D01*
X014771Y005280D01*
X014482Y005280D01*
X014482Y004913D01*
X014641Y004913D01*
X014679Y004923D01*
X014713Y004943D01*
X014741Y004971D01*
X014758Y005000D01*
X014765Y004987D01*
X014793Y004959D01*
X014827Y004939D01*
X014866Y004929D01*
X015040Y004929D01*
X015040Y005224D01*
X015130Y005224D01*
X015130Y004929D01*
X015305Y004929D01*
X015343Y004939D01*
X015377Y004959D01*
X015405Y004987D01*
X015416Y005006D01*
X015493Y004929D01*
X016017Y004929D01*
X016105Y005017D01*
X016105Y005521D01*
X016017Y005609D01*
X015955Y005609D01*
X015955Y005739D01*
X016263Y005739D01*
X016280Y005756D01*
X016416Y005756D01*
X016504Y005844D01*
X016504Y005910D01*
X016560Y005866D01*
X016560Y005592D01*
X016648Y005504D01*
X017152Y005504D01*
X017240Y005592D01*
X017240Y005654D01*
X017360Y005654D01*
X017360Y005592D01*
X017448Y005504D01*
X017952Y005504D01*
X018040Y005592D01*
X018040Y006117D01*
X017967Y006189D01*
X018040Y006262D01*
X018040Y006786D01*
X017977Y006849D01*
X018004Y006849D01*
X018043Y006859D01*
X018077Y006879D01*
X018105Y006907D01*
X018124Y006941D01*
X018135Y006979D01*
X018135Y007144D01*
X017830Y007144D01*
X017830Y007234D01*
X018135Y007234D01*
X018135Y007399D01*
X018124Y007437D01*
X018105Y007471D01*
X018077Y007499D01*
X018043Y007519D01*
X018004Y007529D01*
X017830Y007529D01*
X017830Y007234D01*
X017740Y007234D01*
X017740Y007529D01*
X017650Y007529D01*
X017650Y007649D01*
X017740Y007649D01*
X017740Y007944D01*
X017830Y007944D01*
X017830Y008034D01*
X018135Y008034D01*
X018135Y008199D01*
X018124Y008237D01*
X018105Y008271D01*
X018077Y008299D01*
X018043Y008319D01*
X018004Y008329D01*
X017830Y008329D01*
X017830Y008034D01*
X017740Y008034D01*
X017740Y008304D01*
X017752Y008304D01*
X017840Y008392D01*
X017840Y008779D01*
X017935Y008779D01*
X018005Y008709D01*
X018205Y008709D01*
X018270Y008644D01*
X018270Y005784D01*
X017555Y005069D01*
X017055Y005069D01*
X016929Y004943D01*
X016920Y004977D01*
X016900Y005011D01*
X016872Y005039D01*
X016838Y005059D01*
X016800Y005069D01*
X016525Y005069D01*
X016525Y004814D01*
X016515Y004814D01*
X016515Y004804D01*
X016525Y004804D01*
X016525Y004549D01*
X016585Y004549D01*
X016555Y004519D01*
X016420Y004384D01*
X016420Y004329D01*
X016198Y004329D01*
X016188Y004319D01*
X015880Y004319D01*
X015788Y004281D01*
X015657Y004150D01*
X015614Y004193D01*
X015632Y004204D01*
X015660Y004232D01*
X015680Y004266D01*
X015690Y004304D01*
X015690Y004479D01*
X015395Y004479D01*
X015395Y004569D01*
X015305Y004569D01*
X015305Y004874D01*
X015140Y004874D01*
X015102Y004864D01*
X015068Y004844D01*
X015040Y004816D01*
X015020Y004782D01*
X015010Y004743D01*
X015010Y004569D01*
X015305Y004569D01*
X015305Y004479D01*
X015010Y004479D01*
X015010Y004304D01*
X015020Y004266D01*
X015040Y004232D01*
X015068Y004204D01*
X015086Y004193D01*
X015010Y004117D01*
X015010Y004104D01*
X014890Y004104D01*
X014890Y004117D01*
X014814Y004193D01*
X014832Y004204D01*
X014860Y004232D01*
X014880Y004266D01*
X014890Y004304D01*
X014890Y004479D01*
X014595Y004479D01*
X014595Y004569D01*
X014505Y004569D01*
X014505Y004874D01*
X014340Y004874D01*
X014302Y004864D01*
X014268Y004844D01*
X014240Y004816D01*
X014220Y004782D01*
X014210Y004743D01*
X014210Y004569D01*
X014505Y004569D01*
X014505Y004479D01*
X014210Y004479D01*
X014210Y004304D01*
X014220Y004266D01*
X014240Y004232D01*
X014268Y004204D01*
X014286Y004193D01*
X014210Y004117D01*
X014210Y004045D01*
X013996Y004045D01*
X013918Y004123D01*
X013282Y004123D01*
X013204Y004045D01*
X013039Y004045D01*
X013027Y004058D01*
X013004Y004067D01*
X012984Y004081D01*
X012961Y004085D01*
X012952Y004089D01*
X012918Y004123D01*
X012282Y004123D01*
X012254Y004094D01*
X011940Y004094D01*
X011940Y004117D01*
X011867Y004189D01*
X011940Y004262D01*
X011940Y004786D01*
X011852Y004874D01*
X011348Y004874D01*
X011260Y004786D01*
X011260Y004714D01*
X009744Y004714D01*
X009590Y004868D01*
X009479Y004979D01*
X009349Y004979D01*
X009306Y005022D01*
X009205Y005064D01*
X009095Y005064D01*
X008994Y005022D01*
X008951Y004979D01*
X008721Y004979D01*
X008421Y004679D01*
X008310Y004568D01*
X008310Y004434D01*
X008279Y004434D01*
X008191Y004346D01*
X008191Y004228D01*
X008171Y004228D01*
X008137Y004234D01*
X008133Y004245D01*
X008056Y004322D01*
X007955Y004364D01*
X007845Y004364D01*
X007744Y004322D01*
X007667Y004245D01*
X007625Y004144D01*
X007625Y004083D01*
X007562Y004020D01*
X007574Y004041D01*
X007585Y004079D01*
X007585Y004244D01*
X007280Y004244D01*
X007280Y003949D01*
X007454Y003949D01*
X007493Y003959D01*
X007527Y003979D01*
X007555Y004007D01*
X007560Y004016D01*
X007560Y003460D01*
X007671Y003349D01*
X007734Y003286D01*
X007672Y003225D01*
X007596Y003039D01*
X007596Y002839D01*
X007672Y002653D01*
X007814Y002512D01*
X008000Y002435D01*
X008200Y002435D01*
X008386Y002512D01*
X008528Y002653D01*
X008600Y002828D01*
X008672Y002653D01*
X008814Y002512D01*
X009000Y002435D01*
X009200Y002435D01*
X009386Y002512D01*
X009528Y002653D01*
X009600Y002828D01*
X009672Y002653D01*
X009814Y002512D01*
X010000Y002435D01*
X010200Y002435D01*
X010386Y002512D01*
X010528Y002653D01*
X010600Y002828D01*
X010672Y002653D01*
X010814Y002512D01*
X011000Y002435D01*
X011200Y002435D01*
X011386Y002512D01*
X011528Y002653D01*
X011575Y002768D01*
X011575Y002684D01*
X011617Y002583D01*
X011694Y002506D01*
X011795Y002464D01*
X011905Y002464D01*
X011917Y002469D01*
X012000Y002435D01*
X012200Y002435D01*
X012271Y002464D01*
X012355Y002464D01*
X012456Y002506D01*
X012533Y002583D01*
X012575Y002684D01*
X012575Y002768D01*
X012598Y002823D01*
X012598Y002821D01*
X012623Y002745D01*
X012659Y002675D01*
X012705Y002611D01*
X012761Y002554D01*
X012826Y002508D01*
X012896Y002472D01*
X012972Y002447D01*
X013040Y002436D01*
X013040Y002889D01*
X013140Y002889D01*
X013140Y002436D01*
X013208Y002447D01*
X013284Y002472D01*
X013354Y002508D01*
X013419Y002554D01*
X013475Y002611D01*
X013521Y002675D01*
X013557Y002745D01*
X013582Y002821D01*
X013593Y002889D01*
X013140Y002889D01*
X013140Y002989D01*
X013593Y002989D01*
X013582Y003057D01*
X013557Y003133D01*
X013521Y003203D01*
X013475Y003268D01*
X013419Y003324D01*
X013354Y003370D01*
X013284Y003406D01*
X013208Y003431D01*
X013140Y003442D01*
X013140Y002989D01*
X013040Y002989D01*
X013040Y003442D01*
X012972Y003431D01*
X012896Y003406D01*
X012826Y003370D01*
X012761Y003324D01*
X012705Y003268D01*
X012659Y003203D01*
X012623Y003133D01*
X012598Y003057D01*
X012598Y003055D01*
X012528Y003225D01*
X012483Y003269D01*
X012682Y003468D01*
X012918Y003468D01*
X012996Y003545D01*
X013204Y003545D01*
X013282Y003468D01*
X013918Y003468D01*
X013996Y003545D01*
X014257Y003545D01*
X014298Y003504D01*
X014712Y003504D01*
X014558Y003351D01*
X014488Y003281D01*
X014450Y003189D01*
X014450Y003002D01*
X014430Y002993D01*
X014346Y002909D01*
X014317Y002839D01*
X013647Y002839D01*
X013559Y002751D01*
X013559Y002294D01*
X000937Y002294D01*
X000838Y002302D01*
X000650Y002363D01*
X000490Y002479D01*
X000374Y002639D01*
X000313Y002828D01*
X000305Y002926D01*
X000305Y011352D01*
X000313Y011451D01*
X000374Y011639D01*
X000490Y011799D01*
X000650Y011915D01*
X000838Y011976D01*
X000937Y011984D01*
X013471Y011984D01*
X013396Y011909D01*
X013350Y011799D01*
X013350Y011679D01*
X013396Y011569D01*
X013480Y011485D01*
X013590Y011439D01*
X014846Y011439D01*
X015038Y011247D01*
X015108Y011177D01*
X015200Y011139D01*
X017596Y011139D01*
X018400Y010336D01*
X018400Y010074D01*
X018395Y010073D01*
X018389Y010074D01*
X018382Y010070D01*
X018375Y010068D01*
X018371Y010062D01*
X018342Y010042D01*
X018310Y010026D01*
X018303Y010026D01*
X018298Y010021D01*
X018290Y010017D01*
X018288Y010011D01*
X018263Y009986D01*
X018234Y009965D01*
X018227Y009964D01*
X018223Y009958D01*
X018216Y009953D01*
X018215Y009947D01*
X018194Y009918D01*
X018180Y009903D01*
X018180Y010484D01*
X018045Y010619D01*
X017845Y010819D01*
X017740Y010819D01*
X017740Y010886D01*
X017652Y010974D01*
X017148Y010974D01*
X017060Y010886D01*
X017060Y010854D01*
X016940Y010854D01*
X016940Y010886D01*
X016852Y010974D01*
X016348Y010974D01*
X016260Y010886D01*
X016260Y010725D01*
X015841Y010725D01*
X015690Y010876D01*
X015690Y010876D01*
X015567Y010999D01*
X013978Y010999D01*
X013972Y011005D01*
X013893Y010999D01*
X013813Y010999D01*
X013807Y010993D01*
X013798Y010992D01*
X013746Y010932D01*
X013690Y010876D01*
X013690Y010867D01*
X013616Y010782D01*
X013560Y010726D01*
X013560Y010717D01*
X013559Y010716D01*
X013474Y010716D01*
X012931Y011259D01*
X012890Y011259D01*
X012890Y011369D01*
X012595Y011369D01*
X012595Y011459D01*
X012505Y011459D01*
X012505Y011764D01*
X012340Y011764D01*
X012302Y011754D01*
X012268Y011734D01*
X012240Y011706D01*
X012220Y011672D01*
X012210Y011633D01*
X012210Y011459D01*
X012505Y011459D01*
X012505Y011369D01*
X012210Y011369D01*
X012210Y011259D01*
X012090Y011259D01*
X012090Y011369D01*
X011795Y011369D01*
X011795Y011459D01*
X011705Y011459D01*
X011705Y011764D01*
X011540Y011764D01*
X011502Y011754D01*
X011468Y011734D01*
X011440Y011706D01*
X011420Y011672D01*
X011410Y011633D01*
X011410Y011459D01*
X011705Y011459D01*
X011705Y011369D01*
X011410Y011369D01*
X011410Y011259D01*
X011290Y011259D01*
X011290Y011369D01*
X010995Y011369D01*
X010995Y011459D01*
X010905Y011459D01*
X010905Y011764D01*
X010740Y011764D01*
X010702Y011754D01*
X010668Y011734D01*
X010640Y011706D01*
X010620Y011672D01*
X010610Y011633D01*
X010610Y011459D01*
X010905Y011459D01*
X010905Y011369D01*
X010610Y011369D01*
X010610Y011259D01*
X010490Y011259D01*
X010490Y011369D01*
X010195Y011369D01*
X010195Y011459D01*
X010105Y011459D01*
X010105Y011764D01*
X009940Y011764D01*
X009902Y011754D01*
X009868Y011734D01*
X009840Y011706D01*
X009820Y011672D01*
X009810Y011633D01*
X009810Y011459D01*
X010105Y011459D01*
X010105Y011369D01*
X009810Y011369D01*
X009810Y011259D01*
X009690Y011259D01*
X009690Y011369D01*
X009395Y011369D01*
X009395Y011459D01*
X009305Y011459D01*
X009305Y011764D01*
X009140Y011764D01*
X009102Y011754D01*
X009068Y011734D01*
X009040Y011706D01*
X009020Y011672D01*
X009010Y011633D01*
X009010Y011459D01*
X009305Y011459D01*
X009305Y011369D01*
X009010Y011369D01*
X009010Y011259D01*
X008689Y011259D01*
X008646Y011302D01*
X008545Y011344D01*
X008435Y011344D01*
X008334Y011302D01*
X008257Y011225D01*
X008215Y011124D01*
X008215Y011014D01*
X008257Y010913D01*
X008334Y010836D01*
X008435Y010794D01*
X008545Y010794D01*
X008646Y010836D01*
X008689Y010879D01*
X009010Y010879D01*
X009010Y010560D01*
X008982Y010560D01*
X008894Y010472D01*
X008894Y010134D01*
X008840Y010076D01*
X008840Y010179D01*
X008545Y010179D01*
X008545Y010269D01*
X008455Y010269D01*
X008455Y010574D01*
X008290Y010574D01*
X008252Y010564D01*
X008218Y010544D01*
X008190Y010516D01*
X008170Y010482D01*
X008160Y010443D01*
X008160Y010269D01*
X008455Y010269D01*
X008455Y010179D01*
X008160Y010179D01*
X008160Y010004D01*
X008170Y009966D01*
X008190Y009932D01*
X008218Y009904D01*
X008236Y009893D01*
X008160Y009817D01*
X008160Y009292D01*
X008248Y009204D01*
X008270Y009204D01*
X008270Y009150D01*
X008262Y009065D01*
X008270Y009056D01*
X008270Y009044D01*
X008268Y009133D02*
X007925Y009133D01*
X007925Y009144D02*
X007883Y009245D01*
X007806Y009322D01*
X007705Y009364D01*
X007595Y009364D01*
X007494Y009322D01*
X007417Y009245D01*
X007394Y009189D01*
X007380Y009222D01*
X007358Y009244D01*
X007375Y009284D01*
X007375Y009394D01*
X007333Y009495D01*
X007359Y009488D01*
X007571Y009488D01*
X007571Y009767D01*
X007629Y009767D01*
X007629Y009824D01*
X008006Y009824D01*
X008006Y009938D01*
X007993Y009987D01*
X007968Y010030D01*
X007933Y010065D01*
X007890Y010090D01*
X007841Y010103D01*
X007629Y010103D01*
X007629Y009824D01*
X007571Y009824D01*
X007571Y010103D01*
X007359Y010103D01*
X007310Y010090D01*
X007290Y010078D01*
X007290Y010117D01*
X007217Y010189D01*
X007290Y010262D01*
X007290Y010290D01*
X007305Y010275D01*
X007895Y010275D01*
X008006Y010386D01*
X008006Y010779D01*
X007895Y010890D01*
X007305Y010890D01*
X007245Y010831D01*
X007202Y010874D01*
X006974Y010874D01*
X007033Y010933D01*
X007075Y011034D01*
X007075Y011144D01*
X007033Y011245D01*
X006956Y011322D01*
X006855Y011364D01*
X006745Y011364D01*
X006644Y011322D01*
X006567Y011245D01*
X006525Y011144D01*
X006525Y011083D01*
X006421Y010979D01*
X006310Y010868D01*
X006310Y010682D01*
X005898Y010682D01*
X005810Y010594D01*
X005810Y010532D01*
X005705Y010532D01*
X005705Y010561D01*
X005628Y010637D01*
X005647Y010648D01*
X005675Y010676D01*
X005694Y010710D01*
X005705Y010748D01*
X005705Y010923D01*
X005410Y010923D01*
X005410Y011013D01*
X005320Y011013D01*
X005320Y011318D01*
X005155Y011318D01*
X005117Y011307D01*
X005083Y011288D01*
X005055Y011260D01*
X005035Y011226D01*
X005025Y011187D01*
X005025Y011013D01*
X005320Y011013D01*
X005320Y010923D01*
X005025Y010923D01*
X005025Y010921D01*
X004924Y011022D01*
X004897Y011049D01*
X004897Y011049D01*
X004853Y011093D01*
X004807Y011139D01*
X004779Y011166D01*
X004756Y011166D01*
X004725Y011179D01*
X004709Y011196D01*
X003762Y011196D01*
X003536Y011421D01*
X003412Y011421D01*
X003041Y011051D01*
X003041Y010948D01*
X002938Y010948D01*
X002669Y010679D01*
X002601Y010747D01*
X002386Y010532D01*
X002322Y010595D01*
X002258Y010532D01*
X002050Y010740D01*
X001926Y010617D01*
X001906Y010583D01*
X001896Y010544D01*
X001896Y010505D01*
X001902Y010484D01*
X001794Y010484D01*
X001438Y010128D01*
X001406Y010160D01*
X000770Y010160D01*
X000682Y010072D01*
X000682Y009593D01*
X000770Y009505D01*
X001352Y009505D01*
X001430Y009427D01*
X001430Y009346D01*
X001402Y009363D01*
X001364Y009373D01*
X001127Y009373D01*
X001127Y009084D01*
X001127Y009133D02*
X001049Y009133D01*
X001049Y009084D02*
X001049Y009373D01*
X000812Y009373D01*
X000774Y009363D01*
X000740Y009343D01*
X000712Y009315D01*
X000692Y009281D01*
X000682Y009243D01*
X000682Y009084D01*
X001049Y009084D01*
X001049Y009034D02*
X000305Y009034D01*
X000305Y008936D02*
X000682Y008936D01*
X000685Y008837D02*
X000305Y008837D01*
X000305Y008739D02*
X000663Y008739D01*
X000615Y008640D02*
X000305Y008640D01*
X000305Y008542D02*
X000615Y008542D01*
X000920Y008443D02*
X000305Y008443D01*
X000305Y008345D02*
X000615Y008345D01*
X000615Y008246D02*
X000305Y008246D01*
X000305Y008148D02*
X000655Y008148D01*
X000877Y008049D02*
X000305Y008049D01*
X000305Y007951D02*
X000779Y007951D01*
X000750Y007852D02*
X000305Y007852D01*
X000305Y007754D02*
X000750Y007754D01*
X000750Y007655D02*
X000305Y007655D01*
X000305Y007557D02*
X000750Y007557D01*
X000750Y007458D02*
X000305Y007458D01*
X000305Y007360D02*
X000750Y007360D01*
X000750Y007261D02*
X000305Y007261D01*
X000305Y007163D02*
X000750Y007163D01*
X000750Y007064D02*
X000305Y007064D01*
X000305Y006966D02*
X000750Y006966D01*
X000750Y006867D02*
X000305Y006867D01*
X000305Y006769D02*
X000750Y006769D01*
X000750Y006670D02*
X000305Y006670D01*
X000305Y006572D02*
X000750Y006572D01*
X000750Y006473D02*
X000305Y006473D01*
X000305Y006375D02*
X000750Y006375D01*
X000750Y006276D02*
X000305Y006276D01*
X000305Y006178D02*
X000775Y006178D01*
X000775Y006079D02*
X000305Y006079D01*
X000305Y005981D02*
X000775Y005981D01*
X000811Y005882D02*
X000305Y005882D01*
X000305Y005784D02*
X000965Y005784D01*
X000879Y005685D02*
X000305Y005685D01*
X000305Y005587D02*
X000815Y005587D01*
X000815Y005488D02*
X000305Y005488D01*
X000305Y005390D02*
X000815Y005390D01*
X000815Y005291D02*
X000305Y005291D01*
X000305Y005193D02*
X000815Y005193D01*
X000838Y005094D02*
X000305Y005094D01*
X000305Y004996D02*
X001138Y004996D01*
X001039Y004897D02*
X000305Y004897D01*
X000305Y004799D02*
X000617Y004799D01*
X000602Y004700D02*
X000305Y004700D01*
X000305Y004602D02*
X000602Y004602D01*
X000602Y004503D02*
X000305Y004503D01*
X000305Y004405D02*
X000624Y004405D01*
X000602Y004306D02*
X000305Y004306D01*
X000305Y004208D02*
X000602Y004208D01*
X000602Y004239D02*
X001018Y004239D01*
X001018Y004239D01*
X000602Y004239D01*
X000608Y004109D02*
X000305Y004109D01*
X000305Y004011D02*
X000617Y004011D01*
X000602Y003912D02*
X000305Y003912D01*
X000305Y003814D02*
X000602Y003814D01*
X000602Y003715D02*
X000305Y003715D01*
X000305Y003617D02*
X000680Y003617D01*
X000850Y003421D02*
X000928Y003446D01*
X001000Y003458D01*
X001000Y002989D01*
X001000Y002889D01*
X001100Y002889D01*
X001100Y002421D01*
X001172Y002432D01*
X001250Y002457D01*
X001323Y002494D01*
X001389Y002542D01*
X001447Y002600D01*
X001495Y002667D01*
X001532Y002739D01*
X001550Y002795D01*
X001568Y002739D01*
X001605Y002667D01*
X001653Y002600D01*
X001711Y002542D01*
X001777Y002494D01*
X001850Y002457D01*
X001928Y002432D01*
X002000Y002421D01*
X002000Y002889D01*
X001100Y002889D01*
X001100Y002989D01*
X001569Y002989D01*
X002000Y002989D01*
X002000Y003458D01*
X001928Y003446D01*
X001850Y003421D01*
X001777Y003384D01*
X001711Y003336D01*
X001653Y003278D01*
X001605Y003212D01*
X001568Y003139D01*
X001550Y003083D01*
X001532Y003139D01*
X001495Y003212D01*
X001447Y003278D01*
X001389Y003336D01*
X001323Y003384D01*
X001250Y003421D01*
X001172Y003446D01*
X001100Y003458D01*
X001100Y002989D01*
X001000Y002989D01*
X000531Y002989D01*
X000543Y003061D01*
X000568Y003139D01*
X000605Y003212D01*
X000653Y003278D01*
X000711Y003336D01*
X000777Y003384D01*
X000850Y003421D01*
X000848Y003420D02*
X000305Y003420D01*
X000305Y003518D02*
X002664Y003518D01*
X002744Y003420D02*
X002252Y003420D01*
X002100Y003420D02*
X002000Y003420D01*
X002000Y003321D02*
X002100Y003321D01*
X002100Y003223D02*
X002000Y003223D01*
X002000Y003124D02*
X002100Y003124D01*
X002100Y003026D02*
X002000Y003026D01*
X002000Y002927D02*
X001100Y002927D01*
X001100Y002829D02*
X001000Y002829D01*
X001000Y002889D02*
X001000Y002421D01*
X000928Y002432D01*
X000850Y002457D01*
X000777Y002494D01*
X000711Y002542D01*
X000653Y002600D01*
X000605Y002667D01*
X000568Y002739D01*
X000543Y002817D01*
X000531Y002889D01*
X001000Y002889D01*
X001000Y002927D02*
X000305Y002927D01*
X000305Y003026D02*
X000537Y003026D01*
X000563Y003124D02*
X000305Y003124D01*
X000305Y003223D02*
X000613Y003223D01*
X000697Y003321D02*
X000305Y003321D01*
X001000Y003321D02*
X001100Y003321D01*
X001100Y003223D02*
X001000Y003223D01*
X001000Y003124D02*
X001100Y003124D01*
X001100Y003026D02*
X001000Y003026D01*
X000541Y002829D02*
X000313Y002829D01*
X000344Y002730D02*
X000573Y002730D01*
X000631Y002632D02*
X000380Y002632D01*
X000451Y002533D02*
X000724Y002533D01*
X000733Y002336D02*
X013559Y002336D01*
X013559Y002435D02*
X007191Y002435D01*
X007379Y002533D02*
X007793Y002533D01*
X007694Y002632D02*
X007478Y002632D01*
X007526Y002730D02*
X007641Y002730D01*
X007600Y002829D02*
X007567Y002829D01*
X007570Y002927D02*
X007596Y002927D01*
X007596Y003026D02*
X007570Y003026D01*
X007536Y003124D02*
X007631Y003124D01*
X007672Y003223D02*
X007495Y003223D01*
X007403Y003321D02*
X007699Y003321D01*
X007601Y003420D02*
X007249Y003420D01*
X007209Y003518D02*
X007560Y003518D01*
X007560Y003617D02*
X007250Y003617D01*
X007255Y003715D02*
X007560Y003715D01*
X007560Y003814D02*
X007229Y003814D01*
X007158Y003912D02*
X007560Y003912D01*
X007557Y004011D02*
X007560Y004011D01*
X007585Y004109D02*
X007625Y004109D01*
X007651Y004208D02*
X007585Y004208D01*
X007728Y004306D02*
X007280Y004306D01*
X007280Y004334D02*
X007190Y004334D01*
X007190Y004629D01*
X007015Y004629D01*
X006977Y004619D01*
X006943Y004599D01*
X006915Y004571D01*
X006904Y004553D01*
X006880Y004577D01*
X006880Y005218D01*
X006891Y005207D01*
X006909Y005167D01*
X006945Y005153D01*
X006971Y005127D01*
X007015Y005127D01*
X007017Y005126D01*
X007026Y005092D01*
X007046Y005058D01*
X007144Y004960D01*
X007473Y005289D01*
X007500Y005262D01*
X007171Y004933D01*
X007269Y004835D01*
X007303Y004815D01*
X007341Y004805D01*
X007350Y004805D01*
X007350Y004754D01*
X007482Y004622D01*
X007454Y004629D01*
X007280Y004629D01*
X007280Y004334D01*
X007280Y004405D02*
X007190Y004405D01*
X007190Y004503D02*
X007280Y004503D01*
X007280Y004602D02*
X007190Y004602D01*
X007404Y004700D02*
X006880Y004700D01*
X006880Y004602D02*
X006947Y004602D01*
X006880Y004799D02*
X007350Y004799D01*
X007207Y004897D02*
X006880Y004897D01*
X006880Y004996D02*
X007108Y004996D01*
X007180Y004996D02*
X007233Y004996D01*
X007278Y005094D02*
X007332Y005094D01*
X007377Y005193D02*
X007430Y005193D01*
X007026Y005094D02*
X006880Y005094D01*
X006880Y005193D02*
X006898Y005193D01*
X006420Y005193D02*
X006095Y005193D01*
X006095Y005219D02*
X006390Y005219D01*
X006390Y005393D01*
X006380Y005432D01*
X006360Y005466D01*
X006332Y005494D01*
X006298Y005514D01*
X006260Y005524D01*
X006095Y005524D01*
X006095Y005219D01*
X006005Y005219D01*
X006005Y005524D01*
X005840Y005524D01*
X005802Y005514D01*
X005768Y005494D01*
X005740Y005466D01*
X005720Y005432D01*
X005710Y005393D01*
X005710Y005219D01*
X006005Y005219D01*
X006005Y005129D01*
X005710Y005129D01*
X005710Y004954D01*
X005720Y004916D01*
X005740Y004882D01*
X005768Y004854D01*
X005786Y004843D01*
X005726Y004782D01*
X005494Y005014D01*
X005490Y005014D01*
X005490Y005086D01*
X005490Y005318D01*
X005487Y005321D01*
X005689Y005523D01*
X005689Y005530D01*
X005706Y005539D01*
X005792Y005625D01*
X005511Y005906D01*
X005514Y005910D01*
X005796Y005629D01*
X005865Y005699D01*
X005955Y005609D01*
X006420Y005609D01*
X006420Y004734D01*
X006390Y004734D01*
X006390Y004767D01*
X006314Y004843D01*
X006332Y004854D01*
X006360Y004882D01*
X006380Y004916D01*
X006390Y004954D01*
X006390Y005129D01*
X006095Y005129D01*
X006095Y005219D01*
X006095Y005291D02*
X006005Y005291D01*
X006005Y005193D02*
X005490Y005193D01*
X005490Y005291D02*
X005710Y005291D01*
X005710Y005390D02*
X005556Y005390D01*
X005655Y005488D02*
X005762Y005488D01*
X005753Y005587D02*
X006420Y005587D01*
X006420Y005488D02*
X006338Y005488D01*
X006390Y005390D02*
X006420Y005390D01*
X006420Y005291D02*
X006390Y005291D01*
X006095Y005390D02*
X006005Y005390D01*
X006005Y005488D02*
X006095Y005488D01*
X005879Y005685D02*
X005852Y005685D01*
X005739Y005685D02*
X005732Y005685D01*
X005641Y005784D02*
X005634Y005784D01*
X005542Y005882D02*
X005535Y005882D01*
X005507Y005910D02*
X005226Y006191D01*
X005140Y006105D01*
X005130Y006088D01*
X005124Y006088D01*
X004887Y005852D01*
X004870Y005835D01*
X004870Y005937D01*
X004872Y006014D01*
X004870Y006016D01*
X004870Y006018D01*
X004816Y006072D01*
X004390Y006516D01*
X004390Y006518D01*
X004336Y006572D01*
X004283Y006627D01*
X004280Y006627D01*
X004279Y006629D01*
X004202Y006629D01*
X004125Y006631D01*
X004124Y006629D01*
X003771Y006629D01*
X003703Y006561D01*
X003508Y006756D01*
X003286Y006979D01*
X003251Y007014D01*
X003305Y007014D01*
X003406Y007056D01*
X003483Y007133D01*
X003525Y007234D01*
X003525Y007344D01*
X003483Y007445D01*
X003406Y007522D01*
X003305Y007564D01*
X003195Y007564D01*
X003094Y007522D01*
X003051Y007479D01*
X002866Y007479D01*
X003077Y007690D01*
X003299Y007913D01*
X003522Y008135D01*
X003522Y008142D01*
X003538Y008152D01*
X003625Y008238D01*
X003344Y008519D01*
X003347Y008523D01*
X003628Y008242D01*
X003715Y008328D01*
X003724Y008344D01*
X003731Y008344D01*
X003967Y008581D01*
X004020Y008633D01*
X004020Y007521D01*
X005288Y006253D01*
X005230Y006195D01*
X005511Y005914D01*
X005507Y005910D01*
X005444Y005981D02*
X005437Y005981D01*
X005345Y006079D02*
X005338Y006079D01*
X005247Y006178D02*
X005240Y006178D01*
X005213Y006178D02*
X004714Y006178D01*
X004620Y006276D02*
X005265Y006276D01*
X005167Y006375D02*
X004525Y006375D01*
X004431Y006473D02*
X005068Y006473D01*
X004970Y006572D02*
X004336Y006572D01*
X004674Y006867D02*
X003398Y006867D01*
X003496Y006769D02*
X004773Y006769D01*
X004871Y006670D02*
X003595Y006670D01*
X003693Y006572D02*
X003714Y006572D01*
X003299Y006966D02*
X004576Y006966D01*
X004477Y007064D02*
X003414Y007064D01*
X003495Y007163D02*
X004379Y007163D01*
X004280Y007261D02*
X003525Y007261D01*
X003518Y007360D02*
X004182Y007360D01*
X004083Y007458D02*
X003470Y007458D01*
X003323Y007557D02*
X004020Y007557D01*
X004020Y007655D02*
X003042Y007655D01*
X003140Y007754D02*
X004020Y007754D01*
X004020Y007852D02*
X003239Y007852D01*
X003337Y007951D02*
X004020Y007951D01*
X004020Y008049D02*
X003436Y008049D01*
X003531Y008148D02*
X004020Y008148D01*
X004020Y008246D02*
X003633Y008246D01*
X003624Y008246D02*
X003617Y008246D01*
X003525Y008345D02*
X003518Y008345D01*
X003427Y008443D02*
X003420Y008443D01*
X003731Y008345D02*
X004020Y008345D01*
X004020Y008443D02*
X003830Y008443D01*
X003928Y008542D02*
X004020Y008542D01*
X003566Y008745D02*
X003350Y008962D01*
X003350Y009739D01*
X003563Y009952D01*
X003174Y009846D02*
X003150Y009822D01*
X003150Y009084D01*
X003066Y009168D01*
X002854Y008956D01*
X002783Y009027D01*
X002995Y009239D01*
X002857Y009377D01*
X002823Y009397D01*
X002785Y009407D01*
X002745Y009407D01*
X002707Y009397D01*
X002673Y009377D01*
X002655Y009358D01*
X002655Y009429D01*
X002915Y009690D01*
X002915Y009814D01*
X002756Y009973D01*
X002896Y010124D01*
X002924Y010097D01*
X003048Y010097D01*
X003419Y010467D01*
X003419Y010570D01*
X003522Y010570D01*
X003747Y010796D01*
X003926Y010796D01*
X003828Y010698D01*
X004037Y010489D01*
X003973Y010426D01*
X003764Y010634D01*
X003641Y010511D01*
X003621Y010477D01*
X003611Y010438D01*
X003611Y010399D01*
X003616Y010378D01*
X003508Y010378D01*
X003138Y010008D01*
X003138Y009883D01*
X003174Y009846D01*
X003150Y009822D02*
X002907Y009822D01*
X002915Y009724D02*
X003150Y009724D01*
X003150Y009625D02*
X002851Y009625D01*
X002752Y009527D02*
X003150Y009527D01*
X003150Y009428D02*
X002655Y009428D01*
X002904Y009330D02*
X003150Y009330D01*
X003150Y009231D02*
X002987Y009231D01*
X003030Y009133D02*
X002888Y009133D01*
X002931Y009034D02*
X002790Y009034D01*
X002712Y008956D02*
X002783Y008886D01*
X002571Y008673D01*
X002708Y008536D01*
X002743Y008516D01*
X002765Y008510D01*
X002734Y008478D01*
X002511Y008256D01*
X002274Y008019D01*
X002274Y007895D01*
X002296Y007874D01*
X002267Y007845D01*
X002251Y007807D01*
X002240Y007818D01*
X002240Y008410D01*
X002379Y008549D01*
X002490Y008660D01*
X002490Y008754D01*
X002500Y008744D01*
X002712Y008956D01*
X002691Y008936D02*
X002733Y008936D01*
X002734Y008837D02*
X002593Y008837D01*
X002636Y008739D02*
X002490Y008739D01*
X002470Y008640D02*
X002604Y008640D01*
X002703Y008542D02*
X002371Y008542D01*
X002273Y008443D02*
X002698Y008443D01*
X002600Y008345D02*
X002240Y008345D01*
X002240Y008246D02*
X002501Y008246D01*
X002403Y008148D02*
X002240Y008148D01*
X002240Y008049D02*
X002304Y008049D01*
X002274Y007951D02*
X002240Y007951D01*
X002240Y007852D02*
X002274Y007852D01*
X001985Y007535D02*
X002030Y007490D01*
X002030Y007128D01*
X002029Y007128D01*
X002015Y007128D01*
X002015Y007138D01*
X001962Y007191D01*
X001966Y007204D01*
X001966Y007338D01*
X001564Y007338D01*
X001564Y007366D01*
X001536Y007366D01*
X001536Y007477D01*
X001550Y007477D01*
X001550Y007765D01*
X001550Y007477D01*
X001564Y007477D01*
X001564Y007366D01*
X001966Y007366D01*
X001966Y007499D01*
X001962Y007512D01*
X001985Y007535D01*
X001966Y007458D02*
X002030Y007458D01*
X002030Y007360D02*
X001564Y007360D01*
X001564Y007458D02*
X001536Y007458D01*
X001550Y007557D02*
X001550Y007557D01*
X001550Y007655D02*
X001550Y007655D01*
X001550Y007754D02*
X001550Y007754D01*
X001550Y007765D02*
X001550Y007765D01*
X001341Y007765D01*
X001294Y007765D01*
X001294Y007765D01*
X001550Y007765D01*
X001550Y007765D01*
X001806Y007765D02*
X001806Y008168D01*
X001806Y008268D01*
X001635Y008439D01*
X001600Y008404D02*
X001600Y008239D01*
X001450Y008089D01*
X001200Y008089D01*
X000950Y007839D01*
X000950Y006339D01*
X001119Y006170D01*
X001165Y006130D02*
X001165Y005369D01*
X002550Y005404D02*
X002600Y005354D01*
X002600Y005089D01*
X003000Y004689D01*
X003000Y004424D01*
X002865Y004239D01*
X002357Y004239D01*
X003000Y004424D02*
X003215Y004424D01*
X003350Y004289D01*
X003350Y003389D01*
X003050Y002939D01*
X003526Y002730D02*
X003574Y002730D01*
X003622Y002632D02*
X003478Y002632D01*
X003379Y002533D02*
X003721Y002533D01*
X003909Y002435D02*
X003191Y002435D01*
X002909Y002435D02*
X002180Y002435D01*
X002100Y002435D02*
X002000Y002435D01*
X001920Y002435D02*
X001180Y002435D01*
X001100Y002435D02*
X001000Y002435D01*
X000920Y002435D02*
X000552Y002435D01*
X001000Y002533D02*
X001100Y002533D01*
X001100Y002632D02*
X001000Y002632D01*
X001000Y002730D02*
X001100Y002730D01*
X001469Y002632D02*
X001631Y002632D01*
X001573Y002730D02*
X001527Y002730D01*
X001376Y002533D02*
X001724Y002533D01*
X002000Y002533D02*
X002100Y002533D01*
X002100Y002632D02*
X002000Y002632D01*
X002000Y002730D02*
X002100Y002730D01*
X002100Y002829D02*
X002000Y002829D01*
X002469Y002632D02*
X002622Y002632D01*
X002574Y002730D02*
X002527Y002730D01*
X002376Y002533D02*
X002721Y002533D01*
X002564Y003124D02*
X002537Y003124D01*
X002487Y003223D02*
X002605Y003223D01*
X002697Y003321D02*
X002403Y003321D01*
X001848Y003420D02*
X001252Y003420D01*
X001100Y003420D02*
X001000Y003420D01*
X001403Y003321D02*
X001697Y003321D01*
X001613Y003223D02*
X001487Y003223D01*
X001537Y003124D02*
X001563Y003124D01*
X004191Y002435D02*
X004909Y002435D01*
X004721Y002533D02*
X004379Y002533D01*
X004478Y002632D02*
X004622Y002632D01*
X004574Y002730D02*
X004526Y002730D01*
X005191Y002435D02*
X005909Y002435D01*
X005721Y002533D02*
X005379Y002533D01*
X005478Y002632D02*
X005622Y002632D01*
X005574Y002730D02*
X005526Y002730D01*
X006191Y002435D02*
X006909Y002435D01*
X006721Y002533D02*
X006379Y002533D01*
X006478Y002632D02*
X006622Y002632D01*
X006574Y002730D02*
X006526Y002730D01*
X007940Y003629D02*
X007940Y003814D01*
X007955Y003814D01*
X008056Y003856D01*
X008060Y003860D01*
X008073Y003848D01*
X008132Y003848D01*
X008191Y003836D01*
X008191Y003729D01*
X008195Y003726D01*
X008191Y003713D01*
X008191Y003644D01*
X008277Y003644D01*
X008277Y003644D01*
X008191Y003644D01*
X008191Y003629D01*
X007940Y003629D01*
X007940Y003715D02*
X008192Y003715D01*
X008205Y003644D02*
X008100Y003739D01*
X008191Y003814D02*
X007940Y003814D01*
X008191Y003836D02*
X008191Y003836D01*
X008402Y004038D02*
X008499Y004038D01*
X008499Y003644D02*
X008205Y003644D01*
X007280Y004011D02*
X007190Y004011D01*
X007190Y004109D02*
X007280Y004109D01*
X007280Y004208D02*
X007190Y004208D01*
X007585Y004405D02*
X008250Y004405D01*
X008310Y004503D02*
X007789Y004503D01*
X007888Y004602D02*
X008344Y004602D01*
X008442Y004700D02*
X007986Y004700D01*
X008085Y004799D02*
X008541Y004799D01*
X008639Y004897D02*
X008183Y004897D01*
X008282Y004996D02*
X008968Y004996D01*
X009332Y004996D02*
X013334Y004996D01*
X013324Y004910D02*
X013286Y004900D01*
X013252Y004880D01*
X013224Y004852D01*
X013204Y004818D01*
X013194Y004780D01*
X013194Y004622D01*
X013561Y004622D01*
X013561Y004910D01*
X013324Y004910D01*
X013281Y004897D02*
X012919Y004897D01*
X012914Y004900D02*
X012876Y004910D01*
X012639Y004910D01*
X012639Y004622D01*
X012561Y004622D01*
X012561Y004910D01*
X012324Y004910D01*
X012286Y004900D01*
X012252Y004880D01*
X012224Y004852D01*
X012204Y004818D01*
X012194Y004780D01*
X012194Y004622D01*
X012561Y004622D01*
X012561Y004544D01*
X012194Y004544D01*
X012194Y004386D01*
X012204Y004347D01*
X012224Y004313D01*
X012252Y004285D01*
X012286Y004266D01*
X012324Y004255D01*
X012561Y004255D01*
X012561Y004544D01*
X012639Y004544D01*
X012639Y004622D01*
X013006Y004622D01*
X013006Y004780D01*
X012996Y004818D01*
X012976Y004852D01*
X012948Y004880D01*
X012914Y004900D01*
X013001Y004799D02*
X013199Y004799D01*
X013194Y004700D02*
X013006Y004700D01*
X013006Y004544D02*
X012639Y004544D01*
X012639Y004255D01*
X012876Y004255D01*
X012914Y004266D01*
X012948Y004285D01*
X012976Y004313D01*
X012996Y004347D01*
X013006Y004386D01*
X013006Y004544D01*
X013006Y004503D02*
X013194Y004503D01*
X013194Y004544D02*
X013194Y004386D01*
X013204Y004347D01*
X013224Y004313D01*
X013252Y004285D01*
X013286Y004266D01*
X013324Y004255D01*
X013561Y004255D01*
X013561Y004544D01*
X013194Y004544D01*
X013194Y004405D02*
X013006Y004405D01*
X012969Y004306D02*
X013231Y004306D01*
X013561Y004306D02*
X013639Y004306D01*
X013639Y004255D02*
X013876Y004255D01*
X013914Y004266D01*
X013948Y004285D01*
X013976Y004313D01*
X013996Y004347D01*
X014006Y004386D01*
X014006Y004544D01*
X013639Y004544D01*
X013639Y004622D01*
X013561Y004622D01*
X013561Y004544D01*
X013639Y004544D01*
X013639Y004255D01*
X013639Y004405D02*
X013561Y004405D01*
X013561Y004503D02*
X013639Y004503D01*
X013639Y004602D02*
X014210Y004602D01*
X014210Y004700D02*
X014006Y004700D01*
X014006Y004622D02*
X014006Y004780D01*
X013996Y004818D01*
X013976Y004852D01*
X013948Y004880D01*
X013914Y004900D01*
X013876Y004910D01*
X013639Y004910D01*
X013639Y004622D01*
X014006Y004622D01*
X014006Y004503D02*
X014505Y004503D01*
X014595Y004503D02*
X015305Y004503D01*
X015395Y004503D02*
X016539Y004503D01*
X016515Y004549D02*
X016515Y004804D01*
X016110Y004804D01*
X016110Y004679D01*
X016120Y004641D01*
X016140Y004607D01*
X016168Y004579D01*
X016202Y004559D01*
X016240Y004549D01*
X016515Y004549D01*
X016515Y004602D02*
X016525Y004602D01*
X016515Y004700D02*
X016525Y004700D01*
X016515Y004799D02*
X016525Y004799D01*
X016515Y004814D02*
X016110Y004814D01*
X016110Y004939D01*
X016120Y004977D01*
X016140Y005011D01*
X016168Y005039D01*
X016202Y005059D01*
X016240Y005069D01*
X016515Y005069D01*
X016515Y004814D01*
X016515Y004897D02*
X016525Y004897D01*
X016515Y004996D02*
X016525Y004996D01*
X016131Y004996D02*
X016083Y004996D01*
X016105Y005094D02*
X017580Y005094D01*
X017678Y005193D02*
X016105Y005193D01*
X016105Y005291D02*
X017777Y005291D01*
X017875Y005390D02*
X016105Y005390D01*
X016105Y005488D02*
X017974Y005488D01*
X018034Y005587D02*
X018072Y005587D01*
X018040Y005685D02*
X018171Y005685D01*
X018269Y005784D02*
X018040Y005784D01*
X018040Y005882D02*
X018270Y005882D01*
X018270Y005981D02*
X018040Y005981D01*
X018040Y006079D02*
X018270Y006079D01*
X018270Y006178D02*
X017979Y006178D01*
X018040Y006276D02*
X018270Y006276D01*
X018270Y006375D02*
X018040Y006375D01*
X018040Y006473D02*
X018270Y006473D01*
X018270Y006572D02*
X018040Y006572D01*
X018040Y006670D02*
X018270Y006670D01*
X018270Y006769D02*
X018040Y006769D01*
X018056Y006867D02*
X018270Y006867D01*
X018270Y006966D02*
X018131Y006966D01*
X018135Y007064D02*
X018270Y007064D01*
X018270Y007163D02*
X017830Y007163D01*
X017830Y007261D02*
X017740Y007261D01*
X017740Y007360D02*
X017830Y007360D01*
X017830Y007458D02*
X017740Y007458D01*
X017650Y007557D02*
X018270Y007557D01*
X018270Y007655D02*
X018027Y007655D01*
X018043Y007659D02*
X018077Y007679D01*
X018105Y007707D01*
X018124Y007741D01*
X018135Y007779D01*
X018135Y007944D01*
X017830Y007944D01*
X017830Y007649D01*
X018004Y007649D01*
X018043Y007659D01*
X018128Y007754D02*
X018270Y007754D01*
X018270Y007852D02*
X018135Y007852D01*
X018270Y007951D02*
X017830Y007951D01*
X017830Y008049D02*
X017740Y008049D01*
X017740Y008148D02*
X017830Y008148D01*
X017830Y008246D02*
X017740Y008246D01*
X017792Y008345D02*
X018270Y008345D01*
X018270Y008443D02*
X017840Y008443D01*
X017840Y008542D02*
X018270Y008542D01*
X018270Y008640D02*
X017840Y008640D01*
X017840Y008739D02*
X017975Y008739D01*
X017850Y008989D02*
X017250Y008989D01*
X017115Y008854D01*
X017115Y007989D01*
X016915Y008329D02*
X016853Y008329D01*
X016809Y008284D01*
X016790Y008284D01*
X016790Y008317D01*
X016717Y008389D01*
X016790Y008462D01*
X016790Y008986D01*
X016702Y009074D01*
X016383Y009074D01*
X016117Y009339D01*
X015435Y009339D01*
X015435Y009572D01*
X015617Y009389D01*
X015783Y009389D01*
X015793Y009399D01*
X016071Y009399D01*
X016110Y009360D01*
X016221Y009249D01*
X017160Y009249D01*
X017160Y009182D01*
X017050Y009072D01*
X016915Y008937D01*
X016915Y008329D01*
X016915Y008345D02*
X016762Y008345D01*
X016772Y008443D02*
X016915Y008443D01*
X016915Y008542D02*
X016790Y008542D01*
X016790Y008640D02*
X016915Y008640D01*
X016915Y008739D02*
X016790Y008739D01*
X016790Y008837D02*
X016915Y008837D01*
X016915Y008936D02*
X016790Y008936D01*
X016742Y009034D02*
X017012Y009034D01*
X017111Y009133D02*
X016324Y009133D01*
X016225Y009231D02*
X017160Y009231D01*
X017127Y009629D02*
X016873Y009629D01*
X016882Y009634D01*
X016910Y009662D01*
X016930Y009697D01*
X016940Y009735D01*
X016940Y009909D01*
X016645Y009909D01*
X016645Y009629D01*
X016555Y009629D01*
X016555Y009909D01*
X016645Y009909D01*
X016645Y009999D01*
X016940Y009999D01*
X016940Y010174D01*
X016930Y010212D01*
X016910Y010247D01*
X016882Y010274D01*
X016864Y010285D01*
X016940Y010362D01*
X016940Y010394D01*
X017060Y010394D01*
X017060Y010362D01*
X017136Y010285D01*
X017118Y010274D01*
X017090Y010247D01*
X017070Y010212D01*
X017060Y010174D01*
X017060Y009999D01*
X017355Y009999D01*
X017355Y009909D01*
X017060Y009909D01*
X017060Y009735D01*
X017070Y009697D01*
X017090Y009662D01*
X017118Y009634D01*
X017127Y009629D01*
X017063Y009724D02*
X016937Y009724D01*
X016940Y009822D02*
X017060Y009822D01*
X017355Y009921D02*
X016645Y009921D01*
X016555Y009921D02*
X016270Y009921D01*
X016260Y009909D02*
X016260Y009748D01*
X016229Y009779D01*
X016040Y009779D01*
X016075Y009814D01*
X016105Y009814D01*
X016206Y009856D01*
X016283Y009933D01*
X016311Y009999D01*
X016555Y009999D01*
X016555Y009909D01*
X016260Y009909D01*
X016260Y009822D02*
X016124Y009822D01*
X016555Y009822D02*
X016645Y009822D01*
X016645Y009724D02*
X016555Y009724D01*
X016940Y010019D02*
X017060Y010019D01*
X017060Y010118D02*
X016940Y010118D01*
X016928Y010216D02*
X017072Y010216D01*
X017107Y010315D02*
X016893Y010315D01*
X016260Y010807D02*
X015759Y010807D01*
X015660Y010906D02*
X016280Y010906D01*
X016920Y010906D02*
X017080Y010906D01*
X017633Y011103D02*
X013087Y011103D01*
X012989Y011201D02*
X015084Y011201D01*
X014986Y011300D02*
X012890Y011300D01*
X012595Y011398D02*
X014887Y011398D01*
X015250Y011743D02*
X015354Y011639D01*
X017750Y011639D01*
X017842Y011601D01*
X018792Y010651D01*
X018862Y010581D01*
X018900Y010489D01*
X018900Y010041D01*
X018930Y010026D01*
X018937Y010026D01*
X018942Y010021D01*
X018950Y010017D01*
X018952Y010011D01*
X018977Y009986D01*
X019006Y009965D01*
X019013Y009964D01*
X019017Y009958D01*
X019024Y009953D01*
X019025Y009947D01*
X019046Y009918D01*
X019071Y009892D01*
X019077Y009890D01*
X019080Y009883D01*
X019086Y009877D01*
X019086Y009871D01*
X019101Y009838D01*
X019122Y009809D01*
X019127Y009806D01*
X019129Y009798D01*
X019134Y009791D01*
X019133Y009785D01*
X019142Y009750D01*
X019157Y009718D01*
X019162Y009714D01*
X019163Y009706D01*
X019166Y009699D01*
X019164Y009692D01*
X019167Y009657D01*
X019176Y009622D01*
X019181Y009617D01*
X019180Y009609D01*
X019182Y009602D01*
X019179Y009596D01*
X019176Y009560D01*
X019179Y009525D01*
X019182Y009519D01*
X019180Y009511D01*
X019181Y009503D01*
X019176Y009498D01*
X019167Y009464D01*
X019164Y009428D01*
X019286Y009428D01*
X019286Y009330D02*
X019134Y009330D01*
X019134Y009329D02*
X019133Y009336D01*
X019142Y009370D01*
X019157Y009403D01*
X019162Y009407D01*
X019163Y009415D01*
X019166Y009422D01*
X019164Y009428D01*
X019179Y009527D02*
X019286Y009527D01*
X019286Y009625D02*
X019176Y009625D01*
X019155Y009724D02*
X019286Y009724D01*
X019286Y009822D02*
X019112Y009822D01*
X019044Y009921D02*
X019286Y009921D01*
X019286Y010019D02*
X018946Y010019D01*
X018900Y010118D02*
X019286Y010118D01*
X019286Y010216D02*
X018900Y010216D01*
X018900Y010315D02*
X019286Y010315D01*
X019286Y010413D02*
X018900Y010413D01*
X018891Y010512D02*
X019286Y010512D01*
X019286Y010610D02*
X018833Y010610D01*
X018734Y010709D02*
X019286Y010709D01*
X019286Y010807D02*
X018636Y010807D01*
X018537Y010906D02*
X019286Y010906D01*
X019286Y011004D02*
X018439Y011004D01*
X018340Y011103D02*
X019286Y011103D01*
X019286Y011201D02*
X018242Y011201D01*
X018143Y011300D02*
X019286Y011300D01*
X019286Y011352D02*
X019286Y002926D01*
X019279Y002828D01*
X019217Y002639D01*
X019101Y002479D01*
X018941Y002363D01*
X018753Y002302D01*
X018654Y002294D01*
X015179Y002294D01*
X015204Y002319D01*
X015250Y002429D01*
X015250Y002549D01*
X015204Y002659D01*
X015120Y002743D01*
X015010Y002789D01*
X015003Y002789D01*
X014953Y002839D01*
X014950Y002839D01*
X014950Y003036D01*
X015104Y003189D01*
X015257Y003189D01*
X015257Y002492D01*
X015345Y002404D01*
X016375Y002404D01*
X016402Y002432D01*
X016445Y002414D01*
X016555Y002414D01*
X016656Y002456D01*
X016733Y002533D01*
X017738Y002533D01*
X017737Y002534D02*
X017748Y002496D01*
X017767Y002462D01*
X017795Y002434D01*
X017830Y002414D01*
X017868Y002404D01*
X018290Y002404D01*
X018290Y002819D01*
X017737Y002819D01*
X017737Y002534D01*
X017737Y002632D02*
X016774Y002632D01*
X016775Y002634D02*
X016775Y002744D01*
X016733Y002845D01*
X016656Y002922D01*
X016555Y002964D01*
X016494Y002964D01*
X016486Y002971D01*
X016486Y002976D01*
X016463Y002998D01*
X016463Y003189D01*
X016800Y003189D01*
X016892Y003227D01*
X017442Y003777D01*
X017512Y003847D01*
X017550Y003939D01*
X017550Y004179D01*
X017702Y004179D01*
X017712Y004189D01*
X017750Y004189D01*
X017842Y004227D01*
X018162Y004547D01*
X018162Y004547D01*
X018225Y004610D01*
X018604Y004610D01*
X018604Y004510D01*
X018704Y004510D01*
X018704Y004042D01*
X018776Y004053D01*
X018854Y004078D01*
X018926Y004116D01*
X018993Y004164D01*
X019051Y004222D01*
X019099Y004288D01*
X019136Y004361D01*
X019161Y004439D01*
X019172Y004510D01*
X018704Y004510D01*
X018704Y004610D01*
X019172Y004610D01*
X019161Y004682D01*
X019136Y004760D01*
X019099Y004833D01*
X019051Y004899D01*
X018993Y004957D01*
X018926Y005005D01*
X018864Y005037D01*
X018975Y005120D01*
X018992Y005127D01*
X019014Y005150D01*
X019040Y005169D01*
X019049Y005185D01*
X019062Y005197D01*
X019074Y005227D01*
X019090Y005254D01*
X019093Y005273D01*
X019100Y005289D01*
X019100Y005321D01*
X019105Y005353D01*
X019100Y005371D01*
X019100Y009280D01*
X019101Y009283D01*
X019122Y009312D01*
X019127Y009315D01*
X019129Y009323D01*
X019134Y009329D01*
X019100Y009231D02*
X019286Y009231D01*
X019286Y009133D02*
X019100Y009133D01*
X019100Y009034D02*
X019286Y009034D01*
X019286Y008936D02*
X019100Y008936D01*
X019100Y008837D02*
X019286Y008837D01*
X019286Y008739D02*
X019100Y008739D01*
X019100Y008640D02*
X019286Y008640D01*
X019286Y008542D02*
X019100Y008542D01*
X019100Y008443D02*
X019286Y008443D01*
X019286Y008345D02*
X019100Y008345D01*
X019100Y008246D02*
X019286Y008246D01*
X019286Y008148D02*
X019100Y008148D01*
X019100Y008049D02*
X019286Y008049D01*
X019286Y007951D02*
X019100Y007951D01*
X019100Y007852D02*
X019286Y007852D01*
X019286Y007754D02*
X019100Y007754D01*
X019100Y007655D02*
X019286Y007655D01*
X019286Y007557D02*
X019100Y007557D01*
X019100Y007458D02*
X019286Y007458D01*
X019286Y007360D02*
X019100Y007360D01*
X019100Y007261D02*
X019286Y007261D01*
X019286Y007163D02*
X019100Y007163D01*
X019100Y007064D02*
X019286Y007064D01*
X019286Y006966D02*
X019100Y006966D01*
X019100Y006867D02*
X019286Y006867D01*
X019286Y006769D02*
X019100Y006769D01*
X019100Y006670D02*
X019286Y006670D01*
X019286Y006572D02*
X019100Y006572D01*
X019100Y006473D02*
X019286Y006473D01*
X019286Y006375D02*
X019100Y006375D01*
X019100Y006276D02*
X019286Y006276D01*
X019286Y006178D02*
X019100Y006178D01*
X019100Y006079D02*
X019286Y006079D01*
X019286Y005981D02*
X019100Y005981D01*
X019100Y005882D02*
X019286Y005882D01*
X019286Y005784D02*
X019100Y005784D01*
X019100Y005685D02*
X019286Y005685D01*
X019286Y005587D02*
X019100Y005587D01*
X019100Y005488D02*
X019286Y005488D01*
X019286Y005390D02*
X019100Y005390D01*
X019100Y005291D02*
X019286Y005291D01*
X019286Y005193D02*
X019057Y005193D01*
X018940Y005094D02*
X019286Y005094D01*
X019286Y004996D02*
X018940Y004996D01*
X019052Y004897D02*
X019286Y004897D01*
X019286Y004799D02*
X019116Y004799D01*
X019155Y004700D02*
X019286Y004700D01*
X019286Y004602D02*
X018704Y004602D01*
X018704Y004503D02*
X018604Y004503D01*
X018604Y004510D02*
X018604Y004042D01*
X018532Y004053D01*
X018454Y004078D01*
X018381Y004116D01*
X018315Y004164D01*
X018257Y004222D01*
X018209Y004288D01*
X018172Y004361D01*
X018147Y004439D01*
X018135Y004510D01*
X018604Y004510D01*
X018604Y004602D02*
X018216Y004602D01*
X018137Y004503D02*
X018118Y004503D01*
X018158Y004405D02*
X018019Y004405D01*
X017921Y004306D02*
X018200Y004306D01*
X018271Y004208D02*
X017794Y004208D01*
X017550Y004109D02*
X018394Y004109D01*
X018604Y004109D02*
X018704Y004109D01*
X018704Y004208D02*
X018604Y004208D01*
X018604Y004306D02*
X018704Y004306D01*
X018704Y004405D02*
X018604Y004405D01*
X019037Y004208D02*
X019286Y004208D01*
X019286Y004306D02*
X019108Y004306D01*
X019150Y004405D02*
X019286Y004405D01*
X019286Y004503D02*
X019171Y004503D01*
X019286Y004109D02*
X018914Y004109D01*
X019286Y004011D02*
X017550Y004011D01*
X017539Y003912D02*
X019286Y003912D01*
X019286Y003814D02*
X017478Y003814D01*
X017380Y003715D02*
X019286Y003715D01*
X019286Y003617D02*
X017281Y003617D01*
X017183Y003518D02*
X019286Y003518D01*
X019286Y003420D02*
X017084Y003420D01*
X016986Y003321D02*
X017825Y003321D01*
X017830Y003324D02*
X017795Y003304D01*
X017767Y003276D01*
X017748Y003242D01*
X017737Y003204D01*
X017737Y002919D01*
X018290Y002919D01*
X018290Y002819D01*
X018390Y002819D01*
X018390Y002404D01*
X018813Y002404D01*
X018851Y002414D01*
X018885Y002434D01*
X018913Y002462D01*
X018933Y002496D01*
X018943Y002534D01*
X018943Y002819D01*
X018390Y002819D01*
X018390Y002919D01*
X018290Y002919D01*
X018290Y003334D01*
X017868Y003334D01*
X017830Y003324D01*
X017742Y003223D02*
X016881Y003223D01*
X016463Y003124D02*
X017737Y003124D01*
X017737Y003026D02*
X016463Y003026D01*
X016644Y002927D02*
X017737Y002927D01*
X017737Y002730D02*
X016775Y002730D01*
X016775Y002634D02*
X016733Y002533D01*
X016604Y002435D02*
X017795Y002435D01*
X018290Y002435D02*
X018390Y002435D01*
X018390Y002533D02*
X018290Y002533D01*
X018290Y002632D02*
X018390Y002632D01*
X018390Y002730D02*
X018290Y002730D01*
X018290Y002829D02*
X016740Y002829D01*
X015314Y002435D02*
X015250Y002435D01*
X015250Y002533D02*
X015257Y002533D01*
X015257Y002632D02*
X015216Y002632D01*
X015257Y002730D02*
X015133Y002730D01*
X015257Y002829D02*
X014963Y002829D01*
X014950Y002927D02*
X015257Y002927D01*
X015257Y003026D02*
X014950Y003026D01*
X015039Y003124D02*
X015257Y003124D01*
X014627Y003420D02*
X013243Y003420D01*
X013232Y003518D02*
X012968Y003518D01*
X012937Y003420D02*
X012634Y003420D01*
X012536Y003321D02*
X012759Y003321D01*
X012673Y003223D02*
X012528Y003223D01*
X012569Y003124D02*
X012620Y003124D01*
X013040Y003124D02*
X013140Y003124D01*
X013140Y003026D02*
X013040Y003026D01*
X013140Y002927D02*
X014364Y002927D01*
X014450Y003026D02*
X013587Y003026D01*
X013560Y003124D02*
X014450Y003124D01*
X014464Y003223D02*
X013507Y003223D01*
X013421Y003321D02*
X014528Y003321D01*
X014284Y003518D02*
X013968Y003518D01*
X013140Y003420D02*
X013040Y003420D01*
X013040Y003321D02*
X013140Y003321D01*
X013140Y003223D02*
X013040Y003223D01*
X013040Y002829D02*
X013140Y002829D01*
X013140Y002730D02*
X013040Y002730D01*
X013040Y002632D02*
X013140Y002632D01*
X013140Y002533D02*
X013040Y002533D01*
X012791Y002533D02*
X012483Y002533D01*
X012553Y002632D02*
X012690Y002632D01*
X012630Y002730D02*
X012575Y002730D01*
X013389Y002533D02*
X013559Y002533D01*
X013559Y002632D02*
X013490Y002632D01*
X013550Y002730D02*
X013559Y002730D01*
X013583Y002829D02*
X013637Y002829D01*
X014524Y002549D02*
X014524Y002489D01*
X014700Y002489D01*
X015211Y002336D02*
X018858Y002336D01*
X018886Y002435D02*
X019040Y002435D01*
X018943Y002533D02*
X019140Y002533D01*
X019212Y002632D02*
X018943Y002632D01*
X018943Y002730D02*
X019247Y002730D01*
X019279Y002829D02*
X018390Y002829D01*
X018390Y002919D02*
X018943Y002919D01*
X018943Y003204D01*
X018933Y003242D01*
X018913Y003276D01*
X018885Y003304D01*
X018851Y003324D01*
X018813Y003334D01*
X018390Y003334D01*
X018390Y002919D01*
X018390Y002927D02*
X018290Y002927D01*
X018290Y003026D02*
X018390Y003026D01*
X018390Y003124D02*
X018290Y003124D01*
X018290Y003223D02*
X018390Y003223D01*
X018390Y003321D02*
X018290Y003321D01*
X018856Y003321D02*
X019286Y003321D01*
X019286Y003223D02*
X018938Y003223D01*
X018943Y003124D02*
X019286Y003124D01*
X019286Y003026D02*
X018943Y003026D01*
X018943Y002927D02*
X019286Y002927D01*
X016440Y004405D02*
X015690Y004405D01*
X015690Y004306D02*
X015849Y004306D01*
X015715Y004208D02*
X015636Y004208D01*
X015064Y004208D02*
X014836Y004208D01*
X014890Y004306D02*
X015010Y004306D01*
X015010Y004405D02*
X014890Y004405D01*
X014890Y004569D02*
X014595Y004569D01*
X014595Y004874D01*
X014760Y004874D01*
X014798Y004864D01*
X014832Y004844D01*
X014860Y004816D01*
X014880Y004782D01*
X014890Y004743D01*
X014890Y004569D01*
X014890Y004602D02*
X015010Y004602D01*
X015010Y004700D02*
X014890Y004700D01*
X014870Y004799D02*
X015030Y004799D01*
X015040Y004996D02*
X015130Y004996D01*
X015130Y005094D02*
X015040Y005094D01*
X015040Y005193D02*
X015130Y005193D01*
X015040Y005291D02*
X014482Y005291D01*
X014482Y005280D02*
X014482Y005358D01*
X014405Y005358D01*
X014405Y005725D01*
X014246Y005725D01*
X014208Y005715D01*
X014174Y005695D01*
X014146Y005667D01*
X014126Y005633D01*
X014116Y005595D01*
X014116Y005358D01*
X014405Y005358D01*
X014405Y005280D01*
X014482Y005280D01*
X014405Y005280D02*
X014405Y004913D01*
X014246Y004913D01*
X014208Y004923D01*
X014174Y004943D01*
X014146Y004971D01*
X014126Y005005D01*
X014116Y005043D01*
X014116Y005280D01*
X014405Y005280D01*
X014405Y005291D02*
X013984Y005291D01*
X013984Y005193D02*
X014116Y005193D01*
X014116Y005094D02*
X013984Y005094D01*
X013978Y004996D02*
X014132Y004996D01*
X014230Y004799D02*
X014001Y004799D01*
X013919Y004897D02*
X016110Y004897D01*
X016110Y004799D02*
X015670Y004799D01*
X015660Y004816D02*
X015632Y004844D01*
X015598Y004864D01*
X015560Y004874D01*
X015395Y004874D01*
X015395Y004569D01*
X015690Y004569D01*
X015690Y004743D01*
X015680Y004782D01*
X015660Y004816D01*
X015690Y004700D02*
X016110Y004700D01*
X016145Y004602D02*
X015690Y004602D01*
X015395Y004602D02*
X015305Y004602D01*
X015305Y004700D02*
X015395Y004700D01*
X015395Y004799D02*
X015305Y004799D01*
X015410Y004996D02*
X015426Y004996D01*
X015755Y005269D02*
X015755Y005802D01*
X015784Y005873D02*
X015850Y005939D01*
X016180Y005939D01*
X016196Y005955D01*
X016444Y005784D02*
X016560Y005784D01*
X016560Y005685D02*
X015955Y005685D01*
X016039Y005587D02*
X016566Y005587D01*
X016540Y005882D02*
X016504Y005882D01*
X016443Y006211D02*
X016900Y005854D01*
X017700Y005854D01*
X017366Y005587D02*
X017234Y005587D01*
X016981Y004996D02*
X016909Y004996D01*
X015555Y005685D02*
X014723Y005685D01*
X014713Y005695D02*
X014741Y005667D01*
X014761Y005633D01*
X014771Y005595D01*
X014771Y005557D01*
X014793Y005579D01*
X014827Y005599D01*
X014866Y005609D01*
X015040Y005609D01*
X015040Y005314D01*
X014735Y005314D01*
X014735Y005358D01*
X014482Y005358D01*
X014482Y005725D01*
X014641Y005725D01*
X014679Y005715D01*
X014713Y005695D01*
X014749Y005784D02*
X015555Y005784D01*
X015555Y005882D02*
X014810Y005882D01*
X014811Y005981D02*
X015526Y005981D01*
X015427Y006079D02*
X014791Y006079D01*
X014811Y006178D02*
X015350Y006178D01*
X015350Y006276D02*
X014811Y006276D01*
X014811Y006375D02*
X015350Y006375D01*
X015350Y006473D02*
X014811Y006473D01*
X014811Y006572D02*
X015350Y006572D01*
X015350Y006670D02*
X014811Y006670D01*
X014811Y006769D02*
X015350Y006769D01*
X015350Y006867D02*
X014778Y006867D01*
X014704Y006966D02*
X015350Y006966D01*
X015550Y006889D02*
X015550Y006239D01*
X015850Y005939D01*
X015784Y005873D02*
X015772Y005858D01*
X015763Y005840D01*
X015757Y005822D01*
X015755Y005802D01*
X015470Y005587D02*
X015365Y005587D01*
X015130Y005587D02*
X015040Y005587D01*
X015040Y005488D02*
X015130Y005488D01*
X015130Y005390D02*
X015040Y005390D01*
X014806Y005587D02*
X014771Y005587D01*
X014482Y005587D02*
X014405Y005587D01*
X014405Y005685D02*
X014482Y005685D01*
X014504Y005784D02*
X014504Y005784D01*
X014504Y005882D02*
X014504Y005882D01*
X014504Y005955D02*
X014196Y005955D01*
X014504Y005955D01*
X014504Y005955D01*
X014258Y005784D02*
X013940Y005784D01*
X013940Y005882D02*
X014197Y005882D01*
X014196Y005981D02*
X013940Y005981D01*
X013600Y005934D02*
X013600Y005604D01*
X013656Y005319D01*
X013329Y005291D02*
X013140Y005291D01*
X013140Y005390D02*
X013329Y005390D01*
X013329Y005488D02*
X012845Y005488D01*
X012755Y005488D02*
X008186Y005488D01*
X008207Y005390D02*
X012460Y005390D01*
X012460Y005409D02*
X012460Y005235D01*
X012470Y005197D01*
X012490Y005162D01*
X012518Y005134D01*
X012552Y005115D01*
X012590Y005104D01*
X012755Y005104D01*
X012755Y005409D01*
X012460Y005409D01*
X012460Y005291D02*
X008234Y005291D01*
X008282Y005193D02*
X012473Y005193D01*
X012755Y005193D02*
X012845Y005193D01*
X012845Y005291D02*
X012755Y005291D01*
X012755Y005390D02*
X012845Y005390D01*
X013127Y005193D02*
X013329Y005193D01*
X013329Y005094D02*
X008318Y005094D01*
X008166Y005587D02*
X012460Y005587D01*
X013066Y005784D02*
X013260Y005784D01*
X013260Y005882D02*
X013140Y005882D01*
X013140Y005981D02*
X013260Y005981D01*
X013260Y005685D02*
X013137Y005685D01*
X013140Y005587D02*
X013329Y005587D01*
X013940Y005685D02*
X014164Y005685D01*
X014116Y005587D02*
X013984Y005587D01*
X013984Y005488D02*
X014116Y005488D01*
X014116Y005390D02*
X013984Y005390D01*
X014405Y005390D02*
X014482Y005390D01*
X014482Y005488D02*
X014405Y005488D01*
X014405Y005193D02*
X014482Y005193D01*
X014482Y005094D02*
X014405Y005094D01*
X014405Y004996D02*
X014482Y004996D01*
X014505Y004799D02*
X014595Y004799D01*
X014595Y004700D02*
X014505Y004700D01*
X014505Y004602D02*
X014595Y004602D01*
X014210Y004405D02*
X014006Y004405D01*
X013969Y004306D02*
X014210Y004306D01*
X014264Y004208D02*
X011886Y004208D01*
X011940Y004306D02*
X012231Y004306D01*
X012194Y004405D02*
X011940Y004405D01*
X011940Y004503D02*
X012194Y004503D01*
X011940Y004602D02*
X012561Y004602D01*
X012639Y004602D02*
X013561Y004602D01*
X013561Y004700D02*
X013639Y004700D01*
X013639Y004799D02*
X013561Y004799D01*
X013561Y004897D02*
X013639Y004897D01*
X012639Y004897D02*
X012561Y004897D01*
X012561Y004799D02*
X012639Y004799D01*
X012639Y004700D02*
X012561Y004700D01*
X012281Y004897D02*
X009561Y004897D01*
X009659Y004799D02*
X011273Y004799D01*
X011927Y004799D02*
X012199Y004799D01*
X012194Y004700D02*
X011940Y004700D01*
X012561Y004503D02*
X012639Y004503D01*
X012639Y004405D02*
X012561Y004405D01*
X012561Y004306D02*
X012639Y004306D01*
X012932Y004109D02*
X013268Y004109D01*
X013932Y004109D02*
X014210Y004109D01*
X014890Y004109D02*
X015010Y004109D01*
X014760Y004996D02*
X014755Y004996D01*
X012945Y006269D02*
X012800Y006124D01*
X012460Y006178D02*
X012243Y006178D01*
X012328Y006276D02*
X012460Y006276D01*
X012460Y006375D02*
X012328Y006375D01*
X012328Y006473D02*
X012547Y006473D01*
X012376Y006572D02*
X013260Y006572D01*
X013260Y006670D02*
X012475Y006670D01*
X012120Y006966D02*
X011960Y006966D01*
X011862Y007064D02*
X012218Y007064D01*
X012317Y007163D02*
X011763Y007163D01*
X011665Y007261D02*
X012415Y007261D01*
X012460Y007360D02*
X011585Y007360D01*
X011588Y007458D02*
X012513Y007458D01*
X012176Y007557D02*
X011588Y007557D01*
X011588Y007655D02*
X011816Y007655D01*
X011752Y007754D02*
X011588Y007754D01*
X011588Y007852D02*
X011752Y007852D01*
X011752Y007951D02*
X011588Y007951D01*
X011683Y008049D02*
X009418Y008049D01*
X009418Y008148D02*
X011585Y008148D01*
X011486Y008246D02*
X009418Y008246D01*
X009383Y008345D02*
X011388Y008345D01*
X011289Y008443D02*
X009284Y008443D01*
X009231Y008542D02*
X011191Y008542D01*
X011092Y008640D02*
X009224Y008640D01*
X009133Y008739D02*
X011070Y008739D01*
X011012Y008837D02*
X009051Y008837D01*
X008969Y008936D02*
X011012Y008936D01*
X011012Y009034D02*
X008887Y009034D01*
X008805Y009133D02*
X008978Y009133D01*
X008899Y009231D02*
X008779Y009231D01*
X008840Y009330D02*
X008894Y009330D01*
X008865Y009428D02*
X009261Y009428D01*
X009339Y009428D02*
X010111Y009428D01*
X010111Y009407D02*
X009744Y009407D01*
X009744Y009248D01*
X009754Y009210D01*
X009774Y009176D01*
X009802Y009148D01*
X009836Y009128D01*
X009874Y009118D01*
X010111Y009118D01*
X010111Y009407D01*
X010111Y009484D01*
X009744Y009484D01*
X009744Y009643D01*
X009754Y009681D01*
X009774Y009715D01*
X009802Y009743D01*
X009836Y009763D01*
X009874Y009773D01*
X010111Y009773D01*
X010111Y009484D01*
X010189Y009484D01*
X010556Y009484D01*
X010556Y009643D01*
X010546Y009681D01*
X010526Y009715D01*
X010498Y009743D01*
X010464Y009763D01*
X010426Y009773D01*
X010189Y009773D01*
X010189Y009484D01*
X010189Y009407D01*
X010556Y009407D01*
X010556Y009248D01*
X010546Y009210D01*
X010526Y009176D01*
X010498Y009148D01*
X010464Y009128D01*
X010426Y009118D01*
X010189Y009118D01*
X010189Y009407D01*
X010111Y009407D01*
X010111Y009330D02*
X010189Y009330D01*
X010189Y009428D02*
X011025Y009428D01*
X011012Y009330D02*
X010556Y009330D01*
X010551Y009231D02*
X011012Y009231D01*
X011012Y009133D02*
X010472Y009133D01*
X010189Y009133D02*
X010111Y009133D01*
X010111Y009231D02*
X010189Y009231D01*
X009828Y009133D02*
X009622Y009133D01*
X009614Y009128D02*
X009648Y009148D01*
X009676Y009176D01*
X009696Y009210D01*
X009706Y009248D01*
X009706Y009407D01*
X009339Y009407D01*
X009339Y009118D01*
X009576Y009118D01*
X009614Y009128D01*
X009701Y009231D02*
X009749Y009231D01*
X009744Y009330D02*
X009706Y009330D01*
X009339Y009330D02*
X009261Y009330D01*
X009261Y009231D02*
X009339Y009231D01*
X009339Y009133D02*
X009261Y009133D01*
X009261Y009527D02*
X009339Y009527D01*
X009339Y009625D02*
X009261Y009625D01*
X009261Y009724D02*
X009339Y009724D01*
X009232Y009822D02*
X010517Y009822D01*
X010517Y009724D02*
X010583Y009724D01*
X010556Y009625D02*
X011417Y009625D01*
X011515Y009527D02*
X010556Y009527D01*
X010189Y009527D02*
X010111Y009527D01*
X010111Y009625D02*
X010189Y009625D01*
X010189Y009724D02*
X010111Y009724D01*
X009817Y009921D02*
X009633Y009921D01*
X009706Y010019D02*
X009744Y010019D01*
X009744Y010118D02*
X009706Y010118D01*
X009706Y010216D02*
X009744Y010216D01*
X009744Y010315D02*
X009706Y010315D01*
X009706Y010413D02*
X009744Y010413D01*
X009783Y010512D02*
X009690Y010512D01*
X009010Y010610D02*
X008006Y010610D01*
X008006Y010512D02*
X008188Y010512D01*
X008160Y010413D02*
X008006Y010413D01*
X007934Y010315D02*
X008160Y010315D01*
X008160Y010118D02*
X007289Y010118D01*
X007245Y010216D02*
X008455Y010216D01*
X008545Y010216D02*
X008894Y010216D01*
X008840Y010269D02*
X008840Y010443D01*
X008830Y010482D01*
X008810Y010516D01*
X008782Y010544D01*
X008748Y010564D01*
X008710Y010574D01*
X008545Y010574D01*
X008545Y010269D01*
X008840Y010269D01*
X008840Y010315D02*
X008894Y010315D01*
X008894Y010413D02*
X008840Y010413D01*
X008812Y010512D02*
X008933Y010512D01*
X008545Y010512D02*
X008455Y010512D01*
X008455Y010413D02*
X008545Y010413D01*
X008545Y010315D02*
X008455Y010315D01*
X008160Y010019D02*
X007974Y010019D01*
X008006Y009921D02*
X008201Y009921D01*
X008166Y009822D02*
X007629Y009822D01*
X007629Y009767D02*
X008006Y009767D01*
X008006Y009652D01*
X007993Y009604D01*
X007968Y009561D01*
X007933Y009526D01*
X007890Y009501D01*
X007841Y009488D01*
X007629Y009488D01*
X007629Y009767D01*
X007629Y009724D02*
X007571Y009724D01*
X007571Y009625D02*
X007629Y009625D01*
X007629Y009527D02*
X007571Y009527D01*
X007361Y009428D02*
X008160Y009428D01*
X008160Y009330D02*
X007788Y009330D01*
X007889Y009231D02*
X008221Y009231D01*
X007925Y009144D02*
X007925Y009034D01*
X007884Y008936D02*
X008370Y008936D01*
X008452Y008837D02*
X007760Y008837D01*
X007718Y008739D02*
X008534Y008739D01*
X008616Y008640D02*
X007620Y008640D01*
X007521Y008542D02*
X008699Y008542D01*
X008732Y008443D02*
X007441Y008443D01*
X007441Y008345D02*
X008634Y008345D01*
X008598Y008246D02*
X007423Y008246D01*
X007382Y008148D02*
X008598Y008148D01*
X008598Y008049D02*
X007288Y008049D01*
X007026Y007951D02*
X008617Y007951D01*
X008715Y007852D02*
X006983Y007852D01*
X006884Y007754D02*
X008814Y007754D01*
X009203Y007754D02*
X011012Y007754D01*
X011012Y007852D02*
X009301Y007852D01*
X009400Y007951D02*
X011012Y007951D01*
X011012Y007655D02*
X006786Y007655D01*
X006687Y007557D02*
X011012Y007557D01*
X011012Y007458D02*
X008269Y007458D01*
X008368Y007360D02*
X011015Y007360D01*
X011070Y007261D02*
X008418Y007261D01*
X008418Y007163D02*
X011113Y007163D01*
X011211Y007064D02*
X010350Y007064D01*
X010449Y006966D02*
X011310Y006966D01*
X011408Y006867D02*
X010547Y006867D01*
X010646Y006769D02*
X011507Y006769D01*
X011605Y006670D02*
X010744Y006670D01*
X010843Y006572D02*
X011704Y006572D01*
X011752Y006473D02*
X010941Y006473D01*
X011040Y006375D02*
X011752Y006375D01*
X011752Y006276D02*
X011138Y006276D01*
X011237Y006178D02*
X011837Y006178D01*
X011335Y006079D02*
X012430Y006079D01*
X012945Y006269D02*
X013265Y006269D01*
X014180Y006269D01*
X014278Y006211D01*
X014504Y006211D01*
X014504Y006467D02*
X014501Y006469D01*
X014300Y006469D01*
X014165Y006604D01*
X013600Y006604D01*
X013600Y007104D01*
X012800Y007104D01*
X013140Y006867D02*
X013260Y006867D01*
X013260Y006769D02*
X013066Y006769D01*
X013053Y006473D02*
X013260Y006473D01*
X014300Y007089D02*
X014300Y007354D01*
X014265Y007389D01*
X013983Y007672D01*
X014100Y007789D01*
X014100Y007889D01*
X013983Y007672D02*
X013881Y007774D01*
X013600Y007774D01*
X012800Y007774D01*
X013140Y007974D02*
X013140Y008036D01*
X013052Y008124D01*
X012548Y008124D01*
X012460Y008036D01*
X012460Y008004D01*
X012379Y008004D01*
X012328Y008055D01*
X012328Y008224D01*
X012822Y008224D01*
X012910Y008312D01*
X012910Y008439D01*
X013165Y008439D01*
X013165Y008387D01*
X013253Y008299D01*
X013777Y008299D01*
X013850Y008372D01*
X013923Y008299D01*
X014373Y008299D01*
X014510Y008162D01*
X014510Y007842D01*
X014598Y007754D01*
X015102Y007754D01*
X015190Y007842D01*
X015190Y007981D01*
X015231Y008022D01*
X015310Y008101D01*
X015310Y007792D01*
X015373Y007729D01*
X015203Y007729D01*
X015200Y007726D01*
X015197Y007729D01*
X014673Y007729D01*
X014600Y007657D01*
X014527Y007729D01*
X014467Y007729D01*
X014500Y007810D01*
X014500Y007969D01*
X014439Y008116D01*
X014327Y008228D01*
X014180Y008289D01*
X014020Y008289D01*
X013873Y008228D01*
X013769Y008124D01*
X013348Y008124D01*
X013260Y008036D01*
X013260Y007974D01*
X013140Y007974D01*
X013127Y008049D02*
X013273Y008049D01*
X013208Y008345D02*
X012910Y008345D01*
X012844Y008246D02*
X013917Y008246D01*
X013877Y008345D02*
X013823Y008345D01*
X013793Y008148D02*
X012328Y008148D01*
X012334Y008049D02*
X012473Y008049D01*
X012230Y008443D02*
X011940Y008443D01*
X011841Y008542D02*
X012230Y008542D01*
X012230Y008640D02*
X011743Y008640D01*
X011644Y008739D02*
X012230Y008739D01*
X012231Y008837D02*
X011588Y008837D01*
X011588Y008936D02*
X012276Y008936D01*
X012230Y009034D02*
X011588Y009034D01*
X011588Y009133D02*
X012230Y009133D01*
X012230Y009330D02*
X011588Y009330D01*
X011575Y009428D02*
X012230Y009428D01*
X012525Y009428D02*
X012615Y009428D01*
X012615Y009330D02*
X012525Y009330D01*
X012525Y009231D02*
X011588Y009231D01*
X011248Y009724D02*
X011148Y009724D01*
X010910Y009724D02*
X010820Y009724D01*
X010820Y009822D02*
X010910Y009822D01*
X010910Y009921D02*
X010820Y009921D01*
X010515Y009921D02*
X010483Y009921D01*
X010820Y010084D02*
X010820Y010379D01*
X010646Y010379D01*
X010607Y010369D01*
X010573Y010349D01*
X010556Y010332D01*
X010556Y010472D01*
X010514Y010514D01*
X010610Y010514D01*
X010610Y010482D01*
X010698Y010394D01*
X011202Y010394D01*
X011290Y010482D01*
X011290Y010514D01*
X011410Y010514D01*
X011410Y010482D01*
X011498Y010394D01*
X011798Y010394D01*
X011813Y010379D01*
X011803Y010379D01*
X011800Y010376D01*
X011797Y010379D01*
X011273Y010379D01*
X011196Y010303D01*
X011185Y010321D01*
X011157Y010349D01*
X011123Y010369D01*
X011085Y010379D01*
X010910Y010379D01*
X010910Y010084D01*
X010820Y010084D01*
X010820Y010118D02*
X010910Y010118D01*
X010910Y010216D02*
X010820Y010216D01*
X010820Y010315D02*
X010910Y010315D01*
X010679Y010413D02*
X010556Y010413D01*
X010517Y010512D02*
X010610Y010512D01*
X011189Y010315D02*
X011208Y010315D01*
X011221Y010413D02*
X011479Y010413D01*
X011410Y010512D02*
X011290Y010512D01*
X011290Y011300D02*
X011410Y011300D01*
X011705Y011398D02*
X010995Y011398D01*
X010995Y011459D02*
X011290Y011459D01*
X011290Y011633D01*
X011280Y011672D01*
X011260Y011706D01*
X011232Y011734D01*
X011198Y011754D01*
X011160Y011764D01*
X010995Y011764D01*
X010995Y011459D01*
X010995Y011497D02*
X010905Y011497D01*
X010905Y011595D02*
X010995Y011595D01*
X010995Y011694D02*
X010905Y011694D01*
X010633Y011694D02*
X010467Y011694D01*
X010460Y011706D02*
X010432Y011734D01*
X010398Y011754D01*
X010360Y011764D01*
X010195Y011764D01*
X010195Y011459D01*
X010490Y011459D01*
X010490Y011633D01*
X010480Y011672D01*
X010460Y011706D01*
X010490Y011595D02*
X010610Y011595D01*
X010610Y011497D02*
X010490Y011497D01*
X010195Y011497D02*
X010105Y011497D01*
X010105Y011595D02*
X010195Y011595D01*
X010195Y011694D02*
X010105Y011694D01*
X009833Y011694D02*
X009667Y011694D01*
X009660Y011706D02*
X009632Y011734D01*
X009598Y011754D01*
X009560Y011764D01*
X009395Y011764D01*
X009395Y011459D01*
X009690Y011459D01*
X009690Y011633D01*
X009680Y011672D01*
X009660Y011706D01*
X009690Y011595D02*
X009810Y011595D01*
X009810Y011497D02*
X009690Y011497D01*
X009395Y011497D02*
X009305Y011497D01*
X009305Y011595D02*
X009395Y011595D01*
X009395Y011694D02*
X009305Y011694D01*
X009033Y011694D02*
X000414Y011694D01*
X000374Y011639D02*
X000374Y011639D01*
X000360Y011595D02*
X000957Y011595D01*
X001014Y011619D02*
X000856Y011554D01*
X000735Y011433D01*
X000670Y011275D01*
X000670Y011104D01*
X000735Y010946D01*
X000856Y010825D01*
X001014Y010759D01*
X001186Y010759D01*
X001344Y010825D01*
X001465Y010946D01*
X001530Y011104D01*
X001530Y011275D01*
X001465Y011433D01*
X001344Y011554D01*
X001186Y011619D01*
X001014Y011619D01*
X001243Y011595D02*
X009010Y011595D01*
X009010Y011497D02*
X001401Y011497D01*
X001479Y011398D02*
X003388Y011398D01*
X003290Y011300D02*
X001520Y011300D01*
X001530Y011201D02*
X003191Y011201D01*
X003093Y011103D02*
X001530Y011103D01*
X001489Y011004D02*
X003041Y011004D01*
X002896Y010906D02*
X002443Y010906D01*
X002421Y010928D02*
X002387Y010947D01*
X002349Y010958D01*
X002309Y010958D01*
X002271Y010947D01*
X002237Y010928D01*
X002113Y010804D01*
X002322Y010595D01*
X002538Y010811D01*
X002421Y010928D01*
X002534Y010807D02*
X002797Y010807D01*
X002699Y010709D02*
X002640Y010709D01*
X002562Y010709D02*
X002435Y010709D01*
X002464Y010610D02*
X002337Y010610D01*
X002307Y010610D02*
X002180Y010610D01*
X002209Y010709D02*
X002082Y010709D01*
X002018Y010709D02*
X000305Y010709D01*
X000305Y010807D02*
X000899Y010807D01*
X000775Y010906D02*
X000305Y010906D01*
X000305Y011004D02*
X000711Y011004D01*
X000670Y011103D02*
X000305Y011103D01*
X000305Y011201D02*
X000670Y011201D01*
X000680Y011300D02*
X000305Y011300D01*
X000309Y011398D02*
X000721Y011398D01*
X000799Y011497D02*
X000328Y011497D01*
X000485Y011792D02*
X013350Y011792D01*
X013350Y011694D02*
X012867Y011694D01*
X012860Y011706D02*
X012832Y011734D01*
X012798Y011754D01*
X012760Y011764D01*
X012595Y011764D01*
X012595Y011459D01*
X012890Y011459D01*
X012890Y011633D01*
X012880Y011672D01*
X012860Y011706D01*
X012890Y011595D02*
X013385Y011595D01*
X013468Y011497D02*
X012890Y011497D01*
X012595Y011497D02*
X012505Y011497D01*
X012505Y011595D02*
X012595Y011595D01*
X012595Y011694D02*
X012505Y011694D01*
X012233Y011694D02*
X012067Y011694D01*
X012060Y011706D02*
X012032Y011734D01*
X011998Y011754D01*
X011960Y011764D01*
X011795Y011764D01*
X011795Y011459D01*
X012090Y011459D01*
X012090Y011633D01*
X012080Y011672D01*
X012060Y011706D01*
X012090Y011595D02*
X012210Y011595D01*
X012210Y011497D02*
X012090Y011497D01*
X011795Y011497D02*
X011705Y011497D01*
X011705Y011595D02*
X011795Y011595D01*
X011795Y011694D02*
X011705Y011694D01*
X011433Y011694D02*
X011267Y011694D01*
X011290Y011595D02*
X011410Y011595D01*
X011410Y011497D02*
X011290Y011497D01*
X010905Y011398D02*
X010195Y011398D01*
X010105Y011398D02*
X009395Y011398D01*
X009305Y011398D02*
X003559Y011398D01*
X003658Y011300D02*
X005103Y011300D01*
X005028Y011201D02*
X003756Y011201D01*
X003467Y010996D02*
X004626Y010996D01*
X004697Y010966D02*
X004837Y010826D01*
X004724Y010939D01*
X004500Y010939D01*
X004450Y010839D01*
X004450Y010239D01*
X003800Y009589D01*
X003800Y009403D01*
X004012Y009191D01*
X004550Y008889D02*
X004550Y007939D01*
X004750Y008049D02*
X004751Y008049D01*
X004835Y007951D02*
X005560Y007951D01*
X005560Y008049D02*
X005149Y008049D01*
X005210Y008148D02*
X005560Y008148D01*
X005560Y008246D02*
X005225Y008246D01*
X005204Y008345D02*
X005560Y008345D01*
X005470Y008443D02*
X005160Y008443D01*
X005160Y008542D02*
X005372Y008542D01*
X005273Y008640D02*
X005160Y008640D01*
X005160Y008739D02*
X005175Y008739D01*
X005734Y008745D02*
X005806Y008745D01*
X006100Y009039D01*
X006400Y009039D01*
X006800Y009439D01*
X006800Y009704D01*
X006950Y009854D01*
X007571Y009921D02*
X007629Y009921D01*
X007629Y010019D02*
X007571Y010019D01*
X008006Y009724D02*
X008160Y009724D01*
X008160Y009625D02*
X007999Y009625D01*
X007934Y009527D02*
X008160Y009527D01*
X007512Y009330D02*
X007375Y009330D01*
X007371Y009231D02*
X007411Y009231D01*
X006918Y009039D02*
X006684Y008805D01*
X007062Y008389D02*
X007041Y008367D01*
X005963Y007951D02*
X005940Y007951D01*
X005940Y007852D02*
X006061Y007852D01*
X006030Y007754D02*
X006160Y007754D01*
X006173Y007655D02*
X006258Y007655D01*
X006220Y007557D02*
X006357Y007557D01*
X006455Y007458D02*
X006225Y007458D01*
X006194Y007360D02*
X006395Y007360D01*
X006296Y007261D02*
X006111Y007261D01*
X006198Y007163D02*
X005029Y007163D01*
X004931Y007261D02*
X005789Y007261D01*
X005706Y007360D02*
X004832Y007360D01*
X005058Y007458D02*
X005675Y007458D01*
X005614Y007557D02*
X005113Y007557D01*
X005125Y007655D02*
X005560Y007655D01*
X005560Y007754D02*
X005100Y007754D01*
X005026Y007852D02*
X005560Y007852D01*
X006589Y007458D02*
X007747Y007458D01*
X007649Y007360D02*
X006649Y007360D01*
X006748Y007261D02*
X007598Y007261D01*
X007598Y007163D02*
X006846Y007163D01*
X006945Y007064D02*
X007598Y007064D01*
X007602Y006966D02*
X007026Y006966D01*
X007041Y006867D02*
X007700Y006867D01*
X007799Y006769D02*
X007139Y006769D01*
X007238Y006670D02*
X008152Y006670D01*
X008762Y006473D02*
X007435Y006473D01*
X007533Y006375D02*
X008664Y006375D01*
X008598Y006309D02*
X008598Y006169D01*
X008978Y006169D01*
X008978Y006109D01*
X008598Y006109D01*
X008598Y005969D01*
X008838Y005729D01*
X008978Y005729D01*
X008978Y006109D01*
X009038Y006109D01*
X009038Y005729D01*
X009178Y005729D01*
X009418Y005969D01*
X009418Y006109D01*
X009038Y006109D01*
X009038Y006169D01*
X008978Y006169D01*
X008978Y006549D01*
X008838Y006549D01*
X008598Y006309D01*
X008598Y006276D02*
X007632Y006276D01*
X007730Y006178D02*
X008598Y006178D01*
X008598Y006079D02*
X007829Y006079D01*
X007927Y005981D02*
X008598Y005981D01*
X008685Y005882D02*
X008026Y005882D01*
X008124Y005784D02*
X008784Y005784D01*
X008978Y005784D02*
X009038Y005784D01*
X009038Y005882D02*
X008978Y005882D01*
X008978Y005981D02*
X009038Y005981D01*
X009038Y006079D02*
X008978Y006079D01*
X008978Y006178D02*
X009038Y006178D01*
X009038Y006169D02*
X009038Y006549D01*
X009178Y006549D01*
X009418Y006309D01*
X009418Y006169D01*
X009038Y006169D01*
X009038Y006276D02*
X008978Y006276D01*
X008978Y006375D02*
X009038Y006375D01*
X009038Y006473D02*
X008978Y006473D01*
X009254Y006473D02*
X010291Y006473D01*
X010389Y006375D02*
X009353Y006375D01*
X009418Y006276D02*
X010488Y006276D01*
X010586Y006178D02*
X009418Y006178D01*
X009418Y006079D02*
X010685Y006079D01*
X010783Y005981D02*
X009418Y005981D01*
X009331Y005882D02*
X010882Y005882D01*
X010980Y005784D02*
X009233Y005784D01*
X008145Y005685D02*
X011079Y005685D01*
X010192Y006572D02*
X007336Y006572D01*
X006363Y006069D02*
X006236Y006069D01*
X006237Y006071D01*
X005956Y006352D01*
X005960Y006355D01*
X006241Y006074D01*
X006299Y006133D01*
X006363Y006069D01*
X006353Y006079D02*
X006246Y006079D01*
X006236Y006079D02*
X006229Y006079D01*
X006138Y006178D02*
X006131Y006178D01*
X006039Y006276D02*
X006032Y006276D01*
X005941Y006375D02*
X005934Y006375D01*
X005842Y006473D02*
X005835Y006473D01*
X005744Y006572D02*
X005737Y006572D01*
X005705Y006670D02*
X005522Y006670D01*
X005423Y006769D02*
X005804Y006769D01*
X005902Y006867D02*
X005325Y006867D01*
X006223Y007188D02*
X006223Y007188D01*
X005114Y006079D02*
X004809Y006079D01*
X004871Y005981D02*
X005016Y005981D01*
X004917Y005882D02*
X004870Y005882D01*
X003544Y006133D02*
X003050Y005639D01*
X003050Y005089D01*
X003350Y004789D01*
X003556Y004789D01*
X003706Y004589D01*
X005512Y004996D02*
X005710Y004996D01*
X005710Y005094D02*
X005490Y005094D01*
X005611Y004897D02*
X005731Y004897D01*
X005742Y004799D02*
X005709Y004799D01*
X006358Y004799D02*
X006420Y004799D01*
X006420Y004897D02*
X006369Y004897D01*
X006390Y004996D02*
X006420Y004996D01*
X006420Y005094D02*
X006390Y005094D01*
X007584Y004503D02*
X007601Y004503D01*
X008072Y004306D02*
X008191Y004306D01*
X008559Y002730D02*
X008641Y002730D01*
X008694Y002632D02*
X008506Y002632D01*
X008407Y002533D02*
X008793Y002533D01*
X009407Y002533D02*
X009793Y002533D01*
X009694Y002632D02*
X009506Y002632D01*
X009559Y002730D02*
X009641Y002730D01*
X010407Y002533D02*
X010793Y002533D01*
X010694Y002632D02*
X010506Y002632D01*
X010559Y002730D02*
X010641Y002730D01*
X011407Y002533D02*
X011667Y002533D01*
X011597Y002632D02*
X011506Y002632D01*
X011559Y002730D02*
X011575Y002730D01*
X011940Y004109D02*
X012268Y004109D01*
X015850Y006289D02*
X015928Y006211D01*
X016196Y006211D01*
X016443Y006211D01*
X016196Y006467D02*
X016743Y006467D01*
X016900Y006524D01*
X017285Y006424D01*
X017300Y006539D01*
X017450Y006589D01*
X017450Y008589D01*
X018119Y008246D02*
X018270Y008246D01*
X018270Y008148D02*
X018135Y008148D01*
X018135Y008049D02*
X018270Y008049D01*
X017830Y007852D02*
X017740Y007852D01*
X017740Y007754D02*
X017830Y007754D01*
X017830Y007655D02*
X017740Y007655D01*
X018112Y007458D02*
X018270Y007458D01*
X018270Y007360D02*
X018135Y007360D01*
X018135Y007261D02*
X018270Y007261D01*
X017115Y007189D02*
X016800Y007189D01*
X016334Y006723D01*
X016150Y007139D02*
X015850Y006839D01*
X015850Y006289D01*
X015550Y006889D02*
X015800Y007139D01*
X015800Y007789D01*
X015650Y007939D01*
X015650Y008054D01*
X015310Y008049D02*
X015258Y008049D01*
X015231Y008022D02*
X015231Y008022D01*
X015190Y007951D02*
X015310Y007951D01*
X015310Y007852D02*
X015190Y007852D01*
X015349Y007754D02*
X014477Y007754D01*
X014500Y007852D02*
X014510Y007852D01*
X014500Y007951D02*
X014510Y007951D01*
X014510Y008049D02*
X014467Y008049D01*
X014510Y008148D02*
X014407Y008148D01*
X014425Y008246D02*
X014283Y008246D01*
X014315Y008639D02*
X014850Y008104D01*
X015031Y008104D01*
X015650Y008724D01*
X016035Y009139D02*
X016450Y008724D01*
X016035Y009139D02*
X015000Y009139D01*
X015185Y009324D01*
X015085Y009439D01*
X015026Y009498D01*
X015026Y009983D01*
X015400Y009889D02*
X015700Y009589D01*
X015480Y009527D02*
X015435Y009527D01*
X015435Y009428D02*
X015578Y009428D01*
X015185Y009525D02*
X015085Y009439D01*
X015000Y009139D02*
X014850Y008989D01*
X014850Y008774D01*
X014510Y008916D02*
X014447Y008979D01*
X014105Y008979D01*
X014105Y009099D01*
X014167Y009099D01*
X014173Y009105D01*
X014196Y009099D01*
X014370Y009099D01*
X014370Y009394D01*
X014460Y009394D01*
X014460Y009099D01*
X014573Y009099D01*
X014510Y009036D01*
X014510Y008916D01*
X014510Y008936D02*
X014490Y008936D01*
X014510Y009034D02*
X014105Y009034D01*
X013905Y009028D02*
X013515Y008639D01*
X012835Y008639D01*
X012570Y008574D01*
X012907Y008839D02*
X012834Y008913D01*
X012852Y008924D01*
X012880Y008952D01*
X012900Y008986D01*
X012910Y009024D01*
X012910Y009166D01*
X012915Y009157D01*
X012943Y009129D01*
X012977Y009109D01*
X013016Y009099D01*
X013190Y009099D01*
X013190Y009394D01*
X013280Y009394D01*
X013280Y009099D01*
X013455Y009099D01*
X013493Y009109D01*
X013527Y009129D01*
X013555Y009157D01*
X013566Y009176D01*
X013643Y009099D01*
X013693Y009099D01*
X013573Y008979D01*
X013253Y008979D01*
X013165Y008891D01*
X013165Y008839D01*
X012907Y008839D01*
X012864Y008936D02*
X013210Y008936D01*
X012910Y009034D02*
X013628Y009034D01*
X013609Y009133D02*
X013531Y009133D01*
X013280Y009133D02*
X013190Y009133D01*
X013190Y009231D02*
X013280Y009231D01*
X013280Y009330D02*
X013190Y009330D01*
X012940Y009133D02*
X012910Y009133D01*
X012615Y009527D02*
X012525Y009527D01*
X012545Y009552D02*
X012545Y009552D01*
X012618Y009625D02*
X012885Y009625D01*
X013905Y009439D02*
X014005Y010003D01*
X014174Y009983D01*
X014174Y010239D02*
X014174Y010239D01*
X014511Y010239D01*
X014511Y010148D01*
X014504Y010123D01*
X014511Y010116D01*
X014511Y009850D01*
X014423Y009762D01*
X014370Y009762D01*
X014370Y009484D01*
X014460Y009484D01*
X014460Y009779D01*
X014635Y009779D01*
X014673Y009769D01*
X014707Y009749D01*
X014735Y009721D01*
X014746Y009703D01*
X014806Y009762D01*
X014777Y009762D01*
X014689Y009850D01*
X014689Y010116D01*
X014696Y010123D01*
X014689Y010148D01*
X014689Y010239D01*
X015026Y010239D01*
X015026Y010239D01*
X014689Y010239D01*
X014689Y010275D01*
X014511Y010275D01*
X014511Y010239D01*
X014174Y010239D01*
X014511Y010216D02*
X014689Y010216D01*
X014690Y010118D02*
X014510Y010118D01*
X014511Y010019D02*
X014689Y010019D01*
X014689Y009921D02*
X014511Y009921D01*
X014483Y009822D02*
X014717Y009822D01*
X014733Y009724D02*
X014767Y009724D01*
X014460Y009724D02*
X014370Y009724D01*
X014370Y009625D02*
X014460Y009625D01*
X014460Y009527D02*
X014370Y009527D01*
X014370Y009330D02*
X014460Y009330D01*
X014460Y009231D02*
X014370Y009231D01*
X014370Y009133D02*
X014460Y009133D01*
X013905Y009028D02*
X013905Y009439D01*
X014185Y008639D02*
X014315Y008639D01*
X016127Y009330D02*
X016141Y009330D01*
X015400Y009889D02*
X015400Y010389D01*
X015294Y010495D01*
X015026Y010495D01*
X013973Y011004D02*
X017731Y011004D01*
X017720Y010906D02*
X017830Y010906D01*
X017857Y010807D02*
X017928Y010807D01*
X017956Y010709D02*
X018027Y010709D01*
X018054Y010610D02*
X018125Y010610D01*
X018153Y010512D02*
X018224Y010512D01*
X018180Y010413D02*
X018322Y010413D01*
X018400Y010315D02*
X018180Y010315D01*
X018180Y010216D02*
X018400Y010216D01*
X018400Y010118D02*
X018180Y010118D01*
X018180Y010019D02*
X018294Y010019D01*
X018196Y009921D02*
X018180Y009921D01*
X018045Y011398D02*
X019283Y011398D01*
X019286Y011352D02*
X019279Y011451D01*
X019217Y011639D01*
X019101Y011799D01*
X018941Y011915D01*
X018753Y011976D01*
X018654Y011984D01*
X015129Y011984D01*
X015204Y011909D01*
X015250Y011799D01*
X015250Y011743D01*
X015250Y011792D02*
X019106Y011792D01*
X019178Y011694D02*
X015299Y011694D01*
X015212Y011891D02*
X018975Y011891D01*
X019232Y011595D02*
X017848Y011595D01*
X017946Y011497D02*
X019264Y011497D01*
X013963Y011004D02*
X013186Y011004D01*
X013284Y010906D02*
X013720Y010906D01*
X013638Y010807D02*
X013383Y010807D01*
X012210Y011300D02*
X012090Y011300D01*
X011795Y011398D02*
X012505Y011398D01*
X013388Y011891D02*
X000617Y011891D01*
X001425Y010906D02*
X002215Y010906D01*
X002116Y010807D02*
X001301Y010807D01*
X001922Y010610D02*
X000305Y010610D01*
X000305Y010512D02*
X001896Y010512D01*
X001722Y010413D02*
X000305Y010413D01*
X000305Y010315D02*
X001624Y010315D01*
X001525Y010216D02*
X000305Y010216D01*
X000305Y010118D02*
X000727Y010118D01*
X000682Y010019D02*
X000305Y010019D01*
X000305Y009921D02*
X000682Y009921D01*
X000682Y009822D02*
X000305Y009822D01*
X000305Y009724D02*
X000682Y009724D01*
X000682Y009625D02*
X000305Y009625D01*
X000305Y009527D02*
X000749Y009527D01*
X000305Y009428D02*
X001429Y009428D01*
X001127Y009330D02*
X001049Y009330D01*
X001049Y009231D02*
X001127Y009231D01*
X000727Y009330D02*
X000305Y009330D01*
X000305Y009231D02*
X000682Y009231D01*
X000682Y009133D02*
X000305Y009133D01*
X000920Y008345D02*
X001010Y008345D01*
X001010Y008246D02*
X000920Y008246D01*
X000920Y008148D02*
X000976Y008148D01*
X001966Y007261D02*
X002030Y007261D01*
X002030Y007163D02*
X001991Y007163D01*
X002943Y007557D02*
X003177Y007557D01*
X003150Y009133D02*
X003101Y009133D01*
X002465Y009769D02*
X002465Y009954D01*
X002993Y010522D01*
X003266Y010315D02*
X003445Y010315D01*
X003365Y010413D02*
X003611Y010413D01*
X003642Y010512D02*
X003419Y010512D01*
X003562Y010610D02*
X003740Y010610D01*
X003789Y010610D02*
X003916Y010610D01*
X003887Y010512D02*
X004014Y010512D01*
X003839Y010709D02*
X003660Y010709D01*
X004626Y010996D02*
X004646Y010994D01*
X004664Y010988D01*
X004682Y010979D01*
X004697Y010967D01*
X004837Y010826D02*
X005365Y010298D01*
X005399Y010332D02*
X006150Y010332D01*
X005826Y010610D02*
X005655Y010610D01*
X005694Y010709D02*
X006310Y010709D01*
X006310Y010807D02*
X005705Y010807D01*
X005705Y010906D02*
X006348Y010906D01*
X006446Y011004D02*
X005410Y011004D01*
X005410Y011013D02*
X005705Y011013D01*
X005705Y011187D01*
X005694Y011226D01*
X005675Y011260D01*
X005647Y011288D01*
X005613Y011307D01*
X005574Y011318D01*
X005410Y011318D01*
X005410Y011013D01*
X005410Y011103D02*
X005320Y011103D01*
X005320Y011201D02*
X005410Y011201D01*
X005410Y011300D02*
X005320Y011300D01*
X005626Y011300D02*
X006622Y011300D01*
X006549Y011201D02*
X005701Y011201D01*
X005705Y011103D02*
X006525Y011103D01*
X006978Y011300D02*
X008332Y011300D01*
X008247Y011201D02*
X007051Y011201D01*
X007075Y011103D02*
X008215Y011103D01*
X008219Y011004D02*
X007062Y011004D01*
X007005Y010906D02*
X008265Y010906D01*
X008404Y010807D02*
X007978Y010807D01*
X008006Y010709D02*
X009010Y010709D01*
X009010Y010807D02*
X008576Y010807D01*
X008648Y011300D02*
X009010Y011300D01*
X009690Y011300D02*
X009810Y011300D01*
X010490Y011300D02*
X010610Y011300D01*
X008878Y010118D02*
X008840Y010118D01*
X009667Y009724D02*
X009783Y009724D01*
X009744Y009625D02*
X009706Y009625D01*
X009706Y009527D02*
X009744Y009527D01*
X005500Y009403D02*
X005288Y009191D01*
X004950Y009339D02*
X004900Y009289D01*
X004900Y009239D01*
X003138Y009921D02*
X002808Y009921D01*
X002798Y010019D02*
X003149Y010019D01*
X003069Y010118D02*
X003248Y010118D01*
X003168Y010216D02*
X003346Y010216D01*
X002903Y010118D02*
X002890Y010118D01*
X004843Y011103D02*
X005025Y011103D01*
X004942Y011004D02*
X005320Y011004D01*
X014300Y007089D02*
X014504Y006886D01*
X014504Y006723D01*
X014608Y007064D02*
X014658Y007064D01*
X014935Y007389D02*
X015465Y007389D01*
X016135Y007389D02*
X016150Y007374D01*
X016150Y007139D01*
X016485Y007157D02*
X016485Y007641D01*
X016421Y007704D01*
X016702Y007704D01*
X016765Y007768D01*
X016765Y007737D01*
X016853Y007649D01*
X016885Y007649D01*
X016885Y007529D01*
X016853Y007529D01*
X016765Y007441D01*
X016765Y007389D01*
X016717Y007389D01*
X016600Y007272D01*
X016485Y007157D01*
X016485Y007163D02*
X016491Y007163D01*
X016485Y007261D02*
X016589Y007261D01*
X016688Y007360D02*
X016485Y007360D01*
X016485Y007458D02*
X016782Y007458D01*
X016885Y007557D02*
X016485Y007557D01*
X016471Y007655D02*
X016847Y007655D01*
X016765Y007754D02*
X016751Y007754D01*
X017300Y006539D02*
X017685Y006439D01*
X017700Y006524D01*
D42*
X006950Y003689D03*
D43*
X006600Y003989D01*
X006581Y004258D01*
X006581Y004504D01*
X005150Y004154D02*
X005150Y003739D01*
X012100Y002989D02*
X012100Y002939D01*
X012200Y003039D01*
X012200Y003339D01*
X012656Y003795D01*
X012600Y003795D01*
X013600Y003795D01*
X014741Y003795D01*
X014550Y003854D01*
X015350Y003854D01*
X015365Y003839D01*
X015700Y003839D01*
X015930Y004069D01*
X016520Y004069D01*
X016750Y003439D02*
X017300Y003989D01*
X017300Y004359D01*
X017380Y004439D01*
X017700Y004439D01*
X017950Y004689D01*
X018150Y004889D01*
X018450Y005189D01*
X018650Y005189D01*
X018850Y005339D01*
X018850Y009414D01*
X018620Y009850D01*
X018650Y009564D01*
X018650Y010439D01*
X017700Y011389D01*
X015250Y011389D01*
X014800Y011839D01*
X014300Y011839D01*
X014400Y011739D01*
X014950Y011739D01*
X014300Y011839D02*
X014200Y011739D01*
X013650Y011739D01*
X017400Y010624D02*
X017435Y010589D01*
X014600Y009789D02*
X014600Y009604D01*
X014415Y009439D01*
X003344Y008523D02*
X002910Y008956D01*
X002783Y008956D01*
X014700Y003139D02*
X014700Y002489D01*
X014470Y002609D02*
X014450Y002589D01*
X014700Y003139D02*
X015000Y003439D01*
X016350Y003439D01*
X016750Y003439D01*
D44*
X017200Y003039D03*
X017600Y003039D03*
X017600Y002639D03*
X017200Y002639D03*
X016500Y002689D03*
X012300Y002739D03*
X011850Y002739D03*
X010050Y003639D03*
X010200Y003989D03*
X009150Y004789D03*
X007900Y004089D03*
X008350Y003189D03*
X005600Y003889D03*
X005150Y003739D03*
X004350Y005289D03*
X002050Y005489D03*
X000550Y005539D03*
X000550Y005939D03*
X000550Y006339D03*
X000550Y006739D03*
X001300Y006639D03*
X001900Y006489D03*
X001950Y007339D03*
X002500Y007689D03*
X003250Y007289D03*
X003750Y007339D03*
X003750Y006939D03*
X003750Y007739D03*
X003350Y007739D03*
X003750Y008139D03*
X004850Y007639D03*
X005400Y007689D03*
X005400Y007289D03*
X005950Y007489D03*
X005400Y008089D03*
X004950Y008239D03*
X007100Y009339D03*
X007650Y009089D03*
X008050Y008539D03*
X008450Y008539D03*
X008450Y008139D03*
X008050Y008139D03*
X007650Y008139D03*
X007650Y007739D03*
X008050Y007739D03*
X008450Y007739D03*
X007350Y007339D03*
X007350Y006939D03*
X007650Y006539D03*
X008000Y006239D03*
X008400Y006239D03*
X008400Y005839D03*
X009600Y005839D03*
X010000Y005839D03*
X010400Y005839D03*
X010400Y006239D03*
X010000Y006239D03*
X009600Y006239D03*
X012550Y004939D03*
X012950Y004939D03*
X016500Y005389D03*
X016900Y005389D03*
X017300Y005389D03*
X017700Y005389D03*
X018150Y006039D03*
X018150Y006439D03*
X018150Y006839D03*
X018150Y007239D03*
X018150Y007639D03*
X018150Y008039D03*
X018150Y008439D03*
X017000Y009159D03*
X016600Y009159D03*
X016600Y009689D03*
X017000Y009839D03*
X017000Y010239D03*
X016050Y010089D03*
X014600Y009789D03*
X015700Y011039D03*
X016100Y011039D03*
X016400Y011739D03*
X016800Y011739D03*
X017200Y011739D03*
X017600Y011739D03*
X018000Y011739D03*
X018400Y011739D03*
X018800Y011739D03*
X012950Y011739D03*
X012550Y011739D03*
X012150Y011739D03*
X011750Y011739D03*
X011350Y011739D03*
X010950Y011739D03*
X010550Y011739D03*
X010150Y011739D03*
X009750Y011739D03*
X009350Y011739D03*
X008950Y011739D03*
X008550Y011739D03*
X008150Y011739D03*
X007750Y011739D03*
X007350Y011739D03*
X006950Y011739D03*
X006550Y011739D03*
X006150Y011739D03*
X005750Y011739D03*
X005350Y011739D03*
X004950Y011739D03*
X004550Y011739D03*
X004150Y011739D03*
X003750Y011739D03*
X003350Y011739D03*
X002950Y011739D03*
X002550Y011739D03*
X002150Y011739D03*
X001750Y011739D03*
X001350Y011739D03*
X000950Y011739D03*
X000600Y011539D03*
X000550Y011139D03*
X000550Y010739D03*
X000550Y010339D03*
X000550Y009939D03*
X000550Y009539D03*
X000550Y008739D03*
X000550Y008339D03*
X000550Y007939D03*
X000550Y007539D03*
X003000Y009489D03*
X003000Y009939D03*
X004600Y009739D03*
X004750Y010439D03*
X006800Y011089D03*
X007350Y011339D03*
X007750Y011339D03*
X008150Y011339D03*
X008490Y011069D03*
X011700Y009089D03*
X012000Y008689D03*
X010550Y008139D03*
X010150Y008139D03*
X009750Y008139D03*
X009750Y007739D03*
X010150Y007739D03*
X010550Y007739D03*
X016550Y007339D03*
X000550Y005139D03*
X000550Y004239D03*
X000550Y003539D03*
X000550Y003139D03*
D45*
X001018Y004633D02*
X001044Y004633D01*
X001500Y005089D01*
X001500Y005639D01*
X001650Y005789D01*
X002000Y005789D01*
X002300Y006089D01*
X002485Y006089D01*
X002550Y006074D01*
X002515Y006139D01*
X002700Y006139D01*
X003121Y006560D01*
X003121Y006578D01*
X003266Y006355D02*
X003344Y006355D01*
X002925Y005888D01*
X002726Y005739D02*
X002350Y005739D01*
X002300Y005739D01*
X002050Y005489D01*
X001930Y005369D01*
X001835Y005369D01*
X001785Y005304D01*
X002250Y004839D01*
X002357Y004732D01*
X002357Y004633D01*
X003450Y005139D02*
X003600Y004989D01*
X003900Y004989D01*
X004010Y004889D01*
X004010Y003239D01*
X004010Y002979D01*
X004050Y002939D01*
X004559Y003389D02*
X004579Y003387D01*
X004597Y003381D01*
X004615Y003372D01*
X004630Y003360D01*
X004629Y003360D02*
X004950Y003039D01*
X005000Y002989D01*
X005050Y002939D01*
X004900Y003439D02*
X005600Y003439D01*
X006050Y002989D01*
X006050Y002939D01*
X006750Y003139D02*
X006850Y003139D01*
X007050Y002939D01*
X006750Y003139D02*
X005700Y004189D01*
X005700Y004539D01*
X005415Y004824D01*
X005300Y004824D01*
X005150Y004824D01*
X005300Y004824D02*
X005300Y005239D01*
X005074Y005465D01*
X005066Y005465D01*
X004680Y005239D02*
X004750Y005139D01*
X004800Y005039D01*
X004800Y004589D01*
X004900Y004489D01*
X005400Y004489D01*
X005500Y004389D01*
X005500Y004139D01*
X005500Y003989D01*
X005600Y003889D01*
X005150Y004154D02*
X005135Y004139D01*
X004950Y004139D01*
X004500Y004589D01*
X004494Y004589D01*
X004190Y004939D02*
X004190Y003545D01*
X004237Y003460D02*
X004326Y003404D01*
X004379Y003389D02*
X004559Y003389D01*
X004379Y003389D02*
X004360Y003391D01*
X004343Y003396D01*
X004326Y003404D01*
X004237Y003460D02*
X004224Y003470D01*
X004212Y003483D01*
X004203Y003497D01*
X004196Y003512D01*
X004191Y003528D01*
X004190Y003545D01*
X004494Y003839D02*
X004550Y003789D01*
X004900Y003439D01*
X007750Y003539D02*
X007850Y003439D01*
X008000Y003439D01*
X008900Y003439D01*
X009100Y003239D01*
X009100Y002939D01*
X008350Y003189D02*
X008100Y002939D01*
X008100Y003089D01*
X007750Y003539D02*
X007750Y003939D01*
X007900Y004089D01*
X008152Y004038D01*
X008402Y004038D01*
X008402Y004039D01*
X008499Y003841D02*
X008702Y003841D01*
X008800Y003939D01*
X008800Y004289D01*
X008900Y004389D01*
X009046Y004389D01*
X009446Y004389D01*
X009601Y004234D01*
X009601Y004240D01*
X009650Y004289D01*
X010950Y004289D01*
X011400Y003839D01*
X011835Y003839D01*
X011600Y003854D01*
X011100Y003639D02*
X011100Y002939D01*
X011850Y002739D02*
X011900Y003139D01*
X011925Y003114D01*
X012100Y002939D01*
X011100Y003639D02*
X010750Y003989D01*
X010200Y003989D01*
X009950Y003989D01*
X009800Y003839D01*
X009700Y003839D01*
X009601Y003841D01*
X009601Y004038D02*
X009601Y004234D01*
X009665Y004524D02*
X009400Y004789D01*
X009150Y004789D01*
X008800Y004789D01*
X008500Y004489D01*
X008500Y004312D01*
X008499Y004234D01*
X008595Y004234D01*
X009665Y004524D02*
X011600Y004524D01*
X010050Y003639D02*
X010050Y003189D01*
X010100Y002939D01*
X010050Y003639D02*
X009527Y003639D01*
X009601Y003644D01*
X007834Y004955D02*
X008050Y005212D01*
X007950Y005689D01*
X006624Y007015D01*
X006624Y007024D01*
X006402Y006801D02*
X006402Y006737D01*
X007050Y006089D01*
X007050Y005317D01*
X007166Y005623D01*
X004680Y005939D02*
X004680Y005239D01*
X004190Y004939D02*
X003950Y005189D01*
X003800Y005189D01*
X003750Y005239D01*
X003750Y005439D01*
X003998Y005687D01*
X004012Y005687D01*
X003789Y005910D02*
X003771Y005910D01*
X003450Y005589D01*
X003450Y005139D01*
X001835Y005369D02*
X001750Y005404D01*
X001750Y005439D01*
X002725Y005739D02*
X002757Y005746D01*
X002787Y005757D01*
X002816Y005772D01*
X002843Y005790D01*
X002867Y005811D01*
X002890Y005834D01*
X002909Y005860D01*
X002925Y005888D01*
X002550Y006074D02*
X002450Y006439D01*
X001951Y006938D01*
X001806Y006938D01*
X001806Y007033D01*
X001550Y006938D02*
X001579Y006765D01*
X001586Y006736D01*
X001596Y006708D01*
X001609Y006682D01*
X001625Y006657D01*
X001644Y006635D01*
X001665Y006615D01*
X001689Y006597D01*
X001714Y006582D01*
X001900Y006489D01*
X001800Y006126D01*
X001794Y006170D01*
X001165Y006130D02*
X001125Y006170D01*
X001119Y006170D01*
X001300Y006639D02*
X001294Y006645D01*
X001294Y006938D01*
X002220Y006939D02*
X002220Y007569D01*
X002050Y007739D01*
X002050Y008489D01*
X002300Y008739D01*
X002300Y009039D01*
X002350Y009089D01*
X002465Y009204D01*
X002465Y009769D01*
X004550Y008889D02*
X004900Y009239D01*
X005500Y009403D02*
X005550Y009453D01*
X005550Y009689D01*
X005350Y009889D01*
X005100Y009889D01*
X004750Y010239D01*
X004750Y010439D01*
X005365Y010298D02*
X005399Y010332D01*
X006350Y009639D02*
X006500Y009789D01*
X006500Y010789D01*
X006800Y011089D01*
X008490Y011069D02*
X012520Y011069D01*
X012852Y011069D01*
X013426Y010495D01*
X013344Y010495D01*
X015700Y009589D02*
X016150Y009589D01*
X016300Y009439D01*
X017335Y009439D01*
X017500Y009324D01*
X017500Y008654D02*
X017415Y008589D01*
X017450Y008589D01*
X016050Y010089D02*
X015894Y009983D01*
X015774Y009983D01*
X016196Y006723D02*
X016334Y006723D01*
X016300Y002889D02*
X015860Y002869D01*
X016300Y002889D02*
X016500Y002689D01*
X005950Y007489D02*
X005750Y007689D01*
X005750Y008339D01*
X005934Y008523D01*
X005956Y008523D01*
X005579Y008968D02*
X005900Y009289D01*
X006174Y009563D01*
X006174Y009639D01*
X006150Y009663D01*
X006174Y009639D02*
X006350Y009639D01*
X007550Y008989D02*
X007650Y009089D01*
X007550Y008989D02*
X007550Y008839D01*
X007100Y008389D01*
X007062Y008389D01*
X005579Y008968D02*
X005511Y008968D01*
X002676Y007855D02*
X002666Y007855D01*
X002500Y007689D01*
X002941Y007289D02*
X002676Y007024D01*
X002898Y006801D02*
X002736Y006639D01*
X002500Y006639D01*
X002220Y006939D01*
X002941Y007289D02*
X003250Y007289D01*
X003850Y006439D02*
X004200Y006439D01*
X004680Y005939D01*
X003850Y006439D02*
X003544Y006133D01*
X003566Y006133D01*
X001600Y008404D02*
X001635Y008439D01*
D46*
X001635Y008924D01*
X001700Y008989D01*
X001700Y009339D01*
X001725Y009364D01*
X001815Y009274D01*
X001970Y009274D01*
X001849Y009488D02*
X001725Y009364D01*
X001700Y009339D02*
X001700Y009539D01*
X001400Y009839D01*
X001094Y009839D01*
X001088Y009833D01*
X001849Y010059D02*
X001849Y009488D01*
D47*
X011600Y003854D02*
X012891Y003854D01*
X012600Y003795D01*
D48*
X004350Y005289D02*
X004350Y005580D01*
X004234Y005465D01*
X004850Y007639D02*
X004550Y007939D01*
X004950Y008239D02*
X004950Y008839D01*
X005288Y009177D01*
X005288Y009191D01*
X005066Y009414D02*
X005024Y009414D01*
X004900Y009289D01*
X004600Y009739D02*
X004234Y009424D01*
X004234Y009414D01*
X006179Y008300D02*
X006684Y008805D01*
X006875Y008996D01*
X007041Y008367D02*
X006692Y008367D01*
X006402Y008077D01*
X011535Y009804D02*
X011700Y009639D01*
X012335Y009639D01*
X012735Y010039D01*
X012700Y010074D01*
X012700Y010589D01*
X012585Y010704D01*
X012550Y010744D01*
X012050Y010439D02*
X012050Y010054D01*
X012065Y010039D01*
X011535Y010039D02*
X011535Y009804D01*
X012050Y010439D02*
X011750Y010739D01*
X011750Y010744D01*
X012735Y010039D02*
X012791Y009983D01*
X013426Y009983D01*
X013426Y010015D01*
X013770Y010339D01*
X013770Y010639D01*
X013900Y010789D01*
X015480Y010789D01*
X015774Y010495D01*
X017850Y008989D02*
X017950Y009089D01*
D49*
X013200Y008139D03*
X002550Y008539D03*
D50*
X014200Y010239D02*
X015000Y010239D01*
X015026Y010495D02*
X014174Y010495D01*
D51*
X008100Y003739D03*
D52*
X014600Y002739D03*
X014950Y002489D03*
X014950Y011739D03*
X013650Y011739D03*
M02*
