%
M48
M72
T01C0.0130
T02C0.0150
T03C0.0160
T04C0.0180
T05C0.0190
T06C0.0197
T07C0.0315
T08C0.0320
T09C0.0400
%
T01
X550Y11139
X18800Y11739
X18400Y11739
X18000Y11739
X17600Y11739
X17200Y11739
X16800Y11739
X16400Y11739
X16100Y11039
X15700Y11039
X17000Y10239
X17000Y9839
X16600Y9689
X16600Y9159
X17000Y9159
X18150Y8439
X18150Y8039
X18150Y7639
X18150Y7239
X18150Y6839
X18150Y6439
X18150Y6039
X17700Y5389
X17300Y5389
X16900Y5389
X16500Y5389
X12950Y4939
X12550Y4939
X10400Y5839
X10000Y5839
X9600Y5839
X9600Y6239
X10000Y6239
X10400Y6239
X8400Y6239
X8000Y6239
X7650Y6539
X7350Y6939
X7350Y7339
X7650Y7739
X8050Y7739
X8450Y7739
X8450Y8139
X8050Y8139
X7650Y8139
X8050Y8539
X8450Y8539
X7650Y9089
X7100Y9339
X4950Y8239
X5400Y8089
X5400Y7689
X4850Y7639
X5400Y7289
X5950Y7489
X3750Y7339
X3250Y7289
X3350Y7739
X3750Y7739
X3750Y8139
X2500Y7689
X1950Y7339
X1300Y6639
X1900Y6489
X550Y6339
X550Y5939
X550Y5539
X550Y5139
X2050Y5489
X4350Y5289
X5600Y3889
X5150Y3739
X7900Y4089
X9150Y4789
X10200Y3989
X10050Y3639
X8350Y3189
X11850Y2739
X12300Y2739
X16500Y2689
X17200Y2639
X17600Y2639
X17600Y3039
X17200Y3039
X16550Y7339
X16050Y10089
X14600Y9789
X12000Y8689
X11700Y9089
X10550Y8139
X10150Y8139
X9750Y8139
X9750Y7739
X10150Y7739
X10550Y7739
X8400Y5839
X3750Y6939
X550Y6739
X550Y7539
X550Y7939
X550Y8339
X550Y8739
X550Y9539
X550Y9939
X550Y10339
X550Y10739
X600Y11539
X950Y11739
X1350Y11739
X1750Y11739
X2150Y11739
X2550Y11739
X2950Y11739
X3350Y11739
X3750Y11739
X4150Y11739
X4550Y11739
X4950Y11739
X5350Y11739
X5750Y11739
X6150Y11739
X6550Y11739
X6950Y11739
X7350Y11739
X7750Y11739
X8150Y11739
X8550Y11739
X8950Y11739
X9350Y11739
X9750Y11739
X10150Y11739
X10550Y11739
X10950Y11739
X11350Y11739
X11750Y11739
X12150Y11739
X12550Y11739
X12950Y11739
X8490Y11069
X8150Y11339
X7750Y11339
X7350Y11339
X6800Y11089
X4750Y10439
X4600Y9739
X3000Y9939
X3000Y9489
X550Y4239
X550Y3539
X550Y3139
T02
X13200Y8139
X2550Y8539
T03
X8100Y3739
T04
X14950Y2489
X14600Y2739
X14950Y11739
X13650Y11739
T05
X6950Y3689
T06
X1700Y8989
T07
X1100Y11189
T08
X9008Y6139
X8008Y7139
X9008Y8139
T09
X18654Y4560
X18620Y9560
X7050Y2939
X6050Y2939
X5050Y2939
X4050Y2939
X3050Y2939
X2050Y2939
X1050Y2939
M30
