G75*
%MOIN*%
%OFA0B0*%
%FSLAX24Y24*%
%IPPOS*%
%LPD*%
%AMOC8*
5,1,8,0,0,1.08239X$1,22.5*
%
%ADD10C,0.0010*%
%ADD11OC8,0.0560*%
%ADD12R,0.0420X0.0440*%
%ADD13R,0.0440X0.0420*%
%ADD14R,0.0395X0.0552*%
%ADD15R,0.0316X0.0512*%
%ADD16R,0.0552X0.0395*%
%ADD17R,0.0355X0.0138*%
%ADD18R,0.0414X0.0182*%
%ADD19R,0.0440X0.0490*%
%ADD20C,0.0600*%
%ADD21R,0.0316X0.0709*%
%ADD22R,0.0540X0.0250*%
%ADD23R,0.0250X0.0540*%
%ADD24C,0.0089*%
%ADD25R,0.0571X0.0217*%
%ADD26R,0.0670X0.1024*%
%ADD27R,0.0158X0.0316*%
%ADD28C,0.0050*%
%ADD29R,0.0571X0.0296*%
%ADD30R,0.0560X0.0260*%
%ADD31C,0.0000*%
%ADD32C,0.0440*%
%ADD33R,0.0140X0.0140*%
%ADD34C,0.0780*%
%ADD35R,0.0946X0.0670*%
%ADD36C,0.0540*%
%ADD37R,0.1221X0.0540*%
%ADD38C,0.0749*%
%ADD39R,0.0119X0.0670*%
D10*
X000937Y002139D02*
X013750Y002139D01*
X014950Y002139D01*
X018654Y002139D01*
X018708Y002141D01*
X018761Y002146D01*
X018814Y002155D01*
X018866Y002168D01*
X018918Y002184D01*
X018968Y002204D01*
X019016Y002227D01*
X019063Y002254D01*
X019108Y002283D01*
X019151Y002316D01*
X019191Y002351D01*
X019229Y002389D01*
X019264Y002429D01*
X019297Y002472D01*
X019326Y002517D01*
X019353Y002564D01*
X019376Y002612D01*
X019396Y002662D01*
X019412Y002714D01*
X019425Y002766D01*
X019434Y002819D01*
X019439Y002872D01*
X019441Y002926D01*
X019441Y011352D01*
X019439Y011406D01*
X019434Y011459D01*
X019425Y011512D01*
X019412Y011564D01*
X019396Y011616D01*
X019376Y011666D01*
X019353Y011714D01*
X019326Y011761D01*
X019297Y011806D01*
X019264Y011849D01*
X019229Y011889D01*
X019191Y011927D01*
X019151Y011962D01*
X019108Y011995D01*
X019063Y012024D01*
X019016Y012051D01*
X018968Y012074D01*
X018918Y012094D01*
X018866Y012110D01*
X018814Y012123D01*
X018761Y012132D01*
X018708Y012137D01*
X018654Y012139D01*
X014900Y012139D01*
X013700Y012139D01*
X000937Y012139D01*
X000883Y012137D01*
X000830Y012132D01*
X000777Y012123D01*
X000725Y012110D01*
X000673Y012094D01*
X000623Y012074D01*
X000575Y012051D01*
X000528Y012024D01*
X000483Y011995D01*
X000440Y011962D01*
X000400Y011927D01*
X000362Y011889D01*
X000327Y011849D01*
X000294Y011806D01*
X000265Y011761D01*
X000238Y011714D01*
X000215Y011666D01*
X000195Y011616D01*
X000179Y011564D01*
X000166Y011512D01*
X000157Y011459D01*
X000152Y011406D01*
X000150Y011352D01*
X000150Y002926D01*
X000152Y002872D01*
X000157Y002819D01*
X000166Y002766D01*
X000179Y002714D01*
X000195Y002662D01*
X000215Y002612D01*
X000238Y002564D01*
X000265Y002517D01*
X000294Y002472D01*
X000327Y002429D01*
X000362Y002389D01*
X000400Y002351D01*
X000440Y002316D01*
X000483Y002283D01*
X000528Y002254D01*
X000575Y002227D01*
X000623Y002204D01*
X000673Y002184D01*
X000725Y002168D01*
X000777Y002155D01*
X000830Y002146D01*
X000883Y002141D01*
X000937Y002139D01*
D11*
X009008Y006139D03*
X008008Y007139D03*
X009008Y008139D03*
D12*
X008500Y009554D03*
X008500Y010224D03*
X009350Y010744D03*
X010150Y010744D03*
X010950Y010744D03*
X011750Y010744D03*
X012550Y010744D03*
X012550Y011414D03*
X011750Y011414D03*
X010950Y011414D03*
X010150Y011414D03*
X009350Y011414D03*
X006950Y010524D03*
X006150Y010332D03*
X005365Y010298D03*
X006150Y009663D03*
X006950Y009854D03*
X005365Y010968D03*
X012570Y009244D03*
X012570Y008574D03*
X012800Y007774D03*
X013600Y007774D03*
X014850Y008104D03*
X015650Y008054D03*
X016450Y008054D03*
X016450Y008724D03*
X015650Y008724D03*
X014850Y008774D03*
X016600Y009954D03*
X017400Y009954D03*
X017500Y009324D03*
X017500Y008654D03*
X013600Y007104D03*
X012800Y007104D03*
X013600Y006604D03*
X012800Y006124D03*
X013600Y005934D03*
X012800Y005454D03*
X011600Y004524D03*
X011600Y003854D03*
X014550Y003854D03*
X015350Y003854D03*
X015350Y004524D03*
X014550Y004524D03*
X016900Y005854D03*
X017700Y005854D03*
X017700Y006524D03*
X016900Y006524D03*
X016600Y010624D03*
X017400Y010624D03*
X006050Y005174D03*
X005150Y004824D03*
X006050Y004504D03*
X005150Y004154D03*
X003000Y004424D03*
X003000Y003754D03*
X002550Y005404D03*
X002550Y006074D03*
D13*
X001794Y006170D03*
X001125Y006170D03*
X001165Y005369D03*
X001835Y005369D03*
X006565Y004289D03*
X007235Y004289D03*
X014265Y007389D03*
X014935Y007389D03*
X015465Y007389D03*
X016135Y007389D03*
X017115Y007189D03*
X017785Y007189D03*
X017785Y007989D03*
X017115Y007989D03*
X015085Y009439D03*
X014415Y009439D03*
X013905Y009439D03*
X013235Y009439D03*
X012735Y010039D03*
X012065Y010039D03*
X011535Y010039D03*
X010865Y010039D03*
X013515Y008639D03*
X014185Y008639D03*
X015085Y005269D03*
X015755Y005269D03*
G36*
X004341Y010433D02*
X004030Y010122D01*
X003733Y010419D01*
X004044Y010730D01*
X004341Y010433D01*
G37*
G36*
X003867Y009959D02*
X003556Y009648D01*
X003259Y009945D01*
X003570Y010256D01*
X003867Y009959D01*
G37*
G36*
X003297Y010529D02*
X002986Y010218D01*
X002689Y010515D01*
X003000Y010826D01*
X003297Y010529D01*
G37*
G36*
X003771Y011003D02*
X003460Y010692D01*
X003163Y010989D01*
X003474Y011300D01*
X003771Y011003D01*
G37*
G36*
X002018Y010525D02*
X002329Y010836D01*
X002626Y010539D01*
X002315Y010228D01*
X002018Y010525D01*
G37*
G36*
X001545Y010052D02*
X001856Y010363D01*
X002153Y010066D01*
X001842Y009755D01*
X001545Y010052D01*
G37*
X001635Y008439D03*
X000965Y008439D03*
D14*
X003706Y003839D03*
X004494Y003839D03*
X013656Y005319D03*
X014444Y005319D03*
D15*
X012040Y006561D03*
X011300Y007661D03*
X012040Y008017D03*
X011300Y009117D03*
D16*
X010150Y009445D03*
X009300Y009445D03*
X009300Y010233D03*
X010150Y010233D03*
X001088Y009833D03*
X001088Y009045D03*
X012600Y004583D03*
X013600Y004583D03*
X013600Y003795D03*
X012600Y003795D03*
D17*
X009601Y003841D03*
X009601Y004038D03*
X009601Y004234D03*
X009601Y003644D03*
X008499Y003644D03*
X008499Y003841D03*
X008499Y004038D03*
X008499Y004234D03*
X014504Y005955D03*
X014504Y006211D03*
X014504Y006467D03*
X014504Y006723D03*
X016196Y006723D03*
X016196Y006467D03*
X016196Y006211D03*
X016196Y005955D03*
D18*
X015774Y009983D03*
X015026Y009983D03*
X015026Y010239D03*
X015026Y010495D03*
X015774Y010495D03*
X014174Y010495D03*
X014174Y010239D03*
X014174Y009983D03*
X013426Y009983D03*
X013426Y010495D03*
D19*
G36*
X002455Y008973D02*
X002766Y009284D01*
X003111Y008939D01*
X002800Y008628D01*
X002455Y008973D01*
G37*
G36*
X001642Y009291D02*
X001953Y009602D01*
X002298Y009257D01*
X001987Y008946D01*
X001642Y009291D01*
G37*
G36*
X002793Y009752D02*
X002482Y009441D01*
X002137Y009786D01*
X002448Y010097D01*
X002793Y009752D01*
G37*
D20*
X001100Y011189D03*
D21*
G36*
X007028Y005261D02*
X006804Y005485D01*
X007304Y005985D01*
X007528Y005761D01*
X007028Y005261D01*
G37*
G36*
X007362Y004927D02*
X007138Y005151D01*
X007638Y005651D01*
X007862Y005427D01*
X007362Y004927D01*
G37*
G36*
X007696Y004593D02*
X007472Y004817D01*
X007972Y005317D01*
X008196Y005093D01*
X007696Y004593D01*
G37*
D22*
G36*
X005186Y005966D02*
X005567Y005585D01*
X005390Y005408D01*
X005009Y005789D01*
X005186Y005966D01*
G37*
G36*
X005409Y006189D02*
X005790Y005808D01*
X005613Y005631D01*
X005232Y006012D01*
X005409Y006189D01*
G37*
G36*
X005632Y006412D02*
X006013Y006031D01*
X005836Y005854D01*
X005455Y006235D01*
X005632Y006412D01*
G37*
G36*
X005854Y006634D02*
X006235Y006253D01*
X006058Y006076D01*
X005677Y006457D01*
X005854Y006634D01*
G37*
G36*
X006077Y006857D02*
X006458Y006476D01*
X006281Y006299D01*
X005900Y006680D01*
X006077Y006857D01*
G37*
G36*
X006300Y007080D02*
X006681Y006699D01*
X006504Y006522D01*
X006123Y006903D01*
X006300Y007080D01*
G37*
G36*
X006522Y007303D02*
X006903Y006922D01*
X006726Y006745D01*
X006345Y007126D01*
X006522Y007303D01*
G37*
G36*
X003464Y009024D02*
X003845Y008643D01*
X003668Y008466D01*
X003287Y008847D01*
X003464Y009024D01*
G37*
G36*
X003687Y009247D02*
X004068Y008866D01*
X003891Y008689D01*
X003510Y009070D01*
X003687Y009247D01*
G37*
G36*
X003910Y009470D02*
X004291Y009089D01*
X004114Y008912D01*
X003733Y009293D01*
X003910Y009470D01*
G37*
G36*
X004132Y009693D02*
X004513Y009312D01*
X004336Y009135D01*
X003955Y009516D01*
X004132Y009693D01*
G37*
G36*
X003242Y008802D02*
X003623Y008421D01*
X003446Y008244D01*
X003065Y008625D01*
X003242Y008802D01*
G37*
G36*
X003019Y008579D02*
X003400Y008198D01*
X003223Y008021D01*
X002842Y008402D01*
X003019Y008579D01*
G37*
G36*
X002796Y008356D02*
X003177Y007975D01*
X003000Y007798D01*
X002619Y008179D01*
X002796Y008356D01*
G37*
G36*
X002574Y008134D02*
X002955Y007753D01*
X002778Y007576D01*
X002397Y007957D01*
X002574Y008134D01*
G37*
G36*
X004964Y005744D02*
X005345Y005363D01*
X005168Y005186D01*
X004787Y005567D01*
X004964Y005744D01*
G37*
D23*
G36*
X004336Y005744D02*
X004513Y005567D01*
X004132Y005186D01*
X003955Y005363D01*
X004336Y005744D01*
G37*
G36*
X004114Y005966D02*
X004291Y005789D01*
X003910Y005408D01*
X003733Y005585D01*
X004114Y005966D01*
G37*
G36*
X003891Y006189D02*
X004068Y006012D01*
X003687Y005631D01*
X003510Y005808D01*
X003891Y006189D01*
G37*
G36*
X003668Y006412D02*
X003845Y006235D01*
X003464Y005854D01*
X003287Y006031D01*
X003668Y006412D01*
G37*
G36*
X003446Y006634D02*
X003623Y006457D01*
X003242Y006076D01*
X003065Y006253D01*
X003446Y006634D01*
G37*
G36*
X003223Y006857D02*
X003400Y006680D01*
X003019Y006299D01*
X002842Y006476D01*
X003223Y006857D01*
G37*
G36*
X003000Y007080D02*
X003177Y006903D01*
X002796Y006522D01*
X002619Y006699D01*
X003000Y007080D01*
G37*
G36*
X002778Y007303D02*
X002955Y007126D01*
X002574Y006745D01*
X002397Y006922D01*
X002778Y007303D01*
G37*
G36*
X005836Y009024D02*
X006013Y008847D01*
X005632Y008466D01*
X005455Y008643D01*
X005836Y009024D01*
G37*
G36*
X005613Y009247D02*
X005790Y009070D01*
X005409Y008689D01*
X005232Y008866D01*
X005613Y009247D01*
G37*
G36*
X005390Y009470D02*
X005567Y009293D01*
X005186Y008912D01*
X005009Y009089D01*
X005390Y009470D01*
G37*
G36*
X005168Y009693D02*
X005345Y009516D01*
X004964Y009135D01*
X004787Y009312D01*
X005168Y009693D01*
G37*
G36*
X006058Y008802D02*
X006235Y008625D01*
X005854Y008244D01*
X005677Y008421D01*
X006058Y008802D01*
G37*
G36*
X006281Y008579D02*
X006458Y008402D01*
X006077Y008021D01*
X005900Y008198D01*
X006281Y008579D01*
G37*
G36*
X006504Y008356D02*
X006681Y008179D01*
X006300Y007798D01*
X006123Y007975D01*
X006504Y008356D01*
G37*
G36*
X006726Y008134D02*
X006903Y007957D01*
X006522Y007576D01*
X006345Y007753D01*
X006726Y008134D01*
G37*
D24*
X007832Y009662D02*
X007832Y009928D01*
X007832Y009662D02*
X007368Y009662D01*
X007368Y009928D01*
X007832Y009928D01*
X007832Y009750D02*
X007368Y009750D01*
X007368Y009838D02*
X007832Y009838D01*
X007832Y009926D02*
X007368Y009926D01*
X007832Y010450D02*
X007832Y010716D01*
X007832Y010450D02*
X007368Y010450D01*
X007368Y010716D01*
X007832Y010716D01*
X007832Y010538D02*
X007368Y010538D01*
X007368Y010626D02*
X007832Y010626D01*
X007832Y010714D02*
X007368Y010714D01*
X004627Y004357D02*
X004361Y004357D01*
X004361Y004821D01*
X004627Y004821D01*
X004627Y004357D01*
X004627Y004445D02*
X004361Y004445D01*
X004361Y004533D02*
X004627Y004533D01*
X004627Y004621D02*
X004361Y004621D01*
X004361Y004709D02*
X004627Y004709D01*
X004627Y004797D02*
X004361Y004797D01*
X003839Y004357D02*
X003573Y004357D01*
X003573Y004821D01*
X003839Y004821D01*
X003839Y004357D01*
X003839Y004445D02*
X003573Y004445D01*
X003573Y004533D02*
X003839Y004533D01*
X003839Y004621D02*
X003573Y004621D01*
X003573Y004709D02*
X003839Y004709D01*
X003839Y004797D02*
X003573Y004797D01*
D25*
X002357Y004633D03*
X002357Y004239D03*
X002357Y003845D03*
X001018Y003845D03*
X001018Y004239D03*
X001018Y004633D03*
D26*
X001687Y004239D03*
D27*
X001806Y006938D03*
X001550Y006938D03*
X001294Y006938D03*
X001294Y007765D03*
X001550Y007765D03*
X001806Y007765D03*
D28*
X001889Y007521D02*
X001211Y007521D01*
X001211Y007182D01*
X001889Y007182D01*
X001889Y007521D01*
X001889Y007474D02*
X001211Y007474D01*
X001211Y007426D02*
X001889Y007426D01*
X001889Y007377D02*
X001211Y007377D01*
X001211Y007329D02*
X001889Y007329D01*
X001889Y007280D02*
X001211Y007280D01*
X001211Y007232D02*
X001889Y007232D01*
X001889Y007183D02*
X001211Y007183D01*
X018206Y009479D02*
X018225Y009410D01*
X018255Y009345D01*
X018296Y009287D01*
X018346Y009236D01*
X018405Y009195D01*
X018470Y009165D01*
X018539Y009147D01*
X018610Y009140D01*
X018630Y009140D01*
X018701Y009147D01*
X018770Y009165D01*
X018835Y009195D01*
X018894Y009236D01*
X018944Y009287D01*
X018985Y009345D01*
X019015Y009410D01*
X019034Y009479D01*
X019040Y009550D01*
X019040Y009570D01*
X019032Y009650D01*
X019009Y009727D01*
X018971Y009798D01*
X018920Y009860D01*
X018858Y009911D01*
X018787Y009949D01*
X018710Y009972D01*
X018630Y009980D01*
X018610Y009980D01*
X018530Y009972D01*
X018453Y009949D01*
X018382Y009911D01*
X018320Y009860D01*
X018269Y009798D01*
X018231Y009727D01*
X018208Y009650D01*
X018200Y009570D01*
X018200Y009550D01*
X018206Y009479D01*
X018211Y009463D02*
X019029Y009463D01*
X019037Y009511D02*
X018203Y009511D01*
X018200Y009560D02*
X019040Y009560D01*
X019036Y009608D02*
X018204Y009608D01*
X018210Y009657D02*
X019030Y009657D01*
X019016Y009705D02*
X018224Y009705D01*
X018245Y009754D02*
X018995Y009754D01*
X018968Y009802D02*
X018272Y009802D01*
X018312Y009851D02*
X018928Y009851D01*
X018873Y009899D02*
X018367Y009899D01*
X018450Y009948D02*
X018790Y009948D01*
X019016Y009414D02*
X018224Y009414D01*
X018245Y009366D02*
X018995Y009366D01*
X018965Y009317D02*
X018275Y009317D01*
X018314Y009269D02*
X018926Y009269D01*
X018870Y009220D02*
X018370Y009220D01*
X018456Y009172D02*
X018784Y009172D01*
D29*
X001550Y007352D03*
D30*
X016520Y004809D03*
X017380Y004439D03*
X016520Y004069D03*
D31*
X018420Y009560D02*
X018422Y009588D01*
X018428Y009615D01*
X018437Y009641D01*
X018450Y009666D01*
X018467Y009689D01*
X018486Y009709D01*
X018508Y009726D01*
X018532Y009740D01*
X018558Y009750D01*
X018585Y009757D01*
X018613Y009760D01*
X018641Y009759D01*
X018668Y009754D01*
X018695Y009745D01*
X018720Y009733D01*
X018743Y009718D01*
X018764Y009699D01*
X018782Y009678D01*
X018797Y009654D01*
X018808Y009628D01*
X018816Y009602D01*
X018820Y009574D01*
X018820Y009546D01*
X018816Y009518D01*
X018808Y009492D01*
X018797Y009466D01*
X018782Y009442D01*
X018764Y009421D01*
X018743Y009402D01*
X018720Y009387D01*
X018695Y009375D01*
X018668Y009366D01*
X018641Y009361D01*
X018613Y009360D01*
X018585Y009363D01*
X018558Y009370D01*
X018532Y009380D01*
X018508Y009394D01*
X018486Y009411D01*
X018467Y009431D01*
X018450Y009454D01*
X018437Y009479D01*
X018428Y009505D01*
X018422Y009532D01*
X018420Y009560D01*
D32*
X018620Y009560D03*
D33*
X018620Y009850D03*
D34*
X018654Y004560D03*
X007050Y002939D03*
X006050Y002939D03*
X005050Y002939D03*
X004050Y002939D03*
X003050Y002939D03*
X002050Y002939D03*
X001050Y002939D03*
D35*
X015860Y002869D03*
X018340Y002869D03*
D36*
X017300Y006539D03*
X014100Y007889D03*
X007041Y008367D03*
X007041Y008996D03*
D37*
X014300Y011839D03*
X014300Y002439D03*
D38*
X013090Y002939D03*
X012100Y002939D03*
X011100Y002939D03*
X010100Y002939D03*
X009100Y002939D03*
X008100Y002939D03*
D39*
X009050Y003939D03*
M02*
