G75*
%MOIN*%
%OFA0B0*%
%FSLAX24Y24*%
%IPPOS*%
%LPD*%
%AMOC8*
5,1,8,0,0,1.08239X$1,22.5*
%
%ADD10C,0.0010*%
%ADD11C,0.0000*%
D10*
X000937Y002139D02*
X013750Y002139D01*
X014950Y002139D01*
X018654Y002139D01*
X018708Y002141D01*
X018761Y002146D01*
X018814Y002155D01*
X018866Y002168D01*
X018918Y002184D01*
X018968Y002204D01*
X019016Y002227D01*
X019063Y002254D01*
X019108Y002283D01*
X019151Y002316D01*
X019191Y002351D01*
X019229Y002389D01*
X019264Y002429D01*
X019297Y002472D01*
X019326Y002517D01*
X019353Y002564D01*
X019376Y002612D01*
X019396Y002662D01*
X019412Y002714D01*
X019425Y002766D01*
X019434Y002819D01*
X019439Y002872D01*
X019441Y002926D01*
X019441Y011352D01*
X019439Y011406D01*
X019434Y011459D01*
X019425Y011512D01*
X019412Y011564D01*
X019396Y011616D01*
X019376Y011666D01*
X019353Y011714D01*
X019326Y011761D01*
X019297Y011806D01*
X019264Y011849D01*
X019229Y011889D01*
X019191Y011927D01*
X019151Y011962D01*
X019108Y011995D01*
X019063Y012024D01*
X019016Y012051D01*
X018968Y012074D01*
X018918Y012094D01*
X018866Y012110D01*
X018814Y012123D01*
X018761Y012132D01*
X018708Y012137D01*
X018654Y012139D01*
X014900Y012139D01*
X013700Y012139D01*
X000937Y012139D01*
X000883Y012137D01*
X000830Y012132D01*
X000777Y012123D01*
X000725Y012110D01*
X000673Y012094D01*
X000623Y012074D01*
X000575Y012051D01*
X000528Y012024D01*
X000483Y011995D01*
X000440Y011962D01*
X000400Y011927D01*
X000362Y011889D01*
X000327Y011849D01*
X000294Y011806D01*
X000265Y011761D01*
X000238Y011714D01*
X000215Y011666D01*
X000195Y011616D01*
X000179Y011564D01*
X000166Y011512D01*
X000157Y011459D01*
X000152Y011406D01*
X000150Y011352D01*
X000150Y002926D01*
X000152Y002872D01*
X000157Y002819D01*
X000166Y002766D01*
X000179Y002714D01*
X000195Y002662D01*
X000215Y002612D01*
X000238Y002564D01*
X000265Y002517D01*
X000294Y002472D01*
X000327Y002429D01*
X000362Y002389D01*
X000400Y002351D01*
X000440Y002316D01*
X000483Y002283D01*
X000528Y002254D01*
X000575Y002227D01*
X000623Y002204D01*
X000673Y002184D01*
X000725Y002168D01*
X000777Y002155D01*
X000830Y002146D01*
X000883Y002141D01*
X000937Y002139D01*
D11*
X018420Y009560D02*
X018422Y009588D01*
X018428Y009615D01*
X018437Y009641D01*
X018450Y009666D01*
X018467Y009689D01*
X018486Y009709D01*
X018508Y009726D01*
X018532Y009740D01*
X018558Y009750D01*
X018585Y009757D01*
X018613Y009760D01*
X018641Y009759D01*
X018668Y009754D01*
X018695Y009745D01*
X018720Y009733D01*
X018743Y009718D01*
X018764Y009699D01*
X018782Y009678D01*
X018797Y009654D01*
X018808Y009628D01*
X018816Y009602D01*
X018820Y009574D01*
X018820Y009546D01*
X018816Y009518D01*
X018808Y009492D01*
X018797Y009466D01*
X018782Y009442D01*
X018764Y009421D01*
X018743Y009402D01*
X018720Y009387D01*
X018695Y009375D01*
X018668Y009366D01*
X018641Y009361D01*
X018613Y009360D01*
X018585Y009363D01*
X018558Y009370D01*
X018532Y009380D01*
X018508Y009394D01*
X018486Y009411D01*
X018467Y009431D01*
X018450Y009454D01*
X018437Y009479D01*
X018428Y009505D01*
X018422Y009532D01*
X018420Y009560D01*
M02*
