G75*
%MOIN*%
%OFA0B0*%
%FSLAX24Y24*%
%IPPOS*%
%LPD*%
%AMOC8*
5,1,8,0,0,1.08239X$1,22.5*
%
%ADD10C,0.0010*%
%ADD11OC8,0.0520*%
%ADD12C,0.0560*%
%ADD13C,0.0000*%
%ADD14C,0.0740*%
%ADD15C,0.3150*%
%ADD16R,0.1181X0.0500*%
%ADD17R,0.0394X0.0394*%
%ADD18C,0.0100*%
%ADD19C,0.0317*%
%ADD20C,0.0310*%
%ADD21C,0.0250*%
%ADD22C,0.0200*%
%ADD23C,0.0160*%
%ADD24C,0.0180*%
%ADD25C,0.0080*%
%ADD26C,0.0270*%
%ADD27C,0.0280*%
%ADD28C,0.0500*%
%ADD29C,0.0300*%
D10*
X000937Y002139D02*
X013750Y002139D01*
X014950Y002139D01*
X018654Y002139D01*
X018708Y002141D01*
X018761Y002146D01*
X018814Y002155D01*
X018866Y002168D01*
X018918Y002184D01*
X018968Y002204D01*
X019016Y002227D01*
X019063Y002254D01*
X019108Y002283D01*
X019151Y002316D01*
X019191Y002351D01*
X019229Y002389D01*
X019264Y002429D01*
X019297Y002472D01*
X019326Y002517D01*
X019353Y002564D01*
X019376Y002612D01*
X019396Y002662D01*
X019412Y002714D01*
X019425Y002766D01*
X019434Y002819D01*
X019439Y002872D01*
X019441Y002926D01*
X019441Y011352D01*
X019439Y011406D01*
X019434Y011459D01*
X019425Y011512D01*
X019412Y011564D01*
X019396Y011616D01*
X019376Y011666D01*
X019353Y011714D01*
X019326Y011761D01*
X019297Y011806D01*
X019264Y011849D01*
X019229Y011889D01*
X019191Y011927D01*
X019151Y011962D01*
X019108Y011995D01*
X019063Y012024D01*
X019016Y012051D01*
X018968Y012074D01*
X018918Y012094D01*
X018866Y012110D01*
X018814Y012123D01*
X018761Y012132D01*
X018708Y012137D01*
X018654Y012139D01*
X014900Y012139D01*
X013700Y012139D01*
X000937Y012139D01*
X000883Y012137D01*
X000830Y012132D01*
X000777Y012123D01*
X000725Y012110D01*
X000673Y012094D01*
X000623Y012074D01*
X000575Y012051D01*
X000528Y012024D01*
X000483Y011995D01*
X000440Y011962D01*
X000400Y011927D01*
X000362Y011889D01*
X000327Y011849D01*
X000294Y011806D01*
X000265Y011761D01*
X000238Y011714D01*
X000215Y011666D01*
X000195Y011616D01*
X000179Y011564D01*
X000166Y011512D01*
X000157Y011459D01*
X000152Y011406D01*
X000150Y011352D01*
X000150Y002926D01*
X000152Y002872D01*
X000157Y002819D01*
X000166Y002766D01*
X000179Y002714D01*
X000195Y002662D01*
X000215Y002612D01*
X000238Y002564D01*
X000265Y002517D01*
X000294Y002472D01*
X000327Y002429D01*
X000362Y002389D01*
X000400Y002351D01*
X000440Y002316D01*
X000483Y002283D01*
X000528Y002254D01*
X000575Y002227D01*
X000623Y002204D01*
X000673Y002184D01*
X000725Y002168D01*
X000777Y002155D01*
X000830Y002146D01*
X000883Y002141D01*
X000937Y002139D01*
D11*
X009008Y006139D03*
X008008Y007139D03*
X009008Y008139D03*
D12*
X001100Y011189D03*
D13*
X018420Y009560D02*
X018422Y009588D01*
X018428Y009615D01*
X018437Y009641D01*
X018450Y009666D01*
X018467Y009689D01*
X018486Y009709D01*
X018508Y009726D01*
X018532Y009740D01*
X018558Y009750D01*
X018585Y009757D01*
X018613Y009760D01*
X018641Y009759D01*
X018668Y009754D01*
X018695Y009745D01*
X018720Y009733D01*
X018743Y009718D01*
X018764Y009699D01*
X018782Y009678D01*
X018797Y009654D01*
X018808Y009628D01*
X018816Y009602D01*
X018820Y009574D01*
X018820Y009546D01*
X018816Y009518D01*
X018808Y009492D01*
X018797Y009466D01*
X018782Y009442D01*
X018764Y009421D01*
X018743Y009402D01*
X018720Y009387D01*
X018695Y009375D01*
X018668Y009366D01*
X018641Y009361D01*
X018613Y009360D01*
X018585Y009363D01*
X018558Y009370D01*
X018532Y009380D01*
X018508Y009394D01*
X018486Y009411D01*
X018467Y009431D01*
X018450Y009454D01*
X018437Y009479D01*
X018428Y009505D01*
X018422Y009532D01*
X018420Y009560D01*
D14*
X018654Y004560D03*
X007050Y002939D03*
X006050Y002939D03*
X005050Y002939D03*
X004050Y002939D03*
X003050Y002939D03*
X002050Y002939D03*
X001050Y002939D03*
D15*
X014300Y007139D03*
D16*
X014300Y011839D03*
X014300Y002439D03*
D17*
X000560Y007189D03*
X000560Y009189D03*
D18*
X000608Y009231D02*
X001506Y009231D01*
X001525Y009251D02*
X001439Y009164D01*
X001392Y009050D01*
X001392Y008928D01*
X001439Y008814D01*
X001525Y008728D01*
X001639Y008681D01*
X001726Y008681D01*
X001802Y008649D01*
X003851Y008649D01*
X004010Y008490D01*
X004010Y006238D01*
X003664Y005893D01*
X003597Y005825D01*
X003560Y005737D01*
X003560Y003888D01*
X003461Y003789D01*
X003300Y003789D01*
X003208Y003751D01*
X003138Y003681D01*
X003138Y003681D01*
X003113Y003656D01*
X003088Y003631D01*
X002936Y003478D01*
X002910Y003459D01*
X002901Y003444D01*
X002895Y003438D01*
X002755Y003380D01*
X002609Y003234D01*
X002549Y003087D01*
X002532Y003139D01*
X002495Y003212D01*
X002447Y003278D01*
X002389Y003336D01*
X002323Y003384D01*
X002250Y003421D01*
X002172Y003446D01*
X002100Y003458D01*
X002100Y002989D01*
X002000Y002989D01*
X002000Y002889D01*
X002100Y002889D01*
X002100Y002421D01*
X002172Y002432D01*
X002250Y002457D01*
X002323Y002494D01*
X002389Y002542D01*
X002447Y002600D01*
X002495Y002667D01*
X002532Y002739D01*
X002549Y002791D01*
X002609Y002645D01*
X002755Y002498D01*
X002947Y002419D01*
X003153Y002419D01*
X003345Y002498D01*
X003491Y002645D01*
X003550Y002787D01*
X003609Y002645D01*
X003755Y002498D01*
X003947Y002419D01*
X004153Y002419D01*
X004345Y002498D01*
X004491Y002645D01*
X004550Y002787D01*
X004609Y002645D01*
X004755Y002498D01*
X004947Y002419D01*
X005153Y002419D01*
X005345Y002498D01*
X005491Y002645D01*
X005550Y002787D01*
X005609Y002645D01*
X005755Y002498D01*
X005947Y002419D01*
X006153Y002419D01*
X006345Y002498D01*
X006491Y002645D01*
X006550Y002787D01*
X006609Y002645D01*
X006755Y002498D01*
X006947Y002419D01*
X007153Y002419D01*
X007345Y002498D01*
X007491Y002645D01*
X007570Y002836D01*
X007570Y002964D01*
X007870Y002647D01*
X007870Y002644D01*
X007935Y002579D01*
X007999Y002512D01*
X008002Y002512D01*
X008005Y002509D01*
X008097Y002509D01*
X008189Y002507D01*
X008192Y002509D01*
X011691Y002509D01*
X011694Y002506D01*
X011795Y002464D01*
X011905Y002464D01*
X012006Y002506D01*
X012009Y002509D01*
X012141Y002509D01*
X012144Y002506D01*
X012245Y002464D01*
X012355Y002464D01*
X012456Y002506D01*
X012533Y002583D01*
X012575Y002684D01*
X012575Y002794D01*
X012533Y002895D01*
X012456Y002972D01*
X012355Y003014D01*
X012245Y003014D01*
X012144Y002972D01*
X012141Y002969D01*
X012009Y002969D01*
X012006Y002972D01*
X011905Y003014D01*
X011795Y003014D01*
X011694Y002972D01*
X011691Y002969D01*
X010799Y002969D01*
X010840Y003010D01*
X011029Y003199D01*
X015721Y003199D01*
X016225Y002695D01*
X016225Y002634D01*
X016267Y002533D01*
X015250Y002533D01*
X015250Y002549D02*
X015204Y002659D01*
X015180Y002683D01*
X015180Y002834D01*
X015045Y002969D01*
X014794Y002969D01*
X014770Y002993D01*
X014660Y003039D01*
X014540Y003039D01*
X014430Y002993D01*
X014346Y002909D01*
X014317Y002839D01*
X013647Y002839D01*
X013559Y002751D01*
X013559Y002294D01*
X000937Y002294D01*
X000838Y002302D01*
X000650Y002363D01*
X000490Y002479D01*
X000374Y002639D01*
X000313Y002828D01*
X000305Y002926D01*
X000305Y006853D01*
X000305Y006852D01*
X000343Y006842D01*
X000512Y006842D01*
X000512Y007141D01*
X000608Y007141D01*
X000608Y006842D01*
X000777Y006842D01*
X000815Y006852D01*
X000849Y006872D01*
X000877Y006900D01*
X000897Y006934D01*
X000907Y006972D01*
X000907Y007141D01*
X000608Y007141D01*
X000608Y007238D01*
X000512Y007238D01*
X000512Y007536D01*
X000343Y007536D01*
X000305Y007526D01*
X000305Y007526D01*
X000305Y008853D01*
X000305Y008852D01*
X000343Y008842D01*
X000512Y008842D01*
X000512Y009141D01*
X000608Y009141D01*
X000608Y008842D01*
X000777Y008842D01*
X000815Y008852D01*
X000849Y008872D01*
X000877Y008900D01*
X000897Y008934D01*
X000907Y008972D01*
X000907Y009141D01*
X000608Y009141D01*
X000608Y009238D01*
X000512Y009238D01*
X000512Y009536D01*
X000343Y009536D01*
X000305Y009526D01*
X000305Y009526D01*
X000305Y011352D01*
X000313Y011451D01*
X000374Y011639D01*
X000490Y011799D01*
X000650Y011915D01*
X000838Y011976D01*
X000937Y011984D01*
X013471Y011984D01*
X013396Y011909D01*
X013350Y011799D01*
X013350Y011679D01*
X013396Y011569D01*
X013480Y011485D01*
X013590Y011439D01*
X015010Y011439D01*
X015120Y011485D01*
X015204Y011569D01*
X015250Y011679D01*
X015250Y011799D01*
X015204Y011909D01*
X015129Y011984D01*
X018654Y011984D01*
X018753Y011976D01*
X018941Y011915D01*
X019101Y011799D01*
X019217Y011639D01*
X019279Y011451D01*
X019286Y011352D01*
X019286Y002926D01*
X019279Y002828D01*
X019217Y002639D01*
X019101Y002479D01*
X018941Y002363D01*
X018753Y002302D01*
X018654Y002294D01*
X015179Y002294D01*
X015204Y002319D01*
X015250Y002429D01*
X015250Y002549D01*
X015216Y002632D02*
X016226Y002632D01*
X016190Y002730D02*
X015180Y002730D01*
X015180Y002829D02*
X016092Y002829D01*
X015993Y002927D02*
X015087Y002927D01*
X014692Y003026D02*
X015895Y003026D01*
X015796Y003124D02*
X010954Y003124D01*
X010855Y003026D02*
X014508Y003026D01*
X014364Y002927D02*
X012501Y002927D01*
X012561Y002829D02*
X013637Y002829D01*
X013559Y002730D02*
X012575Y002730D01*
X012553Y002632D02*
X013559Y002632D01*
X013559Y002533D02*
X012483Y002533D01*
X013559Y002435D02*
X007191Y002435D01*
X007379Y002533D02*
X007978Y002533D01*
X007882Y002632D02*
X007478Y002632D01*
X007526Y002730D02*
X007792Y002730D01*
X007698Y002829D02*
X007567Y002829D01*
X007570Y002927D02*
X007605Y002927D01*
X006721Y002533D02*
X006379Y002533D01*
X006478Y002632D02*
X006622Y002632D01*
X006574Y002730D02*
X006526Y002730D01*
X006191Y002435D02*
X006909Y002435D01*
X005909Y002435D02*
X005191Y002435D01*
X005379Y002533D02*
X005721Y002533D01*
X005622Y002632D02*
X005478Y002632D01*
X005526Y002730D02*
X005574Y002730D01*
X004909Y002435D02*
X004191Y002435D01*
X004379Y002533D02*
X004721Y002533D01*
X004622Y002632D02*
X004478Y002632D01*
X004526Y002730D02*
X004574Y002730D01*
X003909Y002435D02*
X003191Y002435D01*
X003379Y002533D02*
X003721Y002533D01*
X003622Y002632D02*
X003478Y002632D01*
X003526Y002730D02*
X003574Y002730D01*
X002909Y002435D02*
X002180Y002435D01*
X002100Y002435D02*
X002000Y002435D01*
X002000Y002421D02*
X002000Y002889D01*
X001100Y002889D01*
X001100Y002421D01*
X001172Y002432D01*
X001250Y002457D01*
X001323Y002494D01*
X001389Y002542D01*
X001447Y002600D01*
X001495Y002667D01*
X001532Y002739D01*
X001550Y002795D01*
X001568Y002739D01*
X001605Y002667D01*
X001653Y002600D01*
X001711Y002542D01*
X001777Y002494D01*
X001850Y002457D01*
X001928Y002432D01*
X002000Y002421D01*
X001920Y002435D02*
X001180Y002435D01*
X001100Y002435D02*
X001000Y002435D01*
X001000Y002421D02*
X001000Y002889D01*
X001100Y002889D01*
X001100Y002989D01*
X001569Y002989D01*
X002000Y002989D01*
X002000Y003458D01*
X001928Y003446D01*
X001850Y003421D01*
X001777Y003384D01*
X001711Y003336D01*
X001653Y003278D01*
X001605Y003212D01*
X001568Y003139D01*
X001550Y003083D01*
X001532Y003139D01*
X001495Y003212D01*
X001447Y003278D01*
X001389Y003336D01*
X001323Y003384D01*
X001250Y003421D01*
X001172Y003446D01*
X001100Y003458D01*
X001100Y002989D01*
X001000Y002989D01*
X001000Y002889D01*
X000531Y002889D01*
X000543Y002817D01*
X000568Y002739D01*
X000605Y002667D01*
X000653Y002600D01*
X000711Y002542D01*
X000777Y002494D01*
X000850Y002457D01*
X000928Y002432D01*
X001000Y002421D01*
X000920Y002435D02*
X000552Y002435D01*
X000451Y002533D02*
X000724Y002533D01*
X000631Y002632D02*
X000380Y002632D01*
X000344Y002730D02*
X000573Y002730D01*
X000541Y002829D02*
X000313Y002829D01*
X000305Y002927D02*
X001000Y002927D01*
X001000Y002989D02*
X000531Y002989D01*
X000543Y003061D01*
X000568Y003139D01*
X000605Y003212D01*
X000653Y003278D01*
X000711Y003336D01*
X000777Y003384D01*
X000850Y003421D01*
X000928Y003446D01*
X001000Y003458D01*
X001000Y002989D01*
X001000Y003026D02*
X001100Y003026D01*
X001100Y003124D02*
X001000Y003124D01*
X001000Y003223D02*
X001100Y003223D01*
X001100Y003321D02*
X001000Y003321D01*
X001000Y003420D02*
X001100Y003420D01*
X001252Y003420D02*
X001848Y003420D01*
X002000Y003420D02*
X002100Y003420D01*
X002100Y003321D02*
X002000Y003321D01*
X002000Y003223D02*
X002100Y003223D01*
X002100Y003124D02*
X002000Y003124D01*
X002000Y003026D02*
X002100Y003026D01*
X002000Y002927D02*
X001100Y002927D01*
X001100Y002829D02*
X001000Y002829D01*
X001000Y002730D02*
X001100Y002730D01*
X001100Y002632D02*
X001000Y002632D01*
X001000Y002533D02*
X001100Y002533D01*
X001376Y002533D02*
X001724Y002533D01*
X001631Y002632D02*
X001469Y002632D01*
X001527Y002730D02*
X001573Y002730D01*
X002000Y002730D02*
X002100Y002730D01*
X002100Y002632D02*
X002000Y002632D01*
X002000Y002533D02*
X002100Y002533D01*
X002376Y002533D02*
X002721Y002533D01*
X002622Y002632D02*
X002469Y002632D01*
X002527Y002730D02*
X002574Y002730D01*
X002100Y002829D02*
X002000Y002829D01*
X001563Y003124D02*
X001537Y003124D01*
X001487Y003223D02*
X001613Y003223D01*
X001697Y003321D02*
X001403Y003321D01*
X000848Y003420D02*
X000305Y003420D01*
X000305Y003518D02*
X002975Y003518D01*
X003074Y003617D02*
X000305Y003617D01*
X000305Y003715D02*
X003172Y003715D01*
X003485Y003814D02*
X000305Y003814D01*
X000305Y003912D02*
X003560Y003912D01*
X003560Y004011D02*
X000305Y004011D01*
X000305Y004109D02*
X001491Y004109D01*
X001478Y004122D02*
X001515Y004085D01*
X001561Y004059D01*
X001611Y004045D01*
X001788Y004045D01*
X001788Y004539D01*
X001438Y004539D01*
X001438Y004219D01*
X001451Y004168D01*
X001478Y004122D01*
X001441Y004208D02*
X000305Y004208D01*
X000305Y004306D02*
X001438Y004306D01*
X001438Y004405D02*
X000305Y004405D01*
X000305Y004503D02*
X001438Y004503D01*
X001438Y004639D02*
X001438Y004959D01*
X001451Y005010D01*
X001478Y005055D01*
X001515Y005092D01*
X001561Y005119D01*
X001611Y005132D01*
X001788Y005132D01*
X001788Y004639D01*
X001888Y004639D01*
X001888Y005132D01*
X002064Y005132D01*
X002115Y005119D01*
X002161Y005092D01*
X002198Y005055D01*
X002224Y005010D01*
X002238Y004959D01*
X002238Y004639D01*
X001888Y004639D01*
X001888Y004539D01*
X002238Y004539D01*
X002238Y004219D01*
X002224Y004168D01*
X002198Y004122D01*
X002161Y004085D01*
X002115Y004059D01*
X002064Y004045D01*
X001888Y004045D01*
X001888Y004539D01*
X001788Y004539D01*
X001788Y004639D01*
X001438Y004639D01*
X001438Y004700D02*
X000305Y004700D01*
X000305Y004602D02*
X001788Y004602D01*
X002038Y004932D02*
X002038Y004246D01*
X001638Y004246D01*
X001638Y004932D01*
X002038Y004932D01*
X002038Y004345D02*
X001638Y004345D01*
X001638Y004444D02*
X002038Y004444D01*
X002038Y004543D02*
X001638Y004543D01*
X001638Y004642D02*
X002038Y004642D01*
X002038Y004741D02*
X001638Y004741D01*
X001638Y004840D02*
X002038Y004840D01*
X001888Y004799D02*
X001788Y004799D01*
X001788Y004897D02*
X001888Y004897D01*
X001888Y004996D02*
X001788Y004996D01*
X001788Y005094D02*
X001888Y005094D01*
X001995Y005214D02*
X002105Y005214D01*
X002206Y005256D01*
X002283Y005333D01*
X002325Y005434D01*
X002325Y005544D01*
X002283Y005645D01*
X002206Y005722D01*
X002105Y005764D01*
X002094Y005764D01*
X001679Y006179D01*
X001490Y006368D01*
X001490Y006440D01*
X001533Y006483D01*
X001575Y006584D01*
X001575Y006694D01*
X001533Y006795D01*
X001456Y006872D01*
X001355Y006914D01*
X001245Y006914D01*
X001144Y006872D01*
X001067Y006795D01*
X001025Y006694D01*
X001025Y006584D01*
X001067Y006483D01*
X001110Y006440D01*
X001110Y006210D01*
X001410Y005910D01*
X001775Y005545D01*
X001775Y005544D01*
X001775Y005434D01*
X001817Y005333D01*
X001894Y005256D01*
X001995Y005214D01*
X001859Y005291D02*
X000305Y005291D01*
X000305Y005193D02*
X002410Y005193D01*
X002410Y005132D02*
X002380Y005132D01*
X002263Y005015D01*
X002263Y004162D01*
X002380Y004045D01*
X002945Y004045D01*
X003063Y004162D01*
X003063Y005015D01*
X002945Y005132D01*
X002790Y005132D01*
X002790Y006410D01*
X002879Y006499D01*
X003318Y006938D01*
X003365Y006967D01*
X003372Y006992D01*
X003390Y007010D01*
X003390Y007049D01*
X003406Y007056D01*
X003483Y007133D01*
X003525Y007234D01*
X003525Y007344D01*
X003483Y007445D01*
X003406Y007522D01*
X003305Y007564D01*
X003195Y007564D01*
X003094Y007522D01*
X003017Y007445D01*
X002975Y007344D01*
X002975Y007234D01*
X003005Y007163D01*
X002690Y007163D01*
X002690Y007143D02*
X002690Y007490D01*
X002733Y007533D01*
X002775Y007634D01*
X002775Y007744D01*
X002733Y007845D01*
X002656Y007922D01*
X002555Y007964D01*
X002445Y007964D01*
X002344Y007922D01*
X002267Y007845D01*
X002225Y007744D01*
X002225Y007634D01*
X002267Y007533D01*
X002310Y007490D01*
X002310Y007213D01*
X001895Y006764D01*
X001845Y006764D01*
X001744Y006722D01*
X001667Y006645D01*
X001625Y006544D01*
X001625Y006434D01*
X001667Y006333D01*
X001744Y006256D01*
X001845Y006214D01*
X001955Y006214D01*
X002056Y006256D01*
X002133Y006333D01*
X002175Y006434D01*
X002175Y006507D01*
X002637Y007007D01*
X002690Y007060D01*
X002690Y007065D01*
X002693Y007068D01*
X002690Y007143D01*
X002690Y007064D02*
X002906Y007064D01*
X002808Y006966D02*
X002598Y006966D01*
X002508Y006867D02*
X002709Y006867D01*
X002611Y006769D02*
X002417Y006769D01*
X002326Y006670D02*
X002512Y006670D01*
X002610Y006768D02*
X002410Y006568D01*
X002410Y005132D01*
X002341Y005094D02*
X002158Y005094D01*
X002228Y004996D02*
X002263Y004996D01*
X002263Y004897D02*
X002238Y004897D01*
X002238Y004799D02*
X002263Y004799D01*
X002263Y004700D02*
X002238Y004700D01*
X002263Y004602D02*
X001888Y004602D01*
X001888Y004700D02*
X001788Y004700D01*
X001438Y004799D02*
X000305Y004799D01*
X000305Y004897D02*
X001438Y004897D01*
X001448Y004996D02*
X000305Y004996D01*
X000305Y005094D02*
X001518Y005094D01*
X001794Y005390D02*
X000305Y005390D01*
X000305Y005488D02*
X001775Y005488D01*
X001734Y005587D02*
X000305Y005587D01*
X000305Y005685D02*
X001635Y005685D01*
X001537Y005784D02*
X000305Y005784D01*
X000305Y005882D02*
X001438Y005882D01*
X001340Y005981D02*
X000305Y005981D01*
X000305Y006079D02*
X001241Y006079D01*
X001143Y006178D02*
X000305Y006178D01*
X000305Y006276D02*
X001110Y006276D01*
X001110Y006375D02*
X000305Y006375D01*
X000305Y006473D02*
X001077Y006473D01*
X001030Y006572D02*
X000305Y006572D01*
X000305Y006670D02*
X001025Y006670D01*
X001056Y006769D02*
X000305Y006769D01*
X000512Y006867D02*
X000608Y006867D01*
X000608Y006966D02*
X000512Y006966D01*
X000512Y007064D02*
X000608Y007064D01*
X000608Y007163D02*
X002263Y007163D01*
X002310Y007261D02*
X000907Y007261D01*
X000907Y007238D02*
X000608Y007238D01*
X000608Y007536D01*
X000777Y007536D01*
X000815Y007526D01*
X000849Y007506D01*
X000877Y007478D01*
X000897Y007444D01*
X000907Y007406D01*
X000907Y007238D01*
X000907Y007360D02*
X002310Y007360D01*
X002310Y007458D02*
X000888Y007458D01*
X000608Y007458D02*
X000512Y007458D01*
X000512Y007360D02*
X000608Y007360D01*
X000608Y007261D02*
X000512Y007261D01*
X000305Y007557D02*
X002257Y007557D01*
X002225Y007655D02*
X000305Y007655D01*
X000305Y007754D02*
X002229Y007754D01*
X002274Y007852D02*
X000305Y007852D01*
X000305Y007951D02*
X002413Y007951D01*
X002587Y007951D02*
X004010Y007951D01*
X004010Y008049D02*
X000305Y008049D01*
X000305Y008148D02*
X004010Y008148D01*
X004010Y008246D02*
X000305Y008246D01*
X000305Y008345D02*
X004010Y008345D01*
X004010Y008443D02*
X000305Y008443D01*
X000305Y008542D02*
X003958Y008542D01*
X003860Y008640D02*
X000305Y008640D01*
X000305Y008739D02*
X001514Y008739D01*
X001429Y008837D02*
X000305Y008837D01*
X000512Y008936D02*
X000608Y008936D01*
X000608Y009034D02*
X000512Y009034D01*
X000512Y009133D02*
X000608Y009133D01*
X000608Y009238D02*
X000907Y009238D01*
X000907Y009406D01*
X000897Y009444D01*
X000877Y009478D01*
X000849Y009506D01*
X000815Y009526D01*
X000777Y009536D01*
X000608Y009536D01*
X000608Y009238D01*
X000608Y009330D02*
X000512Y009330D01*
X000512Y009428D02*
X000608Y009428D01*
X000608Y009527D02*
X000512Y009527D01*
X000309Y009527D02*
X000305Y009527D01*
X000305Y009625D02*
X001997Y009625D01*
X002095Y009724D02*
X000305Y009724D01*
X000305Y009822D02*
X002194Y009822D01*
X002292Y009921D02*
X000305Y009921D01*
X000305Y010019D02*
X002335Y010019D01*
X002335Y009964D02*
X001669Y009298D01*
X001639Y009298D01*
X001525Y009251D01*
X001426Y009133D02*
X000907Y009133D01*
X000907Y009034D02*
X001392Y009034D01*
X001392Y008936D02*
X000897Y008936D01*
X000907Y009330D02*
X001701Y009330D01*
X001800Y009428D02*
X000901Y009428D01*
X000811Y009527D02*
X001898Y009527D01*
X002281Y009231D02*
X005139Y009231D01*
X005041Y009330D02*
X002380Y009330D01*
X002478Y009428D02*
X004942Y009428D01*
X004844Y009527D02*
X004776Y009527D01*
X004756Y009506D02*
X004799Y009549D01*
X004821Y009549D01*
X005510Y008860D01*
X005510Y006998D01*
X005290Y007218D01*
X005290Y007918D01*
X005179Y008029D01*
X005154Y008054D01*
X005183Y008083D01*
X005225Y008184D01*
X005225Y008294D01*
X005183Y008395D01*
X005106Y008472D01*
X005005Y008514D01*
X004895Y008514D01*
X004794Y008472D01*
X004717Y008395D01*
X004675Y008294D01*
X004675Y008184D01*
X004717Y008083D01*
X004760Y008040D01*
X004760Y007910D01*
X004768Y007903D01*
X004694Y007872D01*
X004617Y007795D01*
X004575Y007694D01*
X004575Y007584D01*
X004617Y007483D01*
X004660Y007440D01*
X004660Y006860D01*
X005910Y005610D01*
X006372Y005148D01*
X006372Y005133D01*
X006279Y005133D01*
X006169Y005022D01*
X006058Y005133D01*
X005525Y005133D01*
X005290Y005368D01*
X005179Y005479D01*
X004549Y005479D01*
X004506Y005522D01*
X004405Y005564D01*
X004295Y005564D01*
X004194Y005522D01*
X004117Y005445D01*
X004075Y005344D01*
X004075Y005234D01*
X004117Y005133D01*
X004194Y005056D01*
X004295Y005014D01*
X004405Y005014D01*
X004506Y005056D01*
X004549Y005099D01*
X005021Y005099D01*
X005375Y004746D01*
X005375Y004163D01*
X005430Y004108D01*
X005367Y004045D01*
X005328Y003950D01*
X005306Y003972D01*
X005205Y004014D01*
X005095Y004014D01*
X004994Y003972D01*
X004917Y003895D01*
X004903Y003862D01*
X004812Y003789D01*
X004040Y003789D01*
X004040Y005590D01*
X004453Y006003D01*
X004490Y006091D01*
X004490Y008637D01*
X004453Y008725D01*
X004386Y008793D01*
X004086Y009093D01*
X003998Y009129D01*
X002179Y009129D01*
X002779Y009728D01*
X002815Y009817D01*
X002815Y010345D01*
X002908Y010345D01*
X003025Y010462D01*
X003025Y010472D01*
X003026Y010468D01*
X003053Y010422D01*
X003090Y010385D01*
X003135Y010359D01*
X003186Y010345D01*
X003363Y010345D01*
X003363Y010839D01*
X003463Y010839D01*
X003463Y010939D01*
X003813Y010939D01*
X003813Y011259D01*
X003799Y011310D01*
X003773Y011355D01*
X003735Y011392D01*
X003690Y011419D01*
X003639Y011432D01*
X003463Y011432D01*
X003463Y010939D01*
X003363Y010939D01*
X003363Y011432D01*
X003186Y011432D01*
X003135Y011419D01*
X003090Y011392D01*
X003053Y011355D01*
X003026Y011310D01*
X003025Y011306D01*
X003025Y011315D01*
X002908Y011432D01*
X002342Y011432D01*
X002231Y011322D01*
X002121Y011432D01*
X001708Y011432D01*
X001708Y011432D01*
X001623Y011493D01*
X001396Y011579D01*
X001245Y011594D01*
X001186Y011619D01*
X001014Y011619D01*
X000856Y011554D01*
X000735Y011433D01*
X000670Y011275D01*
X000670Y011104D01*
X000735Y010946D01*
X000856Y010825D01*
X001014Y010759D01*
X001186Y010759D01*
X001238Y010781D01*
X001268Y010763D01*
X001319Y010727D01*
X001336Y010723D01*
X001438Y010662D01*
X001438Y010462D01*
X001555Y010345D01*
X002121Y010345D01*
X002231Y010456D01*
X002335Y010352D01*
X002335Y009964D01*
X002335Y010118D02*
X000305Y010118D01*
X000305Y010216D02*
X002335Y010216D01*
X002335Y010315D02*
X000305Y010315D01*
X000305Y010413D02*
X001487Y010413D01*
X001438Y010512D02*
X000305Y010512D01*
X000305Y010610D02*
X001438Y010610D01*
X001359Y010709D02*
X000305Y010709D01*
X000305Y010807D02*
X000899Y010807D01*
X000775Y010906D02*
X000305Y010906D01*
X000305Y011004D02*
X000711Y011004D01*
X000670Y011103D02*
X000305Y011103D01*
X000305Y011201D02*
X000670Y011201D01*
X000680Y011300D02*
X000305Y011300D01*
X000309Y011398D02*
X000721Y011398D01*
X000799Y011497D02*
X000328Y011497D01*
X000360Y011595D02*
X000957Y011595D01*
X001243Y011595D02*
X013385Y011595D01*
X013350Y011694D02*
X000414Y011694D01*
X000374Y011639D02*
X000374Y011639D01*
X000485Y011792D02*
X013350Y011792D01*
X013388Y011891D02*
X000617Y011891D01*
X001614Y011497D02*
X013468Y011497D01*
X013171Y010929D02*
X012821Y010579D01*
X008221Y010579D01*
X007921Y010279D01*
X007460Y009818D01*
X007460Y009288D01*
X007417Y009245D01*
X007375Y009144D01*
X007375Y009034D01*
X005890Y009034D01*
X005890Y008936D02*
X007416Y008936D01*
X007417Y008933D02*
X007494Y008856D01*
X007595Y008814D01*
X007705Y008814D01*
X007806Y008856D01*
X007883Y008933D01*
X007925Y009034D01*
X019286Y009034D01*
X019286Y008936D02*
X007884Y008936D01*
X007925Y009034D02*
X007925Y009144D01*
X007883Y009245D01*
X007840Y009288D01*
X007840Y009660D01*
X008190Y010010D01*
X008379Y010199D01*
X012979Y010199D01*
X013090Y010310D01*
X013329Y010549D01*
X015571Y010549D01*
X015846Y010274D01*
X015817Y010245D01*
X015775Y010144D01*
X015775Y010034D01*
X015817Y009933D01*
X015894Y009856D01*
X015995Y009814D01*
X016105Y009814D01*
X016206Y009856D01*
X016283Y009933D01*
X016325Y010034D01*
X016325Y010144D01*
X016283Y010245D01*
X016240Y010288D01*
X016240Y010418D01*
X015840Y010818D01*
X015729Y010929D01*
X013171Y010929D01*
X013148Y010906D02*
X008715Y010906D01*
X008723Y010913D02*
X008765Y011014D01*
X008765Y011124D01*
X008723Y011225D01*
X008646Y011302D01*
X008545Y011344D01*
X008435Y011344D01*
X008334Y011302D01*
X008282Y011250D01*
X008266Y011249D01*
X008191Y011249D01*
X008188Y011246D01*
X008183Y011245D01*
X008133Y011190D01*
X008071Y011129D01*
X007321Y010379D01*
X006910Y009968D01*
X006910Y009538D01*
X006867Y009495D01*
X006825Y009394D01*
X006825Y009284D01*
X006867Y009183D01*
X006944Y009106D01*
X007045Y009064D01*
X007155Y009064D01*
X007256Y009106D01*
X007333Y009183D01*
X007375Y009284D01*
X007375Y009394D01*
X007333Y009495D01*
X007290Y009538D01*
X007290Y009810D01*
X007590Y010110D01*
X008325Y010845D01*
X008334Y010836D01*
X008435Y010794D01*
X008545Y010794D01*
X008646Y010836D01*
X008723Y010913D01*
X008761Y011004D02*
X019286Y011004D01*
X019286Y010906D02*
X015752Y010906D01*
X015851Y010807D02*
X019286Y010807D01*
X019286Y010709D02*
X015949Y010709D01*
X016048Y010610D02*
X019286Y010610D01*
X019286Y010512D02*
X016146Y010512D01*
X016240Y010413D02*
X019286Y010413D01*
X019286Y010315D02*
X016240Y010315D01*
X016295Y010216D02*
X019286Y010216D01*
X019286Y010118D02*
X016325Y010118D01*
X016319Y010019D02*
X019286Y010019D01*
X019286Y009921D02*
X016270Y009921D01*
X016124Y009822D02*
X018387Y009822D01*
X018422Y009857D02*
X018323Y009759D01*
X018270Y009630D01*
X018270Y009491D01*
X018323Y009362D01*
X018422Y009264D01*
X018550Y009210D01*
X018690Y009210D01*
X018818Y009264D01*
X018917Y009362D01*
X018970Y009491D01*
X018970Y009630D01*
X018917Y009759D01*
X018818Y009857D01*
X018690Y009910D01*
X018550Y009910D01*
X018422Y009857D01*
X018309Y009724D02*
X007903Y009724D01*
X007840Y009625D02*
X018270Y009625D01*
X018270Y009527D02*
X007840Y009527D01*
X007840Y009428D02*
X018296Y009428D01*
X018356Y009330D02*
X007840Y009330D01*
X007889Y009231D02*
X018500Y009231D01*
X018740Y009231D02*
X019286Y009231D01*
X019286Y009133D02*
X007925Y009133D01*
X007460Y009330D02*
X007375Y009330D01*
X007361Y009428D02*
X007460Y009428D01*
X007460Y009527D02*
X007301Y009527D01*
X007290Y009625D02*
X007460Y009625D01*
X007460Y009724D02*
X007290Y009724D01*
X007302Y009822D02*
X007464Y009822D01*
X007400Y009921D02*
X007563Y009921D01*
X007499Y010019D02*
X007661Y010019D01*
X007597Y010118D02*
X007760Y010118D01*
X007696Y010216D02*
X007858Y010216D01*
X007794Y010315D02*
X007957Y010315D01*
X007893Y010413D02*
X008055Y010413D01*
X007991Y010512D02*
X008154Y010512D01*
X008090Y010610D02*
X012852Y010610D01*
X012951Y010709D02*
X008188Y010709D01*
X008287Y010807D02*
X008404Y010807D01*
X008576Y010807D02*
X013049Y010807D01*
X013291Y010512D02*
X015609Y010512D01*
X015707Y010413D02*
X013193Y010413D01*
X013094Y010315D02*
X015806Y010315D01*
X015805Y010216D02*
X012996Y010216D01*
X015132Y011497D02*
X019264Y011497D01*
X019283Y011398D02*
X006879Y011398D01*
X006845Y011432D02*
X006955Y011323D01*
X006956Y011322D01*
X007033Y011245D01*
X007075Y011144D01*
X007075Y011034D01*
X007033Y010933D01*
X006962Y010862D01*
X006962Y010462D01*
X006845Y010345D01*
X006279Y010345D01*
X006169Y010456D01*
X006058Y010345D01*
X005890Y010345D01*
X005890Y007762D01*
X005895Y007764D01*
X006005Y007764D01*
X006106Y007722D01*
X006183Y007645D01*
X006225Y007544D01*
X006225Y007434D01*
X006183Y007333D01*
X006140Y007290D01*
X006140Y007068D01*
X006490Y006718D01*
X007879Y005329D01*
X008729Y005329D01*
X009023Y005034D01*
X009095Y005064D01*
X009205Y005064D01*
X009306Y005022D01*
X009383Y004945D01*
X009425Y004844D01*
X009425Y004734D01*
X009383Y004633D01*
X009306Y004556D01*
X009205Y004514D01*
X009194Y004514D01*
X009529Y004179D01*
X010001Y004179D01*
X010044Y004222D01*
X010145Y004264D01*
X010255Y004264D01*
X010356Y004222D01*
X010433Y004145D01*
X010475Y004044D01*
X010475Y003934D01*
X010433Y003833D01*
X010356Y003756D01*
X010308Y003736D01*
X010325Y003694D01*
X010325Y003584D01*
X010283Y003483D01*
X010206Y003406D01*
X010105Y003364D01*
X009995Y003364D01*
X009894Y003406D01*
X009851Y003449D01*
X009421Y003449D01*
X009160Y003710D01*
X008760Y004110D01*
X008371Y004499D01*
X007471Y004499D01*
X007360Y004610D01*
X007360Y004610D01*
X006962Y005008D01*
X006962Y004479D01*
X007779Y004479D01*
X007894Y004364D01*
X007955Y004364D01*
X008056Y004322D01*
X008133Y004245D01*
X008175Y004144D01*
X008175Y004034D01*
X008133Y003933D01*
X008056Y003856D01*
X007955Y003814D01*
X007845Y003814D01*
X007843Y003815D01*
X008223Y003434D01*
X008295Y003464D01*
X008405Y003464D01*
X008506Y003422D01*
X008583Y003345D01*
X008610Y003279D01*
X010571Y003279D01*
X010760Y003468D01*
X010871Y003579D01*
X015879Y003579D01*
X015990Y003468D01*
X015990Y003468D01*
X016494Y002964D01*
X016555Y002964D01*
X016656Y002922D01*
X016733Y002845D01*
X016775Y002744D01*
X016775Y002634D01*
X016733Y002533D01*
X019140Y002533D01*
X019212Y002632D02*
X016774Y002632D01*
X016775Y002730D02*
X019247Y002730D01*
X019279Y002829D02*
X016740Y002829D01*
X016644Y002927D02*
X019286Y002927D01*
X019286Y003026D02*
X016432Y003026D01*
X016334Y003124D02*
X019286Y003124D01*
X019286Y003223D02*
X016235Y003223D01*
X016137Y003321D02*
X019286Y003321D01*
X019286Y003420D02*
X016038Y003420D01*
X015940Y003518D02*
X019286Y003518D01*
X019286Y003617D02*
X010325Y003617D01*
X010316Y003715D02*
X019286Y003715D01*
X019286Y003814D02*
X010413Y003814D01*
X010466Y003912D02*
X019286Y003912D01*
X019286Y004011D02*
X010475Y004011D01*
X010448Y004109D02*
X018394Y004109D01*
X018381Y004116D02*
X018454Y004078D01*
X018532Y004053D01*
X018604Y004042D01*
X018604Y004510D01*
X018704Y004510D01*
X018704Y004042D01*
X018776Y004053D01*
X018854Y004078D01*
X018926Y004116D01*
X018993Y004164D01*
X019051Y004222D01*
X019099Y004288D01*
X019136Y004361D01*
X019161Y004439D01*
X019172Y004510D01*
X018704Y004510D01*
X018704Y004610D01*
X019172Y004610D01*
X019161Y004682D01*
X019136Y004760D01*
X019099Y004833D01*
X019051Y004899D01*
X018993Y004957D01*
X018926Y005005D01*
X018854Y005042D01*
X018776Y005068D01*
X018704Y005079D01*
X018704Y004610D01*
X018604Y004610D01*
X018604Y004510D01*
X018135Y004510D01*
X018147Y004439D01*
X018172Y004361D01*
X018209Y004288D01*
X018257Y004222D01*
X018315Y004164D01*
X018381Y004116D01*
X018271Y004208D02*
X010370Y004208D01*
X010030Y004208D02*
X009500Y004208D01*
X009402Y004306D02*
X018200Y004306D01*
X018158Y004405D02*
X009303Y004405D01*
X009205Y004503D02*
X018137Y004503D01*
X018135Y004610D02*
X018604Y004610D01*
X018604Y005079D01*
X018532Y005068D01*
X018454Y005042D01*
X018381Y005005D01*
X018315Y004957D01*
X018257Y004899D01*
X018209Y004833D01*
X018172Y004760D01*
X018147Y004682D01*
X018135Y004610D01*
X018153Y004700D02*
X009411Y004700D01*
X009425Y004799D02*
X018192Y004799D01*
X018256Y004897D02*
X009403Y004897D01*
X009332Y004996D02*
X018368Y004996D01*
X018604Y004996D02*
X018704Y004996D01*
X018704Y004897D02*
X018604Y004897D01*
X018604Y004799D02*
X018704Y004799D01*
X018704Y004700D02*
X018604Y004700D01*
X018604Y004602D02*
X009351Y004602D01*
X008663Y004208D02*
X008149Y004208D01*
X008175Y004109D02*
X008761Y004109D01*
X008860Y004011D02*
X008165Y004011D01*
X008112Y003912D02*
X008958Y003912D01*
X009057Y003814D02*
X007844Y003814D01*
X007943Y003715D02*
X009155Y003715D01*
X009254Y003617D02*
X008041Y003617D01*
X008100Y003739D02*
X008250Y003589D01*
X008140Y003518D02*
X009352Y003518D01*
X009881Y003420D02*
X008508Y003420D01*
X008593Y003321D02*
X010613Y003321D01*
X010712Y003420D02*
X010219Y003420D01*
X010298Y003518D02*
X010810Y003518D01*
X008564Y004306D02*
X008072Y004306D01*
X007853Y004405D02*
X008466Y004405D01*
X007467Y004503D02*
X006962Y004503D01*
X006962Y004602D02*
X007369Y004602D01*
X007270Y004700D02*
X006962Y004700D01*
X006962Y004799D02*
X007172Y004799D01*
X007073Y004897D02*
X006962Y004897D01*
X006962Y004996D02*
X006975Y004996D01*
X006762Y004932D02*
X006762Y004246D01*
X006362Y004246D01*
X006362Y004932D01*
X006762Y004932D01*
X006762Y004345D02*
X006362Y004345D01*
X006362Y004444D02*
X006762Y004444D01*
X006762Y004543D02*
X006362Y004543D01*
X006362Y004642D02*
X006762Y004642D01*
X006762Y004741D02*
X006362Y004741D01*
X006362Y004840D02*
X006762Y004840D01*
X006240Y005094D02*
X006097Y005094D01*
X006328Y005193D02*
X005465Y005193D01*
X005367Y005291D02*
X006229Y005291D01*
X006131Y005390D02*
X005268Y005390D01*
X005026Y005094D02*
X004544Y005094D01*
X004156Y005094D02*
X004040Y005094D01*
X004040Y004996D02*
X005125Y004996D01*
X005223Y004897D02*
X004040Y004897D01*
X004040Y004799D02*
X005322Y004799D01*
X005375Y004700D02*
X004040Y004700D01*
X004040Y004602D02*
X005375Y004602D01*
X005375Y004503D02*
X004040Y004503D01*
X004040Y004405D02*
X005375Y004405D01*
X005375Y004306D02*
X004040Y004306D01*
X004040Y004208D02*
X005375Y004208D01*
X005429Y004109D02*
X004040Y004109D01*
X004040Y004011D02*
X005087Y004011D01*
X005213Y004011D02*
X005353Y004011D01*
X004934Y003912D02*
X004040Y003912D01*
X004040Y003814D02*
X004843Y003814D01*
X003560Y004109D02*
X003010Y004109D01*
X003063Y004208D02*
X003560Y004208D01*
X003560Y004306D02*
X003063Y004306D01*
X003063Y004405D02*
X003560Y004405D01*
X003560Y004503D02*
X003063Y004503D01*
X003063Y004602D02*
X003560Y004602D01*
X003560Y004700D02*
X003063Y004700D01*
X003063Y004799D02*
X003560Y004799D01*
X003560Y004897D02*
X003063Y004897D01*
X003063Y004996D02*
X003560Y004996D01*
X003560Y005094D02*
X002984Y005094D01*
X002790Y005193D02*
X003560Y005193D01*
X003560Y005291D02*
X002790Y005291D01*
X002790Y005390D02*
X003560Y005390D01*
X003560Y005488D02*
X002790Y005488D01*
X002790Y005587D02*
X003560Y005587D01*
X003560Y005685D02*
X002790Y005685D01*
X002790Y005784D02*
X003579Y005784D01*
X003654Y005882D02*
X002790Y005882D01*
X002790Y005981D02*
X003752Y005981D01*
X003851Y006079D02*
X002790Y006079D01*
X002790Y006178D02*
X003949Y006178D01*
X004010Y006276D02*
X002790Y006276D01*
X002790Y006375D02*
X004010Y006375D01*
X004010Y006473D02*
X002853Y006473D01*
X002951Y006572D02*
X004010Y006572D01*
X004010Y006670D02*
X003050Y006670D01*
X003148Y006769D02*
X004010Y006769D01*
X004010Y006867D02*
X003247Y006867D01*
X003363Y006966D02*
X004010Y006966D01*
X004010Y007064D02*
X003414Y007064D01*
X003495Y007163D02*
X004010Y007163D01*
X004010Y007261D02*
X003525Y007261D01*
X003518Y007360D02*
X004010Y007360D01*
X004010Y007458D02*
X003470Y007458D01*
X003323Y007557D02*
X004010Y007557D01*
X004010Y007655D02*
X002775Y007655D01*
X002771Y007754D02*
X004010Y007754D01*
X004010Y007852D02*
X002726Y007852D01*
X002743Y007557D02*
X003177Y007557D01*
X003030Y007458D02*
X002690Y007458D01*
X002690Y007360D02*
X002982Y007360D01*
X002975Y007261D02*
X002690Y007261D01*
X003005Y007163D02*
X002610Y006768D01*
X002414Y006572D02*
X002235Y006572D01*
X002175Y006473D02*
X002410Y006473D01*
X002410Y006375D02*
X002150Y006375D01*
X002076Y006276D02*
X002410Y006276D01*
X002410Y006178D02*
X001680Y006178D01*
X001724Y006276D02*
X001582Y006276D01*
X001650Y006375D02*
X001490Y006375D01*
X001523Y006473D02*
X001625Y006473D01*
X001637Y006572D02*
X001570Y006572D01*
X001575Y006670D02*
X001692Y006670D01*
X001544Y006769D02*
X001899Y006769D01*
X001990Y006867D02*
X001461Y006867D01*
X001139Y006867D02*
X000840Y006867D01*
X000905Y006966D02*
X002081Y006966D01*
X002172Y007064D02*
X000907Y007064D01*
X001779Y006079D02*
X002410Y006079D01*
X002410Y005981D02*
X001877Y005981D01*
X001976Y005882D02*
X002410Y005882D01*
X002410Y005784D02*
X002074Y005784D01*
X002243Y005685D02*
X002410Y005685D01*
X002410Y005587D02*
X002307Y005587D01*
X002325Y005488D02*
X002410Y005488D01*
X002410Y005390D02*
X002306Y005390D01*
X002241Y005291D02*
X002410Y005291D01*
X002863Y004932D02*
X002863Y004246D01*
X002463Y004246D01*
X002463Y004932D01*
X002863Y004932D01*
X002863Y004345D02*
X002463Y004345D01*
X002463Y004444D02*
X002863Y004444D01*
X002863Y004543D02*
X002463Y004543D01*
X002463Y004642D02*
X002863Y004642D01*
X002863Y004741D02*
X002463Y004741D01*
X002463Y004840D02*
X002863Y004840D01*
X002263Y004503D02*
X002238Y004503D01*
X002238Y004405D02*
X002263Y004405D01*
X002263Y004306D02*
X002238Y004306D01*
X002235Y004208D02*
X002263Y004208D01*
X002316Y004109D02*
X002185Y004109D01*
X001888Y004109D02*
X001788Y004109D01*
X001788Y004208D02*
X001888Y004208D01*
X001888Y004306D02*
X001788Y004306D01*
X001788Y004405D02*
X001888Y004405D01*
X001888Y004503D02*
X001788Y004503D01*
X003400Y003539D02*
X003550Y003539D01*
X002851Y003420D02*
X002252Y003420D01*
X002403Y003321D02*
X002697Y003321D01*
X002605Y003223D02*
X002487Y003223D01*
X002537Y003124D02*
X002564Y003124D01*
X000697Y003321D02*
X000305Y003321D01*
X000305Y003223D02*
X000613Y003223D01*
X000563Y003124D02*
X000305Y003124D01*
X000305Y003026D02*
X000537Y003026D01*
X000733Y002336D02*
X013559Y002336D01*
X014300Y002439D02*
X014300Y002489D01*
X014650Y002489D01*
X014300Y002489D01*
X014300Y002439D01*
X015211Y002336D02*
X018858Y002336D01*
X019040Y002435D02*
X016604Y002435D01*
X016555Y002414D02*
X016656Y002456D01*
X016733Y002533D01*
X016555Y002414D02*
X016445Y002414D01*
X016344Y002456D01*
X016267Y002533D01*
X016396Y002435D02*
X015250Y002435D01*
X018604Y004109D02*
X018704Y004109D01*
X018704Y004208D02*
X018604Y004208D01*
X018604Y004306D02*
X018704Y004306D01*
X018704Y004405D02*
X018604Y004405D01*
X018604Y004503D02*
X018704Y004503D01*
X018704Y004602D02*
X019286Y004602D01*
X019286Y004700D02*
X019155Y004700D01*
X019116Y004799D02*
X019286Y004799D01*
X019286Y004897D02*
X019052Y004897D01*
X018940Y004996D02*
X019286Y004996D01*
X019286Y005094D02*
X008964Y005094D01*
X008865Y005193D02*
X019286Y005193D01*
X019286Y005291D02*
X008767Y005291D01*
X008838Y005729D02*
X008978Y005729D01*
X008978Y006109D01*
X008598Y006109D01*
X008598Y005969D01*
X008838Y005729D01*
X008784Y005784D02*
X007424Y005784D01*
X007326Y005882D02*
X008685Y005882D01*
X008598Y005981D02*
X007227Y005981D01*
X007129Y006079D02*
X008598Y006079D01*
X008598Y006169D02*
X008978Y006169D01*
X008978Y006109D01*
X009038Y006109D01*
X009038Y005729D01*
X009178Y005729D01*
X009418Y005969D01*
X009418Y006109D01*
X009038Y006109D01*
X009038Y006169D01*
X008978Y006169D01*
X008978Y006549D01*
X008838Y006549D01*
X008598Y006309D01*
X008598Y006169D01*
X008598Y006178D02*
X007030Y006178D01*
X006932Y006276D02*
X008598Y006276D01*
X008664Y006375D02*
X006833Y006375D01*
X006735Y006473D02*
X008762Y006473D01*
X008978Y006473D02*
X009038Y006473D01*
X009038Y006549D02*
X009178Y006549D01*
X009418Y006309D01*
X009418Y006169D01*
X009038Y006169D01*
X009038Y006549D01*
X009254Y006473D02*
X012707Y006473D01*
X012705Y006478D02*
X012769Y006342D01*
X012844Y006211D01*
X012930Y006088D01*
X013027Y005973D01*
X013134Y005866D01*
X013249Y005769D01*
X013372Y005683D01*
X013503Y005608D01*
X013639Y005544D01*
X013781Y005493D01*
X013926Y005454D01*
X014075Y005427D01*
X014225Y005414D01*
X014250Y005414D01*
X014250Y007089D01*
X014350Y007089D01*
X014350Y005414D01*
X014375Y005414D01*
X014525Y005427D01*
X014674Y005454D01*
X014819Y005493D01*
X014961Y005544D01*
X015097Y005608D01*
X015228Y005683D01*
X015351Y005769D01*
X015466Y005866D01*
X015573Y005973D01*
X015670Y006088D01*
X015756Y006211D01*
X015831Y006342D01*
X015895Y006478D01*
X015947Y006620D01*
X015986Y006765D01*
X016012Y006914D01*
X016025Y007064D01*
X019286Y007064D01*
X019286Y006966D02*
X016016Y006966D01*
X016025Y007064D02*
X016025Y007089D01*
X014350Y007089D01*
X014350Y007189D01*
X016025Y007189D01*
X016025Y007214D01*
X016012Y007364D01*
X015986Y007513D01*
X015947Y007658D01*
X015895Y007800D01*
X015831Y007936D01*
X015756Y008067D01*
X015670Y008190D01*
X015573Y008305D01*
X015466Y008412D01*
X015351Y008509D01*
X015228Y008595D01*
X015097Y008670D01*
X014961Y008734D01*
X014819Y008786D01*
X014674Y008825D01*
X014525Y008851D01*
X014375Y008864D01*
X014350Y008864D01*
X014350Y007189D01*
X014250Y007189D01*
X014250Y007089D01*
X012575Y007089D01*
X012575Y007064D01*
X008418Y007064D01*
X008418Y006969D02*
X008178Y006729D01*
X007838Y006729D01*
X007598Y006969D01*
X007598Y007309D01*
X007838Y007549D01*
X008178Y007549D01*
X008418Y007309D01*
X008418Y006969D01*
X008415Y006966D02*
X012584Y006966D01*
X012588Y006914D02*
X012614Y006765D01*
X012653Y006620D01*
X012705Y006478D01*
X012671Y006572D02*
X006636Y006572D01*
X006538Y006670D02*
X012640Y006670D01*
X012614Y006769D02*
X008218Y006769D01*
X008316Y006867D02*
X012597Y006867D01*
X012588Y006914D02*
X012575Y007064D01*
X012575Y007189D02*
X014250Y007189D01*
X014250Y008864D01*
X014225Y008864D01*
X014075Y008851D01*
X013926Y008825D01*
X013781Y008786D01*
X013639Y008734D01*
X013503Y008670D01*
X013372Y008595D01*
X013249Y008509D01*
X013134Y008412D01*
X013027Y008305D01*
X012930Y008190D01*
X012844Y008067D01*
X012769Y007936D01*
X012705Y007800D01*
X012653Y007658D01*
X012614Y007513D01*
X012588Y007364D01*
X012575Y007214D01*
X012575Y007189D01*
X012579Y007261D02*
X008418Y007261D01*
X008418Y007163D02*
X014250Y007163D01*
X014250Y007261D02*
X014350Y007261D01*
X014350Y007163D02*
X019286Y007163D01*
X019286Y007261D02*
X016021Y007261D01*
X016012Y007360D02*
X019286Y007360D01*
X019286Y007458D02*
X015995Y007458D01*
X015974Y007557D02*
X019286Y007557D01*
X019286Y007655D02*
X015947Y007655D01*
X015912Y007754D02*
X019286Y007754D01*
X019286Y007852D02*
X015871Y007852D01*
X015823Y007951D02*
X019286Y007951D01*
X019286Y008049D02*
X015766Y008049D01*
X015699Y008148D02*
X019286Y008148D01*
X019286Y008246D02*
X015623Y008246D01*
X015534Y008345D02*
X019286Y008345D01*
X019286Y008443D02*
X015429Y008443D01*
X015304Y008542D02*
X019286Y008542D01*
X019286Y008640D02*
X015150Y008640D01*
X014948Y008739D02*
X019286Y008739D01*
X019286Y008837D02*
X014603Y008837D01*
X014350Y008837D02*
X014250Y008837D01*
X014250Y008739D02*
X014350Y008739D01*
X014350Y008640D02*
X014250Y008640D01*
X014250Y008542D02*
X014350Y008542D01*
X014350Y008443D02*
X014250Y008443D01*
X014250Y008345D02*
X014350Y008345D01*
X014350Y008246D02*
X014250Y008246D01*
X014250Y008148D02*
X014350Y008148D01*
X014350Y008049D02*
X014250Y008049D01*
X014250Y007951D02*
X014350Y007951D01*
X014350Y007852D02*
X014250Y007852D01*
X014250Y007754D02*
X014350Y007754D01*
X014350Y007655D02*
X014250Y007655D01*
X014250Y007557D02*
X014350Y007557D01*
X014350Y007458D02*
X014250Y007458D01*
X014250Y007360D02*
X014350Y007360D01*
X014350Y007064D02*
X014250Y007064D01*
X014250Y006966D02*
X014350Y006966D01*
X014350Y006867D02*
X014250Y006867D01*
X014250Y006769D02*
X014350Y006769D01*
X014350Y006670D02*
X014250Y006670D01*
X014250Y006572D02*
X014350Y006572D01*
X014350Y006473D02*
X014250Y006473D01*
X014250Y006375D02*
X014350Y006375D01*
X014350Y006276D02*
X014250Y006276D01*
X014250Y006178D02*
X014350Y006178D01*
X014350Y006079D02*
X014250Y006079D01*
X014250Y005981D02*
X014350Y005981D01*
X014350Y005882D02*
X014250Y005882D01*
X014250Y005784D02*
X014350Y005784D01*
X014350Y005685D02*
X014250Y005685D01*
X014250Y005587D02*
X014350Y005587D01*
X014350Y005488D02*
X014250Y005488D01*
X013797Y005488D02*
X007720Y005488D01*
X007818Y005390D02*
X019286Y005390D01*
X019286Y005488D02*
X014803Y005488D01*
X015052Y005587D02*
X019286Y005587D01*
X019286Y005685D02*
X015231Y005685D01*
X015368Y005784D02*
X019286Y005784D01*
X019286Y005882D02*
X015482Y005882D01*
X015579Y005981D02*
X019286Y005981D01*
X019286Y006079D02*
X015662Y006079D01*
X015732Y006178D02*
X019286Y006178D01*
X019286Y006276D02*
X015793Y006276D01*
X015847Y006375D02*
X019286Y006375D01*
X019286Y006473D02*
X015893Y006473D01*
X015929Y006572D02*
X019286Y006572D01*
X019286Y006670D02*
X015960Y006670D01*
X015986Y006769D02*
X019286Y006769D01*
X019286Y006867D02*
X016003Y006867D01*
X013548Y005587D02*
X007621Y005587D01*
X007523Y005685D02*
X013369Y005685D01*
X013232Y005784D02*
X009233Y005784D01*
X009331Y005882D02*
X013118Y005882D01*
X013021Y005981D02*
X009418Y005981D01*
X009418Y006079D02*
X012938Y006079D01*
X012868Y006178D02*
X009418Y006178D01*
X009418Y006276D02*
X012807Y006276D01*
X012753Y006375D02*
X009353Y006375D01*
X009038Y006375D02*
X008978Y006375D01*
X008978Y006276D02*
X009038Y006276D01*
X009038Y006178D02*
X008978Y006178D01*
X008978Y006079D02*
X009038Y006079D01*
X009038Y005981D02*
X008978Y005981D01*
X008978Y005882D02*
X009038Y005882D01*
X009038Y005784D02*
X008978Y005784D01*
X007799Y006769D02*
X006439Y006769D01*
X006341Y006867D02*
X007700Y006867D01*
X007602Y006966D02*
X006242Y006966D01*
X006144Y007064D02*
X007598Y007064D01*
X007598Y007163D02*
X006140Y007163D01*
X006140Y007261D02*
X007598Y007261D01*
X007649Y007360D02*
X006194Y007360D01*
X006225Y007458D02*
X007747Y007458D01*
X008269Y007458D02*
X012605Y007458D01*
X012588Y007360D02*
X008368Y007360D01*
X008838Y007729D02*
X009178Y007729D01*
X009418Y007969D01*
X009418Y008309D01*
X009178Y008549D01*
X008838Y008549D01*
X008598Y008309D01*
X008598Y007969D01*
X008838Y007729D01*
X008814Y007754D02*
X006030Y007754D01*
X005890Y007852D02*
X008715Y007852D01*
X008617Y007951D02*
X005890Y007951D01*
X005890Y008049D02*
X008598Y008049D01*
X008598Y008148D02*
X005890Y008148D01*
X005890Y008246D02*
X008598Y008246D01*
X008634Y008345D02*
X005890Y008345D01*
X005890Y008443D02*
X008732Y008443D01*
X008831Y008542D02*
X005890Y008542D01*
X005890Y008640D02*
X013450Y008640D01*
X013296Y008542D02*
X009186Y008542D01*
X009284Y008443D02*
X013171Y008443D01*
X013066Y008345D02*
X009383Y008345D01*
X009418Y008246D02*
X012977Y008246D01*
X012901Y008148D02*
X009418Y008148D01*
X009418Y008049D02*
X012834Y008049D01*
X012777Y007951D02*
X009400Y007951D01*
X009301Y007852D02*
X012729Y007852D01*
X012688Y007754D02*
X009203Y007754D01*
X007760Y008837D02*
X013997Y008837D01*
X013652Y008739D02*
X005890Y008739D01*
X005890Y008837D02*
X007540Y008837D01*
X007417Y008933D02*
X007375Y009034D01*
X007375Y009133D02*
X007282Y009133D01*
X007353Y009231D02*
X007411Y009231D01*
X006918Y009133D02*
X005890Y009133D01*
X005890Y009231D02*
X006847Y009231D01*
X006825Y009330D02*
X005890Y009330D01*
X005890Y009428D02*
X006839Y009428D01*
X006899Y009527D02*
X005890Y009527D01*
X005890Y009625D02*
X006910Y009625D01*
X006910Y009724D02*
X005890Y009724D01*
X005890Y009822D02*
X006910Y009822D01*
X006910Y009921D02*
X005890Y009921D01*
X005890Y010019D02*
X006961Y010019D01*
X007060Y010118D02*
X005890Y010118D01*
X005890Y010216D02*
X007158Y010216D01*
X007257Y010315D02*
X005890Y010315D01*
X006126Y010413D02*
X006211Y010413D01*
X006913Y010413D02*
X007355Y010413D01*
X007454Y010512D02*
X006962Y010512D01*
X006962Y010610D02*
X007552Y010610D01*
X007651Y010709D02*
X006962Y010709D01*
X006962Y010807D02*
X007749Y010807D01*
X007848Y010906D02*
X007005Y010906D01*
X007062Y011004D02*
X007946Y011004D01*
X008045Y011103D02*
X007075Y011103D01*
X007051Y011201D02*
X008142Y011201D01*
X008071Y011129D02*
X008071Y011129D01*
X008332Y011300D02*
X006978Y011300D01*
X006800Y011089D02*
X006550Y010889D01*
X006562Y010889D01*
X006762Y011232D02*
X006762Y010546D01*
X006362Y010546D01*
X006362Y011232D01*
X006762Y011232D01*
X006762Y010645D02*
X006362Y010645D01*
X006362Y010744D02*
X006762Y010744D01*
X006762Y010843D02*
X006362Y010843D01*
X006362Y010942D02*
X006762Y010942D01*
X006762Y011041D02*
X006362Y011041D01*
X006362Y011140D02*
X006762Y011140D01*
X006245Y011398D02*
X006092Y011398D01*
X006058Y011432D02*
X006169Y011322D01*
X006279Y011432D01*
X006845Y011432D01*
X006058Y011432D02*
X005492Y011432D01*
X005381Y011322D01*
X005270Y011432D01*
X004705Y011432D01*
X004587Y011315D01*
X004587Y010757D01*
X004560Y010730D01*
X004560Y010638D01*
X004517Y010595D01*
X004475Y010494D01*
X004475Y010384D01*
X004517Y010283D01*
X004594Y010206D01*
X004695Y010164D01*
X004805Y010164D01*
X004906Y010206D01*
X004983Y010283D01*
X005009Y010345D01*
X005270Y010345D01*
X005381Y010456D01*
X005492Y010345D01*
X005510Y010345D01*
X005510Y009398D01*
X004979Y009929D01*
X004799Y009929D01*
X004756Y009972D01*
X004655Y010014D01*
X004545Y010014D01*
X004444Y009972D01*
X004367Y009895D01*
X004325Y009794D01*
X004325Y009684D01*
X004367Y009583D01*
X004444Y009506D01*
X004545Y009464D01*
X004655Y009464D01*
X004756Y009506D01*
X004424Y009527D02*
X002577Y009527D01*
X002675Y009625D02*
X004350Y009625D01*
X004325Y009724D02*
X002774Y009724D01*
X002815Y009822D02*
X004337Y009822D01*
X004393Y009921D02*
X002815Y009921D01*
X002815Y010019D02*
X005510Y010019D01*
X005510Y009921D02*
X004987Y009921D01*
X005086Y009822D02*
X005510Y009822D01*
X005510Y009724D02*
X005184Y009724D01*
X005283Y009625D02*
X005510Y009625D01*
X005510Y009527D02*
X005381Y009527D01*
X005480Y009428D02*
X005510Y009428D01*
X005238Y009133D02*
X002183Y009133D01*
X002815Y010118D02*
X005510Y010118D01*
X005510Y010216D02*
X004916Y010216D01*
X004996Y010315D02*
X005510Y010315D01*
X005424Y010413D02*
X005338Y010413D01*
X004584Y010216D02*
X002815Y010216D01*
X002815Y010315D02*
X004504Y010315D01*
X004475Y010413D02*
X003764Y010413D01*
X003773Y010422D02*
X003799Y010468D01*
X003813Y010519D01*
X003813Y010839D01*
X003463Y010839D01*
X003463Y010345D01*
X003639Y010345D01*
X003690Y010359D01*
X003735Y010385D01*
X003773Y010422D01*
X003811Y010512D02*
X004482Y010512D01*
X004532Y010610D02*
X003813Y010610D01*
X003813Y010709D02*
X004560Y010709D01*
X004587Y010807D02*
X003813Y010807D01*
X003463Y010807D02*
X003363Y010807D01*
X003613Y010546D02*
X003613Y011232D01*
X003613Y010546D02*
X003213Y010546D01*
X003213Y011232D01*
X003613Y011232D01*
X003613Y010645D02*
X003213Y010645D01*
X003213Y010744D02*
X003613Y010744D01*
X003613Y010843D02*
X003213Y010843D01*
X003213Y010942D02*
X003613Y010942D01*
X003613Y011041D02*
X003213Y011041D01*
X003213Y011140D02*
X003613Y011140D01*
X003463Y011103D02*
X003363Y011103D01*
X003363Y011201D02*
X003463Y011201D01*
X003463Y011300D02*
X003363Y011300D01*
X003363Y011398D02*
X003463Y011398D01*
X003726Y011398D02*
X004670Y011398D01*
X004587Y011300D02*
X003802Y011300D01*
X003813Y011201D02*
X004587Y011201D01*
X004587Y011103D02*
X003813Y011103D01*
X003813Y011004D02*
X004587Y011004D01*
X004587Y010906D02*
X003463Y010906D01*
X003463Y011004D02*
X003363Y011004D01*
X003363Y010709D02*
X003463Y010709D01*
X003463Y010610D02*
X003363Y010610D01*
X003363Y010512D02*
X003463Y010512D01*
X003463Y010413D02*
X003363Y010413D01*
X003062Y010413D02*
X002976Y010413D01*
X002274Y010413D02*
X002189Y010413D01*
X002038Y010546D02*
X002038Y011232D01*
X002038Y010546D02*
X001638Y010546D01*
X001638Y011232D01*
X002038Y011232D01*
X002038Y010645D02*
X001638Y010645D01*
X001638Y010744D02*
X002038Y010744D01*
X002038Y010843D02*
X001638Y010843D01*
X001638Y010942D02*
X002038Y010942D01*
X002038Y011041D02*
X001638Y011041D01*
X001638Y011140D02*
X002038Y011140D01*
X002155Y011398D02*
X002308Y011398D01*
X001623Y011493D02*
X001623Y011493D01*
X002825Y011232D02*
X002825Y010546D01*
X002425Y010546D01*
X002425Y011232D01*
X002825Y011232D01*
X002825Y010645D02*
X002425Y010645D01*
X002425Y010744D02*
X002825Y010744D01*
X002825Y010843D02*
X002425Y010843D01*
X002425Y010942D02*
X002825Y010942D01*
X002825Y011041D02*
X002425Y011041D01*
X002425Y011140D02*
X002825Y011140D01*
X002942Y011398D02*
X003100Y011398D01*
X005187Y011232D02*
X005187Y010546D01*
X004787Y010546D01*
X004787Y011232D01*
X005187Y011232D01*
X005187Y010645D02*
X004787Y010645D01*
X004787Y010744D02*
X005187Y010744D01*
X005187Y010843D02*
X004787Y010843D01*
X004787Y010942D02*
X005187Y010942D01*
X005187Y011041D02*
X004787Y011041D01*
X004787Y011140D02*
X005187Y011140D01*
X005305Y011398D02*
X005458Y011398D01*
X005975Y011232D02*
X005975Y010546D01*
X005575Y010546D01*
X005575Y011232D01*
X005975Y011232D01*
X005975Y010645D02*
X005575Y010645D01*
X005575Y010744D02*
X005975Y010744D01*
X005975Y010843D02*
X005575Y010843D01*
X005575Y010942D02*
X005975Y010942D01*
X005975Y011041D02*
X005575Y011041D01*
X005575Y011140D02*
X005975Y011140D01*
X008199Y010019D02*
X015781Y010019D01*
X015775Y010118D02*
X008297Y010118D01*
X008100Y009921D02*
X015830Y009921D01*
X015976Y009822D02*
X008002Y009822D01*
X005510Y008837D02*
X004341Y008837D01*
X004243Y008936D02*
X005435Y008936D01*
X005336Y009034D02*
X004144Y009034D01*
X004440Y008739D02*
X005510Y008739D01*
X005510Y008640D02*
X004489Y008640D01*
X004490Y008542D02*
X005510Y008542D01*
X005510Y008443D02*
X005135Y008443D01*
X005204Y008345D02*
X005510Y008345D01*
X005510Y008246D02*
X005225Y008246D01*
X005210Y008148D02*
X005510Y008148D01*
X005510Y008049D02*
X005159Y008049D01*
X005257Y007951D02*
X005510Y007951D01*
X005510Y007852D02*
X005290Y007852D01*
X005290Y007754D02*
X005510Y007754D01*
X005510Y007655D02*
X005290Y007655D01*
X005290Y007557D02*
X005510Y007557D01*
X005510Y007458D02*
X005290Y007458D01*
X005290Y007360D02*
X005510Y007360D01*
X005510Y007261D02*
X005290Y007261D01*
X005345Y007163D02*
X005510Y007163D01*
X005510Y007064D02*
X005444Y007064D01*
X004850Y006670D02*
X004490Y006670D01*
X004490Y006572D02*
X004949Y006572D01*
X005047Y006473D02*
X004490Y006473D01*
X004490Y006375D02*
X005146Y006375D01*
X005244Y006276D02*
X004490Y006276D01*
X004490Y006178D02*
X005343Y006178D01*
X005441Y006079D02*
X004485Y006079D01*
X004431Y005981D02*
X005540Y005981D01*
X005638Y005882D02*
X004332Y005882D01*
X004234Y005784D02*
X005737Y005784D01*
X005835Y005685D02*
X004135Y005685D01*
X004040Y005587D02*
X005934Y005587D01*
X006032Y005488D02*
X004540Y005488D01*
X004160Y005488D02*
X004040Y005488D01*
X004040Y005390D02*
X004094Y005390D01*
X004075Y005291D02*
X004040Y005291D01*
X004040Y005193D02*
X004092Y005193D01*
X005975Y004932D02*
X005975Y004246D01*
X005575Y004246D01*
X005575Y004932D01*
X005975Y004932D01*
X005975Y004345D02*
X005575Y004345D01*
X005575Y004444D02*
X005975Y004444D01*
X005975Y004543D02*
X005575Y004543D01*
X005575Y004642D02*
X005975Y004642D01*
X005975Y004741D02*
X005575Y004741D01*
X005575Y004840D02*
X005975Y004840D01*
X004752Y006769D02*
X004490Y006769D01*
X004490Y006867D02*
X004660Y006867D01*
X004660Y006966D02*
X004490Y006966D01*
X004490Y007064D02*
X004660Y007064D01*
X004660Y007163D02*
X004490Y007163D01*
X004490Y007261D02*
X004660Y007261D01*
X004660Y007360D02*
X004490Y007360D01*
X004490Y007458D02*
X004642Y007458D01*
X004587Y007557D02*
X004490Y007557D01*
X004490Y007655D02*
X004575Y007655D01*
X004600Y007754D02*
X004490Y007754D01*
X004490Y007852D02*
X004674Y007852D01*
X004760Y007951D02*
X004490Y007951D01*
X004490Y008049D02*
X004751Y008049D01*
X004690Y008148D02*
X004490Y008148D01*
X004490Y008246D02*
X004675Y008246D01*
X004696Y008345D02*
X004490Y008345D01*
X004490Y008443D02*
X004765Y008443D01*
X006173Y007655D02*
X012653Y007655D01*
X012626Y007557D02*
X006220Y007557D01*
X008765Y011103D02*
X019286Y011103D01*
X019286Y011201D02*
X008733Y011201D01*
X008648Y011300D02*
X019286Y011300D01*
X019232Y011595D02*
X015215Y011595D01*
X015250Y011694D02*
X019178Y011694D01*
X019106Y011792D02*
X015250Y011792D01*
X015212Y011891D02*
X018975Y011891D01*
X018853Y009822D02*
X019286Y009822D01*
X019286Y009724D02*
X018931Y009724D01*
X018970Y009625D02*
X019286Y009625D01*
X019286Y009527D02*
X018970Y009527D01*
X018944Y009428D02*
X019286Y009428D01*
X019286Y009330D02*
X018884Y009330D01*
X019171Y004503D02*
X019286Y004503D01*
X019286Y004405D02*
X019150Y004405D01*
X019108Y004306D02*
X019286Y004306D01*
X019286Y004208D02*
X019037Y004208D01*
X018914Y004109D02*
X019286Y004109D01*
D19*
X001700Y008989D03*
D20*
X006950Y003689D03*
D21*
X007900Y004089D03*
X009150Y004789D03*
X010200Y003989D03*
X010050Y003639D03*
X008350Y003189D03*
X005600Y003889D03*
X005150Y003739D03*
X004350Y005289D03*
X002050Y005489D03*
X000550Y005539D03*
X000550Y005939D03*
X000550Y006339D03*
X000550Y006739D03*
X001300Y006639D03*
X001900Y006489D03*
X001950Y007339D03*
X002500Y007689D03*
X003250Y007289D03*
X003750Y007339D03*
X003750Y006939D03*
X003750Y007739D03*
X003350Y007739D03*
X003750Y008139D03*
X004850Y007639D03*
X005400Y007689D03*
X005400Y007289D03*
X005950Y007489D03*
X005400Y008089D03*
X004950Y008239D03*
X007100Y009339D03*
X007650Y009089D03*
X008050Y008539D03*
X008450Y008539D03*
X008450Y008139D03*
X008050Y008139D03*
X007650Y008139D03*
X007650Y007739D03*
X008050Y007739D03*
X008450Y007739D03*
X007350Y007339D03*
X007350Y006939D03*
X007650Y006539D03*
X008000Y006239D03*
X008400Y006239D03*
X008400Y005839D03*
X009600Y005839D03*
X010000Y005839D03*
X010400Y005839D03*
X010400Y006239D03*
X010000Y006239D03*
X009600Y006239D03*
X012550Y004939D03*
X012950Y004939D03*
X016500Y005389D03*
X016900Y005389D03*
X017300Y005389D03*
X017700Y005389D03*
X018150Y006039D03*
X018150Y006439D03*
X018150Y006839D03*
X018150Y007239D03*
X018150Y007639D03*
X018150Y008039D03*
X018150Y008439D03*
X017000Y009159D03*
X016600Y009159D03*
X016600Y009689D03*
X017000Y009839D03*
X017000Y010239D03*
X016050Y010089D03*
X014600Y009789D03*
X015700Y011039D03*
X016100Y011039D03*
X016400Y011739D03*
X016800Y011739D03*
X017200Y011739D03*
X017600Y011739D03*
X018000Y011739D03*
X018400Y011739D03*
X018800Y011739D03*
X012950Y011739D03*
X012550Y011739D03*
X012150Y011739D03*
X011750Y011739D03*
X011350Y011739D03*
X010950Y011739D03*
X010550Y011739D03*
X010150Y011739D03*
X009750Y011739D03*
X009350Y011739D03*
X008950Y011739D03*
X008550Y011739D03*
X008150Y011739D03*
X007750Y011739D03*
X007350Y011739D03*
X006950Y011739D03*
X006550Y011739D03*
X006150Y011739D03*
X005750Y011739D03*
X005350Y011739D03*
X004950Y011739D03*
X004550Y011739D03*
X004150Y011739D03*
X003750Y011739D03*
X003350Y011739D03*
X002950Y011739D03*
X002550Y011739D03*
X002150Y011739D03*
X001750Y011739D03*
X001350Y011739D03*
X000950Y011739D03*
X000600Y011539D03*
X000550Y011139D03*
X000550Y010739D03*
X000550Y010339D03*
X000550Y009939D03*
X000550Y009539D03*
X000550Y008739D03*
X000550Y008339D03*
X000550Y007939D03*
X000550Y007539D03*
X003000Y009489D03*
X003000Y009939D03*
X004600Y009739D03*
X004750Y010439D03*
X006800Y011089D03*
X007350Y011339D03*
X007750Y011339D03*
X008150Y011339D03*
X008490Y011069D03*
X011700Y009089D03*
X012000Y008689D03*
X010550Y008139D03*
X010150Y008139D03*
X009750Y008139D03*
X009750Y007739D03*
X010150Y007739D03*
X010550Y007739D03*
X016550Y007339D03*
X017200Y003039D03*
X017600Y003039D03*
X017600Y002639D03*
X017200Y002639D03*
X016500Y002689D03*
X012300Y002739D03*
X011850Y002739D03*
X000550Y003139D03*
X000550Y003539D03*
X000550Y004239D03*
X000550Y005139D03*
D22*
X003100Y003289D02*
X003300Y003489D01*
X003325Y003514D01*
X003350Y003539D01*
X003550Y003539D01*
X003750Y003539D01*
X004900Y003539D01*
X005150Y003739D01*
X004900Y003539D02*
X006800Y003539D01*
X006950Y003689D01*
X003100Y003289D02*
X003050Y002939D01*
D23*
X006950Y003689D02*
X007200Y003689D01*
X008100Y002739D01*
X010850Y002739D01*
X011450Y002739D01*
X011850Y002739D01*
X012300Y002739D01*
X014500Y002489D02*
X014650Y002489D01*
X014700Y002539D01*
X014650Y002489D02*
X014500Y002489D01*
X014600Y002739D01*
X014950Y002739D01*
X014950Y002539D01*
X014950Y002489D02*
X014650Y002489D01*
X013200Y008139D02*
X013200Y008289D01*
X012950Y008539D01*
D24*
X004250Y008589D02*
X004250Y006139D01*
X003800Y005689D01*
X003800Y003789D01*
X003550Y003539D01*
X003750Y003539D01*
X004250Y008589D02*
X003950Y008889D01*
X001850Y008889D01*
X001750Y008989D01*
X001700Y008989D01*
X002575Y009864D01*
X002575Y010864D01*
D25*
X002600Y010889D01*
X002625Y010889D01*
X004750Y010651D02*
X004750Y010439D01*
X004750Y010651D02*
X004987Y010889D01*
X005700Y010814D02*
X005775Y010889D01*
X005700Y010814D02*
X005700Y008939D01*
X004900Y009739D01*
X004600Y009739D01*
X005700Y008939D02*
X005700Y008639D01*
X005700Y007239D01*
X005700Y006889D01*
X007700Y004889D01*
X008550Y004889D01*
X009050Y004389D01*
X009450Y003989D01*
X010200Y003989D01*
X010050Y003639D02*
X009500Y003639D01*
X009350Y003789D01*
X008950Y004189D01*
X008450Y004689D01*
X007550Y004689D01*
X005100Y007139D01*
X005100Y007839D01*
X004950Y007989D01*
X004950Y008239D01*
X004850Y007639D02*
X004850Y006939D01*
X006100Y005689D01*
X006562Y005227D01*
X006562Y004589D01*
X006350Y004589D01*
X006650Y004289D01*
X007700Y004289D01*
X007900Y004089D01*
X007600Y003789D02*
X007400Y003989D01*
X007350Y003989D01*
X006650Y003989D01*
X006550Y003889D01*
X005600Y003889D01*
X005775Y004589D02*
X005525Y004864D01*
X005100Y005289D01*
X004350Y005289D01*
X002600Y005189D02*
X002600Y004651D01*
X002663Y004589D01*
X002613Y004752D01*
X002600Y005189D02*
X002600Y006489D01*
X002800Y006689D01*
X003200Y007089D01*
X003250Y007289D01*
X002500Y007139D02*
X002500Y007689D01*
X002500Y007139D02*
X001900Y006489D01*
X001600Y005989D02*
X001300Y006289D01*
X001300Y006639D01*
X002800Y006689D02*
X002950Y006839D01*
X002050Y005539D02*
X001600Y005989D01*
X001650Y005939D01*
X002050Y005539D02*
X002050Y005489D01*
X005950Y006989D02*
X005950Y007489D01*
X005950Y006989D02*
X006300Y006639D01*
X007800Y005139D01*
X008000Y005139D01*
X008650Y005139D01*
X008950Y004839D01*
X009100Y004839D01*
X009150Y004789D01*
X007700Y003689D02*
X008150Y003239D01*
X008300Y003239D01*
X008350Y003189D01*
X008450Y003089D01*
X008700Y003089D01*
X010650Y003089D01*
X010950Y003389D01*
X011350Y003389D01*
X015400Y003389D01*
X015800Y003389D01*
X016500Y002689D01*
X007700Y003689D02*
X007600Y003789D01*
X007650Y009089D02*
X007650Y009739D01*
X008000Y010089D01*
X008300Y010389D01*
X012900Y010389D01*
X013250Y010739D01*
X015650Y010739D01*
X016050Y010339D01*
X016050Y010089D01*
X008490Y011069D02*
X008270Y011059D01*
X008150Y010939D01*
X007400Y010189D01*
X007100Y009889D01*
X007100Y009339D01*
D26*
X002550Y008539D03*
X013200Y008139D03*
D27*
X008100Y003739D03*
D28*
X001488Y011098D02*
X001454Y011120D01*
X001418Y011140D01*
X001381Y011157D01*
X001343Y011171D01*
X001303Y011182D01*
X001263Y011190D01*
X001223Y011195D01*
X001182Y011196D01*
X001141Y011194D01*
X001100Y011189D01*
X001488Y011098D02*
X001838Y010889D01*
D29*
X013650Y011739D03*
X014950Y011739D03*
X014600Y002739D03*
X014950Y002489D03*
M02*
