G75*
%MOIN*%
%OFA0B0*%
%FSLAX24Y24*%
%IPPOS*%
%LPD*%
%AMOC8*
5,1,8,0,0,1.08239X$1,22.5*
%
%ADD10C,0.0010*%
%ADD11OC8,0.0560*%
%ADD12C,0.0600*%
%ADD13C,0.0000*%
%ADD14C,0.0440*%
%ADD15C,0.0780*%
%ADD16C,0.3190*%
%ADD17R,0.1221X0.0540*%
%ADD18R,0.0434X0.0434*%
%ADD19C,0.0108*%
D10*
X000937Y002139D02*
X013750Y002139D01*
X014950Y002139D01*
X018654Y002139D01*
X018708Y002141D01*
X018761Y002146D01*
X018814Y002155D01*
X018866Y002168D01*
X018918Y002184D01*
X018968Y002204D01*
X019016Y002227D01*
X019063Y002254D01*
X019108Y002283D01*
X019151Y002316D01*
X019191Y002351D01*
X019229Y002389D01*
X019264Y002429D01*
X019297Y002472D01*
X019326Y002517D01*
X019353Y002564D01*
X019376Y002612D01*
X019396Y002662D01*
X019412Y002714D01*
X019425Y002766D01*
X019434Y002819D01*
X019439Y002872D01*
X019441Y002926D01*
X019441Y011352D01*
X019439Y011406D01*
X019434Y011459D01*
X019425Y011512D01*
X019412Y011564D01*
X019396Y011616D01*
X019376Y011666D01*
X019353Y011714D01*
X019326Y011761D01*
X019297Y011806D01*
X019264Y011849D01*
X019229Y011889D01*
X019191Y011927D01*
X019151Y011962D01*
X019108Y011995D01*
X019063Y012024D01*
X019016Y012051D01*
X018968Y012074D01*
X018918Y012094D01*
X018866Y012110D01*
X018814Y012123D01*
X018761Y012132D01*
X018708Y012137D01*
X018654Y012139D01*
X014900Y012139D01*
X013700Y012139D01*
X000937Y012139D01*
X000883Y012137D01*
X000830Y012132D01*
X000777Y012123D01*
X000725Y012110D01*
X000673Y012094D01*
X000623Y012074D01*
X000575Y012051D01*
X000528Y012024D01*
X000483Y011995D01*
X000440Y011962D01*
X000400Y011927D01*
X000362Y011889D01*
X000327Y011849D01*
X000294Y011806D01*
X000265Y011761D01*
X000238Y011714D01*
X000215Y011666D01*
X000195Y011616D01*
X000179Y011564D01*
X000166Y011512D01*
X000157Y011459D01*
X000152Y011406D01*
X000150Y011352D01*
X000150Y002926D01*
X000152Y002872D01*
X000157Y002819D01*
X000166Y002766D01*
X000179Y002714D01*
X000195Y002662D01*
X000215Y002612D01*
X000238Y002564D01*
X000265Y002517D01*
X000294Y002472D01*
X000327Y002429D01*
X000362Y002389D01*
X000400Y002351D01*
X000440Y002316D01*
X000483Y002283D01*
X000528Y002254D01*
X000575Y002227D01*
X000623Y002204D01*
X000673Y002184D01*
X000725Y002168D01*
X000777Y002155D01*
X000830Y002146D01*
X000883Y002141D01*
X000937Y002139D01*
D11*
X009008Y006139D03*
X008008Y007139D03*
X009008Y008139D03*
D12*
X001100Y011189D03*
D13*
X018420Y009560D02*
X018422Y009588D01*
X018428Y009615D01*
X018437Y009641D01*
X018450Y009666D01*
X018467Y009689D01*
X018486Y009709D01*
X018508Y009726D01*
X018532Y009740D01*
X018558Y009750D01*
X018585Y009757D01*
X018613Y009760D01*
X018641Y009759D01*
X018668Y009754D01*
X018695Y009745D01*
X018720Y009733D01*
X018743Y009718D01*
X018764Y009699D01*
X018782Y009678D01*
X018797Y009654D01*
X018808Y009628D01*
X018816Y009602D01*
X018820Y009574D01*
X018820Y009546D01*
X018816Y009518D01*
X018808Y009492D01*
X018797Y009466D01*
X018782Y009442D01*
X018764Y009421D01*
X018743Y009402D01*
X018720Y009387D01*
X018695Y009375D01*
X018668Y009366D01*
X018641Y009361D01*
X018613Y009360D01*
X018585Y009363D01*
X018558Y009370D01*
X018532Y009380D01*
X018508Y009394D01*
X018486Y009411D01*
X018467Y009431D01*
X018450Y009454D01*
X018437Y009479D01*
X018428Y009505D01*
X018422Y009532D01*
X018420Y009560D01*
D14*
X018620Y009560D03*
D15*
X018654Y004560D03*
X007050Y002939D03*
X006050Y002939D03*
X005050Y002939D03*
X004050Y002939D03*
X003050Y002939D03*
X002050Y002939D03*
X001050Y002939D03*
D16*
X014300Y007139D03*
D17*
X014300Y011839D03*
X014300Y002439D03*
D18*
X000560Y007189D03*
X000560Y009189D03*
D19*
X002054Y010530D02*
X002054Y011248D01*
X002054Y010530D02*
X001622Y010530D01*
X001622Y011248D01*
X002054Y011248D01*
X002054Y010637D02*
X001622Y010637D01*
X001622Y010744D02*
X002054Y010744D01*
X002054Y010851D02*
X001622Y010851D01*
X001622Y010958D02*
X002054Y010958D01*
X002054Y011065D02*
X001622Y011065D01*
X001622Y011172D02*
X002054Y011172D01*
X002841Y011248D02*
X002841Y010530D01*
X002409Y010530D01*
X002409Y011248D01*
X002841Y011248D01*
X002841Y010637D02*
X002409Y010637D01*
X002409Y010744D02*
X002841Y010744D01*
X002841Y010851D02*
X002409Y010851D01*
X002409Y010958D02*
X002841Y010958D01*
X002841Y011065D02*
X002409Y011065D01*
X002409Y011172D02*
X002841Y011172D01*
X003629Y011248D02*
X003629Y010530D01*
X003197Y010530D01*
X003197Y011248D01*
X003629Y011248D01*
X003629Y010637D02*
X003197Y010637D01*
X003197Y010744D02*
X003629Y010744D01*
X003629Y010851D02*
X003197Y010851D01*
X003197Y010958D02*
X003629Y010958D01*
X003629Y011065D02*
X003197Y011065D01*
X003197Y011172D02*
X003629Y011172D01*
X005203Y011248D02*
X005203Y010530D01*
X004771Y010530D01*
X004771Y011248D01*
X005203Y011248D01*
X005203Y010637D02*
X004771Y010637D01*
X004771Y010744D02*
X005203Y010744D01*
X005203Y010851D02*
X004771Y010851D01*
X004771Y010958D02*
X005203Y010958D01*
X005203Y011065D02*
X004771Y011065D01*
X004771Y011172D02*
X005203Y011172D01*
X005991Y011248D02*
X005991Y010530D01*
X005559Y010530D01*
X005559Y011248D01*
X005991Y011248D01*
X005991Y010637D02*
X005559Y010637D01*
X005559Y010744D02*
X005991Y010744D01*
X005991Y010851D02*
X005559Y010851D01*
X005559Y010958D02*
X005991Y010958D01*
X005991Y011065D02*
X005559Y011065D01*
X005559Y011172D02*
X005991Y011172D01*
X006778Y011248D02*
X006778Y010530D01*
X006346Y010530D01*
X006346Y011248D01*
X006778Y011248D01*
X006778Y010637D02*
X006346Y010637D01*
X006346Y010744D02*
X006778Y010744D01*
X006778Y010851D02*
X006346Y010851D01*
X006346Y010958D02*
X006778Y010958D01*
X006778Y011065D02*
X006346Y011065D01*
X006346Y011172D02*
X006778Y011172D01*
X006778Y004948D02*
X006778Y004230D01*
X006346Y004230D01*
X006346Y004948D01*
X006778Y004948D01*
X006778Y004337D02*
X006346Y004337D01*
X006346Y004444D02*
X006778Y004444D01*
X006778Y004551D02*
X006346Y004551D01*
X006346Y004658D02*
X006778Y004658D01*
X006778Y004765D02*
X006346Y004765D01*
X006346Y004872D02*
X006778Y004872D01*
X005991Y004948D02*
X005991Y004230D01*
X005559Y004230D01*
X005559Y004948D01*
X005991Y004948D01*
X005991Y004337D02*
X005559Y004337D01*
X005559Y004444D02*
X005991Y004444D01*
X005991Y004551D02*
X005559Y004551D01*
X005559Y004658D02*
X005991Y004658D01*
X005991Y004765D02*
X005559Y004765D01*
X005559Y004872D02*
X005991Y004872D01*
X002879Y004948D02*
X002879Y004230D01*
X002447Y004230D01*
X002447Y004948D01*
X002879Y004948D01*
X002879Y004337D02*
X002447Y004337D01*
X002447Y004444D02*
X002879Y004444D01*
X002879Y004551D02*
X002447Y004551D01*
X002447Y004658D02*
X002879Y004658D01*
X002879Y004765D02*
X002447Y004765D01*
X002447Y004872D02*
X002879Y004872D01*
X002054Y004948D02*
X002054Y004230D01*
X001622Y004230D01*
X001622Y004948D01*
X002054Y004948D01*
X002054Y004337D02*
X001622Y004337D01*
X001622Y004444D02*
X002054Y004444D01*
X002054Y004551D02*
X001622Y004551D01*
X001622Y004658D02*
X002054Y004658D01*
X002054Y004765D02*
X001622Y004765D01*
X001622Y004872D02*
X002054Y004872D01*
M02*
